<svg width="48" height="48" viewBox="0 0 48 48" fill="none" xmlns="http://www.w3.org/2000/svg">
<path d="M29.0529 24C29.4108 24 29.7108 23.879 29.9529 23.6369C30.195 23.3947 30.316 23.0947 30.316 22.7369C30.316 22.379 30.195 22.079 29.9529 21.8369C29.7108 21.5947 29.4108 21.4737 29.0529 21.4737C28.695 21.4737 28.395 21.5947 28.1529 21.8369C27.9108 22.079 27.7897 22.379 27.7897 22.7369C27.7897 23.0947 27.9108 23.3947 28.1529 23.6369C28.395 23.879 28.695 24 29.0529 24ZM18.9476 20.8421H25.2634V18.9474H18.9476V20.8421ZM14.5265 36.6316C13.8108 34.2316 13.1055 31.8369 12.4108 29.4474C11.716 27.0579 11.3687 24.6105 11.3687 22.1053C11.3687 20.1684 12.0423 18.5263 13.3897 17.179C14.7371 15.8316 16.3792 15.1579 18.316 15.1579H24.6318C25.2423 14.3579 25.9844 13.7369 26.8581 13.2947C27.7318 12.8526 28.6739 12.6316 29.6844 12.6316C30.2108 12.6316 30.6581 12.8158 31.0265 13.1842C31.395 13.5526 31.5792 14 31.5792 14.5263C31.5792 14.6526 31.5634 14.779 31.5318 14.9053C31.5002 15.0316 31.4634 15.1474 31.4213 15.2526C31.3371 15.4842 31.2581 15.7211 31.1844 15.9632C31.1108 16.2053 31.0529 16.4526 31.0108 16.7053L33.8844 19.579H36.6318V28.3895L33.0634 29.5579L30.9476 36.6316H24.0002V34.1053H21.4739V36.6316H14.5265ZM15.9476 34.7369H19.5792V32.2105H25.895V34.7369H29.5265L31.516 28.1053L34.7371 27V21.4737H33.095L29.0529 17.4316C29.0739 16.9053 29.1423 16.3947 29.2581 15.9C29.3739 15.4053 29.495 14.9053 29.6213 14.4C28.8213 14.6105 28.0634 14.9211 27.3476 15.3316C26.6318 15.7421 26.0844 16.3158 25.7055 17.0526H18.316C16.9205 17.0526 15.7295 17.5459 14.7431 18.5323C13.7566 19.5188 13.2634 20.7098 13.2634 22.1053C13.2634 24.277 13.5687 26.3989 14.1792 28.4709C14.7897 30.5429 15.3792 32.6316 15.9476 34.7369Z" fill="#334050"/>
</svg>
