<svg width="76" height="76" viewBox="0 0 76 76" fill="none" xmlns="http://www.w3.org/2000/svg">
<path d="M29.7 50.6H32.2V46.2H36.6V43.7H32.2V39.3H29.7V43.7H25.3V46.2H29.7V50.6ZM40.45 48.85H50.5V46.4H40.45V48.85ZM40.45 43.5H50.5V41H40.45V43.5ZM42.3 35.35L45.35 32.3L48.4 35.35L50.2 33.55L47.15 30.5L50.2 27.45L48.4 25.65L45.35 28.7L42.3 25.65L40.5 27.45L43.55 30.5L40.5 33.55L42.3 35.35ZM26.05 31.75H35.85V29.25H26.05V31.75ZM23 56C22.2 56 21.5 55.7 20.9 55.1C20.3 54.5 20 53.8 20 53V23C20 22.2 20.3 21.5 20.9 20.9C21.5 20.3 22.2 20 23 20H53C53.8 20 54.5 20.3 55.1 20.9C55.7 21.5 56 22.2 56 23V53C56 53.8 55.7 54.5 55.1 55.1C54.5 55.7 53.8 56 53 56H23ZM23 53H53V23H23V53Z" fill="black"/>
</svg>
