<svg width="76" height="76" viewBox="0 0 76 76" fill="none" xmlns="http://www.w3.org/2000/svg">
<path d="M20 60V45.5C20 42.8717 20.9333 40.6313 22.8 38.7788C24.6667 36.9263 26.9 36 29.5 36H32.5V19C32.5 18.175 32.7937 17.4688 33.3813 16.8813C33.9688 16.2938 34.675 16 35.5 16H40.5C41.325 16 42.0312 16.2938 42.6187 16.8813C43.2063 17.4688 43.5 18.175 43.5 19V36H46.5C49.1283 36 51.3687 36.9263 53.2212 38.7788C55.0737 40.6313 56 42.8717 56 45.5V60H20ZM23 57H28.25V50.5C28.25 50.075 28.4 49.7188 28.7 49.4313C29 49.1437 29.3583 49 29.775 49C30.1917 49 30.5417 49.1437 30.825 49.4313C31.1083 49.7188 31.25 50.075 31.25 50.5V57H36.5V50.5C36.5 50.075 36.65 49.7188 36.95 49.4313C37.25 49.1437 37.6083 49 38.025 49C38.4417 49 38.7917 49.1437 39.075 49.4313C39.3583 49.7188 39.5 50.075 39.5 50.5V57H44.75V50.5C44.75 50.075 44.9 49.7188 45.2 49.4313C45.5 49.1437 45.8583 49 46.275 49C46.6917 49 47.0417 49.1437 47.325 49.4313C47.6083 49.7188 47.75 50.075 47.75 50.5V57H53V45.5C53 43.6944 52.368 42.1597 51.1042 40.8958C49.8403 39.632 48.3056 39 46.5 39H29.5C27.6944 39 26.1597 39.632 24.8959 40.8958C23.632 42.1597 23 43.6944 23 45.5V57ZM40.5 36V19H35.5V36H40.5Z" fill="black"/>
</svg>
