<svg width="360" height="368" viewBox="0 0 360 368" fill="none" xmlns="http://www.w3.org/2000/svg">
<path fill-rule="evenodd" clip-rule="evenodd" d="M-108 -72.7132V468.863H620V118.083H619.722C618.917 117.976 618.1 118.169 617.429 118.626C616.757 119.084 616.278 119.772 616.082 120.561C613.782 126.374 611.002 132.011 608.929 137.901C608.799 138.595 608.531 139.255 608.14 139.843C607.749 140.431 607.243 140.933 606.653 141.321C606.062 141.708 605.4 141.972 604.705 142.097C604.01 142.221 603.297 142.204 602.609 142.047C600.675 141.803 598.711 142.047 596.896 142.758C595.082 143.469 593.474 144.624 592.22 146.116C590.373 148.304 588.114 150.107 585.572 151.425C579.531 153.809 574.429 158.095 571.038 163.634C570.101 165.1 569.044 166.487 567.878 167.779C567.412 168.424 566.745 168.895 565.982 169.119C558.853 169.953 554.96 174.377 552.408 180.671C551.055 183.546 549.536 186.34 547.857 189.038C547.504 189.67 547.024 190.251 546.442 191.085C543.232 184.689 540.198 178.674 536.836 172C533.525 186.307 530.365 199.907 527.029 214.19C523.414 209.057 520.203 204.508 516.942 199.882C513.531 202.586 510.371 205.114 507.009 207.794C503.799 200.008 500.765 192.653 497.378 184.462C495.786 191.136 494.421 197 492.954 202.815C490.68 211.94 489.264 221.443 485.776 230.088C479.474 245.438 475.027 261.485 472.53 277.889C471.165 287.064 469.143 296.14 467.272 305.972C464.163 302.484 461.432 299.502 458.829 296.418C458.432 295.771 457.807 295.296 457.078 295.086C456.348 294.875 455.567 294.944 454.886 295.28C452.433 296.241 449.83 296.823 447.177 297.606C443.738 284.537 440.377 271.772 436.812 258.274C434.107 264.239 431.731 269.345 429.432 274.476C428.437 276.378 427.665 278.388 427.131 280.467C425.134 291.463 423.339 302.484 421.468 313.48C420.155 321.013 418.814 328.521 417.374 336.787C413.86 332.06 410.776 327.863 407.415 323.338C404.053 331.276 400.893 338.683 397.707 346.24C391.843 343.409 385.7 341.31 385.094 333.526C384.753 331.713 384.22 329.941 383.502 328.242C381.201 320.608 378.066 313.075 376.778 305.265C373.744 286.661 371.216 267.98 369.194 249.224C368.107 239.214 365.529 230.266 358.502 222.859C357.695 221.942 357.131 220.839 356.859 219.649C355.519 213.961 354.331 208.249 353.067 202.562C351.399 195.054 349.679 187.571 348.012 180.089H347.329C344.245 198.997 341.136 217.931 337.926 237.521C337.067 236.231 336.536 235.524 336.08 234.765C333.755 230.797 331.201 226.929 329.155 222.784C327.713 219.827 326.07 219.296 323.188 220.635C321.227 221.38 319.217 221.988 317.172 222.455C313.887 212.622 310.575 203.066 307.542 193.435C306.509 189.685 305.69 185.879 305.09 182.036C300.919 160.625 297.076 139.114 288.431 118.892C288.002 117.932 287.522 116.591 286.688 116.212C283.983 114.949 281.077 114.013 278.144 112.901C274.579 121.673 271.167 130.064 267.603 138.811C264.292 136.333 261.385 133.882 258.199 131.885C254.938 129.837 251.4 128.245 247.912 126.425C244.499 131.278 241.315 135.853 237.825 140.858C235.247 133.755 232.897 127.36 230.546 120.914C227.892 113.559 227.892 113.482 220.106 113.887C219.415 113.986 218.711 113.847 218.109 113.494C217.508 113.14 217.044 112.592 216.795 111.94C215.025 108.578 212.776 105.445 211.284 101.981C210.36 99.6605 208.882 97.6014 206.978 95.9842C205.075 94.367 202.804 93.241 200.364 92.7046C199.642 92.3816 198.834 92.303 198.063 92.4807C197.292 92.6584 196.6 93.0828 196.092 93.6894C193.564 96.4197 190.834 98.998 187.851 102.006C186.335 96.3183 184.995 91.3136 183.656 86.2838C180.521 74.3274 178.246 62.0169 169.905 52.1588C168.508 50.1596 166.84 48.3642 164.949 46.8244C162.253 45.0867 159.934 42.8236 158.132 40.17C156.33 37.5164 155.081 34.5269 154.459 31.38C153.297 26.3244 151.325 21.4465 149.683 16.4911C149.227 15.1013 148.696 13.7361 148.216 12.3711C142.276 30.521 136.815 48.6202 128.197 65.8839C125.744 65.3025 123.216 64.4941 120.613 64.14C120.024 64.1029 119.434 64.1945 118.884 64.4085C118.334 64.6225 117.837 64.9537 117.427 65.3791C114.774 69.1447 112.777 73.4424 109.794 76.906C106.07 80.8318 102.129 84.545 97.9891 88.028C97.6608 86.738 97.5336 86.3851 97.4583 86.005C94.3999 70.6371 91.3155 55.2679 88.384 39.873C88.0297 38.0277 87.2966 37.118 85.6033 36.8144C80.6993 35.9047 75.8205 34.8938 70.866 34.2113C68.995 33.9583 67.9335 33.5794 67.5792 31.4811C67.0486 28.3722 66.1647 25.2888 65.355 22.2291C61.5634 8.12516 59.3146 -6.35902 52.1349 -19.504C49.0764 -25.1409 45.9166 -29.8421 39.9007 -32.3698C38.712 -33.0389 37.8185 -34.1308 37.3978 -35.4284C34.4911 -44.1756 31.736 -52.9722 28.9552 -61.7429C28.8544 -62.4969 28.489 -63.1905 27.924 -63.6999C27.3589 -64.2093 26.6312 -64.5013 25.8708 -64.5237C20.3636 -65.1319 15.0705 -67.0003 10.4019 -69.9842C9.20844 -70.6622 8.22784 -71.6598 7.5705 -72.8648C4.68829 -78.5018 1.98407 -84.2153 -1.02374 -90.4334C-1.63116 -88.9931 -2.03461 -88.1081 -2.3642 -87.1726C-5.11926 -79.5644 -7.79871 -71.9306 -10.6806 -64.372C-10.9221 -63.8216 -11.2764 -63.3279 -11.7205 -62.9229C-12.1647 -62.5178 -12.6888 -62.2105 -13.2592 -62.0207C-18.7858 -60.7885 -24.5349 -60.98 -29.9673 -62.5773C-30.9383 -62.9317 -31.735 -63.6471 -32.1915 -64.5745C-34.1133 -69.2003 -35.8573 -73.9265 -37.7026 -78.5784C-38.9159 -81.6875 -40.1797 -84.7967 -41.4681 -87.9564C-43.9714 -87.349 -46.1956 -86.9961 -48.3184 -86.2628C-48.7178 -86.0529 -49.1567 -85.9289 -49.6069 -85.8987C-50.057 -85.8685 -50.5085 -85.9329 -50.9323 -86.0876C-51.3561 -86.2423 -51.7429 -86.484 -52.0677 -86.7971C-52.3926 -87.1102 -52.6484 -87.4878 -52.8187 -87.9056C-55.4218 -92.2281 -58.3036 -96.3987 -61.3114 -101C-61.7164 -99.7361 -61.9694 -99.0536 -62.1459 -98.3711C-65.002 -87.5775 -67.8499 -76.7921 -70.6896 -66.0148C-70.866 -65.3323 -70.9425 -64.2706 -71.372 -64.0684C-74.6576 -62.5267 -78.0198 -61.1617 -81.4831 -59.6954C-84.7442 -73.1179 -87.8792 -86.0098 -91.2153 -99.6856C-94.2985 -92.5317 -97.0287 -86.1357 -99.8095 -79.7657C-100.056 -78.897 -100.507 -78.0997 -101.124 -77.4404C-103.348 -75.8223 -105.649 -74.2806 -108 -72.7132Z" fill="#212121"/>
</svg>
