<svg width="360" height="360" viewBox="0 0 360 360" fill="none" xmlns="http://www.w3.org/2000/svg">
<g clip-path="url(#clip0_1053_1461)">
<rect width="360" height="472" fill="url(#paint0_linear_1053_1461)"/>
<g style="mix-blend-mode:multiply" clip-path="url(#clip1_1053_1461)">
<path d="M381 -32H-23V372H381V-32Z" fill="url(#paint1_linear_1053_1461)"/>
<g style="mix-blend-mode:overlay" opacity="0.6">
<path fill-rule="evenodd" clip-rule="evenodd" d="M375 92.6097V372.325H-1V191.153H-0.856519C-0.440624 191.098 -0.0188781 191.197 0.327993 191.433C0.674864 191.67 0.922493 192.025 1.02348 192.432C2.21167 195.435 3.64726 198.346 4.7182 201.388C4.78501 201.747 4.92358 202.088 5.12559 202.392C5.3276 202.695 5.58888 202.955 5.89374 203.155C6.1986 203.355 6.54074 203.491 6.89962 203.555C7.25849 203.62 7.62669 203.611 7.98209 203.53C8.98085 203.404 9.99528 203.53 10.9326 203.897C11.87 204.264 12.7003 204.861 13.3478 205.631C14.3018 206.761 15.4684 207.693 16.7813 208.373C19.9017 209.605 22.5367 211.818 24.2882 214.679C24.7722 215.437 25.318 216.153 25.9202 216.82C26.1607 217.153 26.5052 217.396 26.8993 217.512C30.5814 217.943 32.5919 220.228 33.9103 223.478C34.6088 224.963 35.3936 226.406 36.2607 227.8C36.4429 228.126 36.691 228.426 36.9913 228.857C38.6493 225.554 40.2163 222.447 41.9526 219C43.6631 226.39 45.295 233.413 47.0181 240.79C48.8853 238.14 50.5433 235.79 52.2276 233.401C53.9896 234.797 55.6216 236.103 57.3581 237.487C59.0161 233.466 60.5831 229.667 62.3322 225.437C63.1546 228.883 63.8596 231.912 64.617 234.915C65.7918 239.628 66.5231 244.537 68.3246 249.002C71.5793 256.93 73.876 265.218 75.166 273.69C75.871 278.429 76.9152 283.116 77.8817 288.194C79.4874 286.393 80.8975 284.853 82.242 283.26C82.4474 282.926 82.77 282.68 83.1466 282.572C83.5233 282.463 83.927 282.499 84.2788 282.672C85.5454 283.169 86.8899 283.469 88.2604 283.874C90.0364 277.123 91.7723 270.531 93.6134 263.559C95.0107 266.64 96.2378 269.277 97.4254 271.927C97.9394 272.909 98.3381 273.948 98.6138 275.022C99.6451 280.701 100.572 286.393 101.538 292.072C102.217 295.963 102.909 299.841 103.653 304.11C105.468 301.668 107.061 299.501 108.797 297.164C110.533 301.263 112.165 305.089 113.811 308.992C116.839 307.53 120.012 306.446 120.325 302.426C120.501 301.489 120.777 300.574 121.147 299.696C122.336 295.754 123.955 291.863 124.62 287.829C126.187 278.22 127.493 268.572 128.537 258.885C129.098 253.715 130.43 249.093 134.059 245.268C134.476 244.794 134.768 244.225 134.908 243.61C135.6 240.672 136.214 237.722 136.866 234.785C137.728 230.907 138.616 227.042 139.477 223.178H139.83C141.423 232.944 143.029 242.722 144.687 252.841C145.13 252.174 145.405 251.809 145.64 251.417C146.841 249.367 148.16 247.37 149.217 245.229C149.961 243.702 150.81 243.427 152.298 244.119C153.311 244.504 154.349 244.818 155.405 245.059C157.102 239.981 158.813 235.045 160.38 230.071C160.913 228.134 161.336 226.168 161.646 224.183C163.8 213.125 165.785 202.015 170.25 191.571C170.472 191.075 170.719 190.382 171.15 190.187C172.547 189.534 174.048 189.051 175.563 188.476C177.404 193.007 179.167 197.341 181.007 201.858C182.718 200.579 184.219 199.313 185.864 198.281C187.548 197.224 189.376 196.401 191.178 195.461C192.94 197.968 194.585 200.331 196.387 202.916C197.719 199.247 198.932 195.944 200.147 192.615C201.517 188.816 201.517 188.777 205.539 188.986C205.895 189.037 206.259 188.965 206.57 188.782C206.881 188.6 207.12 188.317 207.249 187.98C208.163 186.244 209.325 184.625 210.095 182.836C210.572 181.638 211.336 180.574 212.319 179.739C213.302 178.904 214.475 178.322 215.735 178.045C216.108 177.878 216.525 177.838 216.923 177.93C217.322 178.021 217.679 178.241 217.941 178.554C219.247 179.964 220.657 181.296 222.198 182.849C222.981 179.912 223.673 177.327 224.365 174.729C225.984 168.554 227.159 162.196 231.467 157.104C232.188 156.071 233.049 155.144 234.026 154.349C235.419 153.451 236.616 152.283 237.547 150.912C238.478 149.541 239.123 147.997 239.444 146.372C240.045 143.761 241.063 141.242 241.911 138.682C242.146 137.964 242.421 137.259 242.669 136.554C245.737 145.928 248.557 155.276 253.008 164.193C254.275 163.893 255.581 163.475 256.925 163.292C257.229 163.273 257.534 163.32 257.818 163.431C258.102 163.541 258.359 163.712 258.57 163.932C259.941 165.877 260.972 168.097 262.513 169.886C264.436 171.913 266.472 173.831 268.61 175.63C268.78 174.964 268.845 174.781 268.884 174.585C270.464 166.648 272.057 158.71 273.571 150.759C273.754 149.806 274.133 149.336 275.007 149.179C277.54 148.709 280.06 148.187 282.619 147.834C283.585 147.704 284.133 147.508 284.316 146.424C284.59 144.819 285.047 143.226 285.465 141.646C287.423 134.361 288.585 126.881 292.293 120.091C293.873 117.18 295.505 114.752 298.612 113.446C299.226 113.101 299.687 112.537 299.904 111.867C301.406 107.349 302.829 102.806 304.265 98.2757C304.317 97.8862 304.506 97.528 304.798 97.2649C305.089 97.0018 305.465 96.851 305.858 96.8394C308.702 96.5253 311.436 95.5603 313.847 94.0192C314.464 93.669 314.97 93.1537 315.31 92.5314C316.798 89.62 318.195 86.669 319.749 83.4575C320.062 84.2014 320.271 84.6585 320.441 85.1416C321.864 89.0711 323.248 93.0139 324.736 96.9178C324.861 97.2021 325.044 97.457 325.273 97.6662C325.503 97.8754 325.773 98.0341 326.068 98.1322C328.922 98.7686 331.892 98.6697 334.697 97.8447C335.199 97.6617 335.61 97.2922 335.846 96.8132C336.839 94.424 337.739 91.983 338.693 89.5804C339.319 87.9746 339.972 86.3687 340.637 84.7368C341.93 85.0505 343.079 85.2328 344.175 85.6115C344.382 85.7199 344.608 85.784 344.841 85.7996C345.073 85.8152 345.307 85.7819 345.525 85.702C345.744 85.6221 345.944 85.4973 346.112 85.3356C346.28 85.1739 346.412 84.9788 346.5 84.763C347.844 82.5305 349.333 80.3765 350.886 78C351.095 78.6528 351.226 79.0053 351.317 79.3578C352.792 84.9325 354.263 90.503 355.73 96.0693C355.821 96.4218 355.86 96.9701 356.082 97.0746C357.779 97.8708 359.516 98.5758 361.304 99.3332C362.989 92.4007 364.608 85.7422 366.331 78.6789C367.923 82.3737 369.333 85.6772 370.77 88.9672C370.897 89.4159 371.13 89.8276 371.449 90.1682C372.597 91.0039 373.786 91.8001 375 92.6097Z" fill="#212121"/>
</g>
<g style="mix-blend-mode:overlay" opacity="0.4">
<path d="M26.6062 222.144H41.7566C41.8045 222.027 41.8532 221.91 41.9012 221.793H26.5246C26.5521 221.91 26.5788 222.027 26.6062 222.144ZM133.498 243.386H133.693C133.776 243.262 133.858 243.142 133.93 243.036H133.441C133.46 243.153 133.479 243.268 133.498 243.386ZM381 -12.4618V-12.8125H360.297V-32H359.947V-12.8125H338.004V-32H337.654V-12.8125H315.473V-32H315.122V-12.8125H293.18V-32H292.829V-12.8125H270.887V-32H270.536V-12.8125H248.594V-32H248.244V-12.8125H226.301V-32H225.951V-12.8125H204.008V-32H203.658V-12.8125H181.716V-32H181.365V-12.8125H159.424V-32H159.074V-12.8125H137.131V-32H136.78V-12.8125H114.839V-32H114.488V-12.8125H92.5464V-32H92.1957V-12.8125H70.0143V-32H69.6636V-12.8125H47.7219V-32H47.3712V-12.8125H25.4288V-32H25.0781V-12.8125H3.13712V-32H2.78642V-12.8125H-19.156V-32H-19.5067V-12.8125H-23V-12.4618H-19.5067V8.53396H-23V8.88466H-19.5067V29.7764H-23V30.1271H-19.5067V51.1236H-23V51.4743H-19.5067V72.4693H-23V72.82H-19.5067V93.8164H-23V94.1671H-19.5067V115.163H-23V115.514H-19.5067V136.405H-23V136.756H-19.5067V157.752H-23V158.103H-19.5067V179.1H-20.6649C-20.6177 179.217 -20.5677 179.333 -20.5197 179.45H-19.5067V181.86C-19.3895 182.13 -19.2726 182.4 -19.156 182.67V179.45H2.78642V200.446H2.6042C2.78909 200.661 2.96177 200.892 3.13712 201.119V200.797H25.0781V215.568C25.1952 216.073 25.3121 216.576 25.4288 217.079V200.797H47.3712V221.793H46.8684C46.8972 221.91 46.9259 222.027 46.9547 222.144H47.3712V223.824C47.4157 224.001 47.4589 224.181 47.5033 224.358C47.5794 224.662 47.6492 224.969 47.7219 225.275V222.144H69.6636V243.036H52.8569C52.9001 243.152 52.9398 243.27 52.9823 243.386H69.6636V264.382H58.5673C58.5865 264.499 58.607 264.616 58.6255 264.733H69.6636V276.007C69.7807 276.045 69.8964 276.086 70.0143 276.121V264.733H76.1274C76.1583 264.616 76.189 264.498 76.2199 264.382H70.0143V243.386H92.1957V264.382H82.8721C82.9249 264.498 82.9776 264.616 83.0323 264.733H92.1957V285.729H87.1674L87.1743 285.771C87.1921 285.874 87.2106 285.977 87.2285 286.08H92.1957V294.993C92.3121 294.835 92.43 294.677 92.5464 294.519V286.08H110.802C110.837 285.963 110.869 285.846 110.903 285.729H92.5464V264.733H114.413C114.428 264.616 114.442 264.499 114.458 264.382H92.5464V243.386H114.488V264.144C114.609 263.235 114.722 262.324 114.839 261.413V243.386H117.542C117.579 243.269 117.618 243.152 117.657 243.036H114.839V222.144H125.599C125.625 222.027 125.652 221.91 125.678 221.793H114.839V200.797H136.78V221.793H129.96L130.017 222.144H136.78V238.386C136.899 238.185 137.015 237.984 137.131 237.782V222.144H149.419C149.457 222.027 149.496 221.91 149.534 221.793H137.131V200.797H154.158C154.184 200.68 154.207 200.563 154.232 200.446H137.131V179.45H159.074V182.757C159.191 182.428 159.303 182.098 159.424 181.77V179.45H160.343C160.389 179.334 160.435 179.216 160.482 179.1H159.424V158.103H181.365V179.1H168.598C168.644 179.216 168.693 179.334 168.74 179.45H181.365V183.042C181.482 182.983 181.599 182.924 181.716 182.865V179.45H192.927C192.97 179.334 193.013 179.216 193.056 179.1H181.716V158.103H203.658V168.723C203.708 168.615 203.768 168.51 203.815 168.401C203.875 168.263 203.945 168.141 204.008 168.01V158.103H219.552C219.582 157.986 219.613 157.87 219.642 157.752H204.008V136.756H225.951V141.854C226.067 141.699 226.18 141.541 226.301 141.387V136.756H230.905C231.041 136.642 231.172 136.524 231.301 136.405H226.301V115.514H248.244V136.405H244.804C244.848 136.522 244.889 136.64 244.933 136.756H248.244V144.83C248.356 145.077 248.481 145.321 248.594 145.568V136.756H270.536V141.549C270.654 140.949 270.771 140.348 270.887 139.746V136.756H271.469C271.491 136.639 271.514 136.522 271.537 136.405H270.887V115.514H286.941C286.969 115.396 286.999 115.28 287.028 115.163H270.887V94.1671H292.829V99.7487C292.944 99.5529 293.063 99.3645 293.18 99.1735V94.1671H298.265C298.483 94.0575 298.69 93.9411 298.923 93.8432C298.938 93.837 298.951 93.8233 298.966 93.8164H293.18V72.82H315.122V73.0665C315.179 73.0337 315.237 73.0028 315.293 72.9693C315.354 72.9344 315.413 72.8878 315.473 72.8488V72.82H315.516C315.676 72.7132 315.829 72.5961 315.974 72.4693H315.473V51.4743H337.654V72.4693H325.657L325.787 72.82H337.654V77.0893L337.696 77.0797C337.804 77.0441 337.907 76.9971 338.004 76.9393V72.82H340.185C340.231 72.7029 340.279 72.5865 340.325 72.4693H338.004V51.4743H359.947V72.4693H359.581C359.612 72.5858 359.643 72.7036 359.673 72.82H359.947V73.8543C360.063 74.2934 360.178 74.7337 360.295 75.1721L360.297 75.1851V72.82H367.709C367.737 72.7029 367.766 72.5865 367.794 72.4693H360.297V51.4743H381V51.1236H360.297V30.1271H381V29.7764H360.297V8.88466H381V8.53396H360.297V-12.4618H381ZM2.78642 179.1H-19.156V158.103H2.78642V179.1ZM2.78642 157.752H-19.156V136.756H2.78642V157.752ZM2.78642 136.405H-19.156V115.514H2.78642V136.405ZM2.78642 115.163H-19.156V94.1671H2.78642V115.163ZM2.78642 93.8164H-19.156V72.82H2.78642V93.8164ZM2.78642 72.4693H-19.156V51.4743H2.78642V72.4693ZM2.78642 51.1236H-19.156V30.1271H2.78642V51.1236ZM2.78642 29.7764H-19.156V8.88466H2.78642V29.7764ZM2.78642 8.53396H-19.156V-12.4618H2.78642V8.53396ZM25.0781 200.446H3.13712V179.45H25.0781V200.446ZM25.0781 179.1H3.13712V158.103H25.0781V179.1ZM25.0781 157.752H3.13712V136.756H25.0781V157.752ZM25.0781 136.405H3.13712V115.514H25.0781V136.405ZM25.0781 115.163H3.13712V94.1671H25.0781V115.163ZM25.0781 93.8164H3.13712V72.82H25.0781V93.8164ZM25.0781 72.4693H3.13712V51.4743H25.0781V72.4693ZM25.0781 51.1236H3.13712V30.1271H25.0781V51.1236ZM25.0781 29.7764H3.13712V8.88466H25.0781V29.7764ZM25.0781 8.53396H3.13712V-12.4618H25.0781V8.53396ZM47.3712 200.446H25.4288V179.45H47.3712V200.446ZM47.3712 179.1H25.4288V158.103H47.3712V179.1ZM47.3712 157.752H25.4288V136.756H47.3712V157.752ZM47.3712 136.405H25.4288V115.514H47.3712V136.405ZM47.3712 115.163H25.4288V94.1671H47.3712V115.163ZM47.3712 93.8164H25.4288V72.82H47.3712V93.8164ZM47.3712 72.4693H25.4288V51.4743H47.3712V72.4693ZM47.3712 51.1236H25.4288V30.1271H47.3712V51.1236ZM47.3712 29.7764H25.4288V8.88466H47.3712V29.7764ZM47.3712 8.53396H25.4288V-12.4618H47.3712V8.53396ZM69.6636 221.793H47.7219V200.797H69.6636V221.793ZM69.6636 200.446H47.7219V179.45H69.6636V200.446ZM69.6636 179.1H47.7219V158.103H69.6636V179.1ZM69.6636 157.752H47.7219V136.756H69.6636V157.752ZM69.6636 136.405H47.7219V115.514H69.6636V136.405ZM69.6636 115.163H47.7219V94.1671H69.6636V115.163ZM69.6636 93.8164H47.7219V72.82H69.6636V93.8164ZM69.6636 72.4693H47.7219V51.4743H69.6636V72.4693ZM69.6636 51.1236H47.7219V30.1271H69.6636V51.1236ZM69.6636 29.7764H47.7219V8.88466H69.6636V29.7764ZM69.6636 8.53396H47.7219V-12.4618H69.6636V8.53396ZM92.1957 243.036H70.0143V222.144H92.1957V243.036ZM92.1957 221.793H70.0143V200.797H92.1957V221.793ZM92.1957 200.446H70.0143V179.45H92.1957V200.446ZM92.1957 179.1H70.0143V158.103H92.1957V179.1ZM92.1957 157.752H70.0143V136.756H92.1957V157.752ZM92.1957 136.405H70.0143V115.514H92.1957V136.405ZM92.1957 115.163H70.0143V94.1671H92.1957V115.163ZM92.1957 93.8164H70.0143V72.82H92.1957V93.8164ZM92.1957 72.4693H70.0143V51.4743H92.1957V72.4693ZM92.1957 51.1236H70.0143V30.1271H92.1957V51.1236ZM92.1957 29.7764H70.0143V8.88466H92.1957V29.7764ZM92.1957 8.53396H70.0143V-12.4618H92.1957V8.53396ZM114.488 243.036H92.5464V222.144H114.488V243.036ZM114.488 221.793H92.5464V200.797H114.488V221.793ZM114.488 200.446H92.5464V179.45H114.488V200.446ZM114.488 179.1H92.5464V158.103H114.488V179.1ZM114.488 157.752H92.5464V136.756H114.488V157.752ZM114.488 136.405H92.5464V115.514H114.488V136.405ZM114.488 115.163H92.5464V94.1671H114.488V115.163ZM114.488 93.8164H92.5464V72.82H114.488V93.8164ZM114.488 72.4693H92.5464V51.4743H114.488V72.4693ZM114.488 51.1236H92.5464V30.1271H114.488V51.1236ZM114.488 29.7764H92.5464V8.88466H114.488V29.7764ZM114.488 8.53396H92.5464V-12.4618H114.488V8.53396ZM136.78 200.446H114.839V179.45H136.78V200.446ZM136.78 179.1H114.839V158.103H136.78V179.1ZM136.78 157.752H114.839V136.756H136.78V157.752ZM136.78 136.405H114.839V115.514H136.78V136.405ZM136.78 115.163H114.839V94.1671H136.78V115.163ZM136.78 93.8164H114.839V72.82H136.78V93.8164ZM136.78 72.4693H114.839V51.4743H136.78V72.4693ZM136.78 51.1236H114.839V30.1271H136.78V51.1236ZM136.78 29.7764H114.839V8.88466H136.78V29.7764ZM136.78 8.53396H114.839V-12.4618H136.78V8.53396ZM159.074 179.1H137.131V158.103H159.074V179.1ZM159.074 157.752H137.131V136.756H159.074V157.752ZM159.074 136.405H137.131V115.514H159.074V136.405ZM159.074 115.163H137.131V94.1671H159.074V115.163ZM159.074 93.8164H137.131V72.82H159.074V93.8164ZM159.074 72.4693H137.131V51.4743H159.074V72.4693ZM159.074 51.1236H137.131V30.1271H159.074V51.1236ZM159.074 29.7764H137.131V8.88466H159.074V29.7764ZM159.074 8.53396H137.131V-12.4618H159.074V8.53396ZM181.365 157.752H159.424V136.756H181.365V157.752ZM181.365 136.405H159.424V115.514H181.365V136.405ZM181.365 115.163H159.424V94.1671H181.365V115.163ZM181.365 93.8164H159.424V72.82H181.365V93.8164ZM181.365 72.4693H159.424V51.4743H181.365V72.4693ZM181.365 51.1236H159.424V30.1271H181.365V51.1236ZM181.365 29.7764H159.424V8.88466H181.365V29.7764ZM181.365 8.53396H159.424V-12.4618H181.365V8.53396ZM203.658 157.752H181.716V136.756H203.658V157.752ZM203.658 136.405H181.716V115.514H203.658V136.405ZM203.658 115.163H181.716V94.1671H203.658V115.163ZM203.658 93.8164H181.716V72.82H203.658V93.8164ZM203.658 72.4693H181.716V51.4743H203.658V72.4693ZM203.658 51.1236H181.716V30.1271H203.658V51.1236ZM203.658 29.7764H181.716V8.88466H203.658V29.7764ZM203.658 8.53396H181.716V-12.4618H203.658V8.53396ZM225.951 136.405H204.008V115.514H225.951V136.405ZM225.951 115.163H204.008V94.1671H225.951V115.163ZM225.951 93.8164H204.008V72.82H225.951V93.8164ZM225.951 72.4693H204.008V51.4743H225.951V72.4693ZM225.951 51.1236H204.008V30.1271H225.951V51.1236ZM225.951 29.7764H204.008V8.88466H225.951V29.7764ZM225.951 8.53396H204.008V-12.4618H225.951V8.53396ZM248.244 115.163H226.301V94.1671H248.244V115.163ZM248.244 93.8164H226.301V72.82H248.244V93.8164ZM248.244 72.4693H226.301V51.4743H248.244V72.4693ZM248.244 51.1236H226.301V30.1271H248.244V51.1236ZM248.244 29.7764H226.301V8.88466H248.244V29.7764ZM248.244 8.53396H226.301V-12.4618H248.244V8.53396ZM270.536 136.405H248.594V115.514H270.536V136.405ZM270.536 115.163H248.594V94.1671H270.536V115.163ZM270.536 93.8164H248.594V72.82H270.536V93.8164ZM270.536 72.4693H248.594V51.4743H270.536V72.4693ZM270.536 51.1236H248.594V30.1271H270.536V51.1236ZM270.536 29.7764H248.594V8.88466H270.536V29.7764ZM270.536 8.53396H248.594V-12.4618H270.536V8.53396ZM292.829 93.8164H270.887V72.82H292.829V93.8164ZM292.829 72.4693H270.887V51.4743H292.829V72.4693ZM292.829 51.1236H270.887V30.1271H292.829V51.1236ZM292.829 29.7764H270.887V8.88466H292.829V29.7764ZM292.829 8.53396H270.887V-12.4618H292.829V8.53396ZM315.122 72.4693H293.18V51.4743H315.122V72.4693ZM315.122 51.1236H293.18V30.1271H315.122V51.1236ZM315.122 29.7764H293.18V8.88466H315.122V29.7764ZM315.122 8.53396H293.18V-12.4618H315.122V8.53396ZM337.654 51.1236H315.473V30.1271H337.654V51.1236ZM337.654 29.7764H315.473V8.88466H337.654V29.7764ZM337.654 8.53396H315.473V-12.4618H337.654V8.53396ZM359.947 51.1236H338.004V30.1271H359.947V51.1236ZM359.947 29.7764H338.004V8.88466H359.947V29.7764ZM359.947 8.53396H338.004V-12.4618H359.947V8.53396ZM263.828 158.103H267.266L267.336 157.752H263.432C263.561 157.869 263.696 157.987 263.828 158.103Z" fill="black"/>
</g>
</g>
</g>
<defs>
<linearGradient id="paint0_linear_1053_1461" x1="180" y1="0" x2="180" y2="472" gradientUnits="userSpaceOnUse">
<stop offset="0.195833" stop-color="#03B263"/>
<stop offset="0.919792" stop-color="#01B496"/>
</linearGradient>
<linearGradient id="paint1_linear_1053_1461" x1="179" y1="-92.4412" x2="179" y2="376.502" gradientUnits="userSpaceOnUse">
<stop stop-color="#EBEBEB"/>
<stop offset="0.1701" stop-color="#E1E7ED"/>
<stop offset="0.46347" stop-color="#C5DDF2"/>
<stop offset="0.84231" stop-color="#98CDFB"/>
<stop offset="1" stop-color="#83C6FF"/>
</linearGradient>
<clipPath id="clip0_1053_1461">
<rect width="360" height="360" fill="white"/>
</clipPath>
<clipPath id="clip1_1053_1461">
<rect width="404" height="404" fill="white" transform="translate(-23 -32)"/>
</clipPath>
</defs>
</svg>
