<svg width="360" height="446" viewBox="0 0 360 446" fill="none" xmlns="http://www.w3.org/2000/svg">
<path fill-rule="evenodd" clip-rule="evenodd" d="M463 23.1809V467H-74.0001V179.538H-73.7952C-73.2012 179.45 -72.5989 179.608 -72.1035 179.983C-71.6081 180.357 -71.2544 180.922 -71.1102 181.568C-69.4132 186.332 -67.363 190.951 -65.8334 195.778C-65.738 196.347 -65.5401 196.888 -65.2516 197.37C-64.9631 197.851 -64.5899 198.263 -64.1545 198.581C-63.7191 198.898 -63.2305 199.114 -62.718 199.217C-62.2054 199.319 -61.6796 199.305 -61.172 199.176C-59.7456 198.976 -58.2968 199.176 -56.958 199.759C-55.6193 200.341 -54.4334 201.287 -53.5087 202.51C-52.1462 204.303 -50.4801 205.781 -48.6051 206.861C-44.1485 208.815 -40.3853 212.327 -37.8837 216.866C-37.1925 218.068 -36.4129 219.204 -35.553 220.263C-35.2094 220.791 -34.7175 221.178 -34.1545 221.361C-28.8959 222.045 -26.0244 225.67 -24.1415 230.828C-23.1439 233.184 -22.0231 235.474 -20.7847 237.684C-20.5244 238.202 -20.1702 238.679 -19.7413 239.363C-17.3733 234.121 -15.1354 229.191 -12.6555 223.722C-10.2127 235.447 -7.882 246.591 -5.42112 258.296C-2.75439 254.09 -0.386375 250.362 2.01913 246.571C4.53557 248.787 6.86629 250.859 9.34637 253.055C11.7144 246.675 13.9523 240.647 16.4504 233.935C17.6249 239.404 18.6318 244.209 19.7135 248.975C21.3914 256.452 22.4358 264.241 25.0087 271.325C29.657 283.904 32.9371 297.055 34.7795 310.497C35.7864 318.017 37.2776 325.454 38.658 333.512C40.9512 330.653 42.9652 328.209 44.8853 325.682C45.1787 325.152 45.6394 324.763 46.1774 324.59C46.7154 324.418 47.2919 324.474 47.7943 324.749C49.6033 325.537 51.5234 326.014 53.4809 326.656C56.0173 315.945 58.4964 305.485 61.1259 294.423C63.1215 299.312 64.874 303.496 66.5703 307.701C67.3042 309.259 67.8737 310.907 68.2674 312.61C69.7404 321.622 71.0643 330.653 72.4444 339.664C73.4131 345.837 74.4019 351.99 75.4643 358.764C78.0565 354.89 80.3316 351.451 82.8108 347.743C85.2907 354.248 87.6214 360.318 89.9713 366.511C94.2968 364.191 98.8281 362.471 99.2751 356.092C99.5265 354.606 99.9202 353.154 100.45 351.762C102.147 345.506 104.459 339.333 105.41 332.932C107.648 317.686 109.512 302.378 111.003 287.007C111.805 278.804 113.707 271.471 118.891 265.401C119.485 264.65 119.902 263.745 120.102 262.77C121.091 258.109 121.967 253.428 122.899 248.767C124.13 242.614 125.398 236.483 126.628 230.351H127.132C129.407 245.846 131.701 261.362 134.069 277.416C134.702 276.359 135.094 275.78 135.43 275.158C137.145 271.906 139.029 268.736 140.538 265.339C141.601 262.916 142.813 262.481 144.939 263.578C146.386 264.188 147.868 264.687 149.377 265.07C151.8 257.012 154.243 249.181 156.481 241.288C157.243 238.215 157.846 235.096 158.289 231.946C161.366 214.4 164.2 196.772 170.577 180.2C170.894 179.413 171.248 178.315 171.864 178.005C173.858 176.969 176.002 176.202 178.166 175.291C180.795 182.479 183.312 189.356 185.941 196.524C188.384 194.493 190.528 192.485 192.878 190.848C195.283 189.17 197.893 187.865 200.466 186.373C202.984 190.35 205.332 194.1 207.906 198.202C209.808 192.381 211.542 187.14 213.276 181.857C215.233 175.83 215.233 175.767 220.977 176.099C221.486 176.18 222.006 176.066 222.449 175.776C222.893 175.487 223.235 175.038 223.419 174.504C224.725 171.748 226.384 169.18 227.484 166.342C228.166 164.44 229.256 162.753 230.66 161.428C232.064 160.102 233.74 159.18 235.539 158.74C236.072 158.475 236.668 158.411 237.236 158.556C237.805 158.702 238.315 159.05 238.69 159.547C240.555 161.784 242.568 163.897 244.769 166.362C245.887 161.701 246.876 157.6 247.864 153.478C250.176 143.68 251.854 133.592 258.007 125.513C259.037 123.875 260.267 122.403 261.662 121.141C263.651 119.717 265.362 117.863 266.691 115.688C268.02 113.514 268.942 111.064 269.4 108.485C270.258 104.342 271.712 100.344 272.923 96.2834C273.259 95.1444 273.651 94.0256 274.005 92.907C278.387 107.781 282.415 122.613 288.772 136.76C290.581 136.284 292.446 135.622 294.366 135.331C294.801 135.301 295.236 135.376 295.642 135.551C296.048 135.727 296.414 135.998 296.716 136.347C298.674 139.433 300.147 142.955 302.347 145.793C305.094 149.01 308.001 152.053 311.055 154.907C311.297 153.85 311.391 153.561 311.446 153.25C313.702 140.656 315.977 128.061 318.14 115.445C318.401 113.933 318.942 113.187 320.191 112.938C323.808 112.193 327.407 111.364 331.062 110.805C332.442 110.598 333.225 110.287 333.486 108.568C333.877 106.02 334.53 103.493 335.127 100.986C337.924 89.4275 339.582 77.5578 344.878 66.7856C347.134 62.1661 349.465 58.3136 353.903 56.2421C354.78 55.6937 355.439 54.799 355.749 53.7356C357.893 46.5673 359.925 39.3585 361.977 32.171C362.051 31.5531 362.321 30.9847 362.737 30.5672C363.154 30.1498 363.691 29.9105 364.252 29.8922C368.314 29.3938 372.218 27.8626 375.662 25.4173C376.543 24.8617 377.266 24.0441 377.751 23.0566C379.877 18.4372 381.871 13.755 384.09 8.65929C384.538 9.83963 384.836 10.5649 385.079 11.3315C387.111 17.5663 389.088 23.8223 391.213 30.0165C391.392 30.4675 391.653 30.8721 391.98 31.204C392.308 31.5359 392.695 31.7878 393.115 31.9434C397.192 32.9532 401.433 32.7962 405.44 31.4872C406.156 31.1968 406.744 30.6105 407.081 29.8505C408.498 26.0597 409.785 22.1866 411.146 18.3744C412.041 15.8265 412.973 13.2785 413.923 10.6892C415.77 11.1869 417.411 11.4761 418.977 12.0771C419.271 12.2491 419.595 12.3507 419.927 12.3754C420.259 12.4002 420.592 12.3474 420.905 12.2206C421.217 12.0939 421.503 11.8958 421.742 11.6392C421.982 11.3826 422.17 11.0732 422.296 10.7308C424.216 7.18852 426.342 3.77075 428.561 0C428.859 1.03575 429.046 1.59506 429.176 2.15436C431.283 10.9997 433.384 19.8383 435.478 28.6702C435.608 29.2295 435.665 30.0995 435.982 30.2652C438.405 31.5287 440.885 32.6473 443.44 33.8489C445.846 22.8493 448.158 12.2844 450.619 1.07718C452.893 6.93974 454.907 12.1813 456.958 17.4014C457.14 18.1133 457.473 18.7666 457.928 19.307C459.568 20.633 461.266 21.8964 463 23.1809Z" fill="#212121"/>
</svg>
