<svg width="360" height="300" viewBox="0 0 360 300" fill="none" xmlns="http://www.w3.org/2000/svg">
<mask id="mask0_1053_1501" style="mask-type:alpha" maskUnits="userSpaceOnUse" x="0" y="0" width="360" height="300">
<path d="M0 0H360V300H0V0Z" fill="url(#paint0_linear_1053_1501)"/>
</mask>
<g mask="url(#mask0_1053_1501)">
<rect x="-21" y="-15" width="404" height="324" fill="url(#paint1_linear_1053_1501)"/>
<g style="mix-blend-mode:multiply">
<path d="M371 -85H-14V300H371V-85Z" fill="url(#paint2_linear_1053_1501)"/>
<g style="mix-blend-mode:overlay" opacity="0.6">
<path fill-rule="evenodd" clip-rule="evenodd" d="M-114 -115.713V425.863H614V75.0835H613.722C612.917 74.976 612.1 75.1694 611.429 75.6265C610.757 76.0835 610.278 76.7722 610.082 77.5607C607.782 83.3741 605.002 89.011 602.929 94.9007C602.799 95.5947 602.531 96.2554 602.14 96.8431C601.749 97.4308 601.243 97.9334 600.653 98.3207C600.062 98.7079 599.4 98.9719 598.705 99.0967C598.01 99.2214 597.297 99.2045 596.609 99.0468C594.675 98.8028 592.711 99.0474 590.896 99.7582C589.082 100.469 587.474 101.624 586.22 103.116C584.373 105.304 582.114 107.107 579.572 108.425C573.531 110.809 568.429 115.095 565.038 120.634C564.101 122.1 563.044 123.487 561.878 124.779C561.412 125.424 560.745 125.895 559.982 126.119C552.853 126.953 548.96 131.377 546.408 137.671C545.055 140.546 543.536 143.34 541.857 146.038C541.504 146.67 541.024 147.251 540.442 148.085C537.232 141.689 534.198 135.674 530.836 129C527.525 143.307 524.365 156.907 521.029 171.19C517.414 166.057 514.203 161.508 510.942 156.882C507.531 159.586 504.371 162.114 501.009 164.794C497.799 157.008 494.765 149.653 491.378 141.462C489.786 148.136 488.421 154 486.954 159.815C484.68 168.94 483.264 178.443 479.776 187.088C473.474 202.438 469.027 218.485 466.53 234.889C465.165 244.064 463.143 253.14 461.272 262.972C458.163 259.484 455.432 256.502 452.829 253.418C452.432 252.771 451.807 252.296 451.078 252.086C450.348 251.875 449.567 251.944 448.886 252.28C446.433 253.241 443.83 253.823 441.177 254.606C437.738 241.537 434.377 228.772 430.812 215.274C428.107 221.239 425.731 226.345 423.432 231.476C422.437 233.378 421.665 235.388 421.131 237.467C419.134 248.463 417.339 259.484 415.468 270.48C414.155 278.013 412.814 285.521 411.374 293.787C407.86 289.06 404.776 284.863 401.415 280.338C398.053 288.276 394.893 295.683 391.707 303.24C385.843 300.409 379.7 298.31 379.094 290.526C378.753 288.713 378.22 286.941 377.502 285.242C375.201 277.608 372.066 270.075 370.778 262.265C367.744 243.661 365.216 224.98 363.194 206.224C362.107 196.214 359.529 187.266 352.502 179.859C351.695 178.942 351.131 177.839 350.859 176.649C349.519 170.961 348.331 165.249 347.067 159.562C345.399 152.054 343.679 144.571 342.012 137.089H341.329C338.245 155.997 335.136 174.931 331.926 194.521C331.067 193.231 330.536 192.524 330.08 191.765C327.755 187.797 325.201 183.929 323.155 179.784C321.713 176.827 320.07 176.296 317.188 177.635C315.227 178.38 313.217 178.988 311.172 179.455C307.887 169.622 304.575 160.066 301.542 150.435C300.509 146.685 299.69 142.879 299.09 139.036C294.919 117.625 291.076 96.1141 282.431 75.8919C282.002 74.9316 281.522 73.5913 280.688 73.2124C277.983 71.9485 275.077 71.0127 272.144 69.9008C268.579 78.6727 265.167 87.0644 261.603 95.8105C258.292 93.3333 255.385 90.8821 252.199 88.8851C248.938 86.8374 245.4 85.2451 241.912 83.4246C238.499 88.2777 235.315 92.8533 231.825 97.8583C229.247 90.755 226.897 84.3601 224.546 77.9136C221.892 70.5587 221.892 70.4821 214.106 70.8868C213.415 70.9859 212.711 70.8473 212.109 70.4937C211.508 70.14 211.044 69.5923 210.795 68.9405C209.025 65.5783 206.776 62.4446 205.284 58.9813C204.36 56.6605 202.882 54.6014 200.978 52.9842C199.075 51.367 196.804 50.241 194.364 49.7046C193.642 49.3816 192.834 49.303 192.063 49.4807C191.292 49.6584 190.6 50.0828 190.092 50.6894C187.564 53.4197 184.834 55.998 181.851 59.0058C180.335 53.3183 178.995 48.3136 177.656 43.2838C174.521 31.3274 172.246 19.0169 163.905 9.15878C162.508 7.15956 160.84 5.36424 158.949 3.8244C156.253 2.08673 153.934 -0.176437 152.132 -2.82999C150.33 -5.48355 149.081 -8.47305 148.459 -11.62C147.297 -16.6756 145.325 -21.5535 143.683 -26.5089C143.227 -27.8987 142.696 -29.2639 142.216 -30.6289C136.276 -12.479 130.815 5.62016 122.197 22.8839C119.744 22.3025 117.216 21.4941 114.613 21.14C114.024 21.1029 113.434 21.1945 112.884 21.4085C112.334 21.6225 111.837 21.9537 111.427 22.3791C108.774 26.1447 106.777 30.4424 103.794 33.906C100.07 37.8318 96.1295 41.545 91.9891 45.028C91.6608 43.738 91.5336 43.3851 91.4583 43.005C88.3999 27.6371 85.3155 12.2679 82.384 -3.12697C82.0297 -4.97226 81.2966 -5.882 79.6033 -6.18559C74.6993 -7.09534 69.8205 -8.1062 64.866 -8.7887C62.995 -9.04173 61.9335 -9.42062 61.5792 -11.5189C61.0486 -14.6278 60.1647 -17.7112 59.355 -20.7709C55.5634 -34.8748 53.3146 -49.359 46.1349 -62.504C43.0764 -68.1409 39.9166 -72.8421 33.9007 -75.3698C32.712 -76.0389 31.8185 -77.1308 31.3978 -78.4284C28.4911 -87.1756 25.736 -95.9722 22.9552 -104.743C22.8544 -105.497 22.489 -106.191 21.924 -106.7C21.3589 -107.209 20.6312 -107.501 19.8708 -107.524C14.3636 -108.132 9.0705 -110 4.40186 -112.984C3.20844 -113.662 2.22784 -114.66 1.5705 -115.865C-1.31171 -121.502 -4.01593 -127.215 -7.02374 -133.433C-7.63116 -131.993 -8.03461 -131.108 -8.3642 -130.173C-11.1193 -122.564 -13.7987 -114.931 -16.6806 -107.372C-16.9221 -106.822 -17.2764 -106.328 -17.7205 -105.923C-18.1647 -105.518 -18.6888 -105.21 -19.2592 -105.021C-24.7858 -103.788 -30.5349 -103.98 -35.9673 -105.577C-36.9383 -105.932 -37.735 -106.647 -38.1915 -107.574C-40.1133 -112.2 -41.8573 -116.926 -43.7026 -121.578C-44.9159 -124.688 -46.1797 -127.797 -47.4681 -130.956C-49.9714 -130.349 -52.1956 -129.996 -54.3184 -129.263C-54.7178 -129.053 -55.1567 -128.929 -55.6069 -128.899C-56.057 -128.869 -56.5085 -128.933 -56.9323 -129.088C-57.3561 -129.242 -57.7429 -129.484 -58.0677 -129.797C-58.3926 -130.11 -58.6484 -130.488 -58.8187 -130.906C-61.4218 -135.228 -64.3036 -139.399 -67.3114 -144C-67.7164 -142.736 -67.9694 -142.054 -68.1459 -141.371C-71.002 -130.578 -73.8499 -119.792 -76.6896 -109.015C-76.866 -108.332 -76.9425 -107.271 -77.372 -107.068C-80.6576 -105.527 -84.0198 -104.162 -87.4831 -102.695C-90.7442 -116.118 -93.8792 -129.01 -97.2153 -142.686C-100.298 -135.532 -103.029 -129.136 -105.81 -122.766C-106.056 -121.897 -106.507 -121.1 -107.124 -120.44C-109.348 -118.822 -111.649 -117.281 -114 -115.713Z" fill="#212121"/>
</g>
<g style="mix-blend-mode:overlay" opacity="0.4">
<path d="M26.6062 262.144H41.7566C41.8046 262.027 41.8532 261.91 41.9012 261.793H26.5246C26.5521 261.91 26.5788 262.027 26.6062 262.144ZM133.498 283.386H133.693C133.776 283.262 133.858 283.142 133.93 283.036H133.441C133.46 283.153 133.479 283.268 133.498 283.386ZM381 27.5382V27.1875H360.297V8H359.947V27.1875H338.004V8H337.654V27.1875H315.473V8H315.122V27.1875H293.18V8H292.829V27.1875H270.887V8H270.536V27.1875H248.594V8H248.244V27.1875H226.301V8H225.951V27.1875H204.008V8H203.658V27.1875H181.716V8H181.365V27.1875H159.424V8H159.074V27.1875H137.131V8H136.78V27.1875H114.839V8H114.488V27.1875H92.5464V8H92.1957V27.1875H70.0143V8H69.6636V27.1875H47.7219V8H47.3712V27.1875H25.4288V8H25.0781V27.1875H3.13712V8H2.78642V27.1875H-19.156V8H-19.5067V27.1875H-23V27.5382H-19.5067V48.534H-23V48.8847H-19.5067V69.7764H-23V70.1271H-19.5067V91.1236H-23V91.4743H-19.5067V112.469H-23V112.82H-19.5067V133.816H-23V134.167H-19.5067V155.163H-23V155.514H-19.5067V176.405H-23V176.756H-19.5067V197.752H-23V198.103H-19.5067V219.1H-20.6649C-20.6177 219.217 -20.5677 219.333 -20.5197 219.45H-19.5067V221.86C-19.3895 222.13 -19.2726 222.4 -19.156 222.67V219.45H2.78642V240.446H2.6042C2.78909 240.661 2.96177 240.892 3.13712 241.119V240.797H25.0781V255.568C25.1952 256.073 25.3121 256.576 25.4288 257.079V240.797H47.3712V261.793H46.8684C46.8972 261.91 46.9259 262.027 46.9547 262.144H47.3712V263.824C47.4157 264.001 47.4589 264.181 47.5033 264.358C47.5794 264.662 47.6492 264.969 47.7219 265.275V262.144H69.6636V283.036H52.8569C52.9001 283.152 52.9398 283.27 52.9823 283.386H69.6636V304.382H58.5673C58.5865 304.499 58.607 304.616 58.6255 304.733H69.6636V316.007C69.7807 316.045 69.8964 316.086 70.0143 316.121V304.733H76.1274C76.1583 304.616 76.189 304.498 76.2199 304.382H70.0143V283.386H92.1957V304.382H82.8721C82.9249 304.498 82.9776 304.616 83.0323 304.733H92.1957V325.729H87.1674L87.1743 325.771C87.1921 325.874 87.2106 325.977 87.2285 326.08H92.1957V334.993C92.3121 334.835 92.43 334.677 92.5464 334.519V326.08H110.802C110.837 325.963 110.869 325.846 110.903 325.729H92.5464V304.733H114.413C114.428 304.616 114.442 304.499 114.458 304.382H92.5464V283.386H114.488V304.144C114.609 303.235 114.722 302.324 114.839 301.413V283.386H117.542C117.579 283.269 117.618 283.152 117.657 283.036H114.839V262.144H125.599C125.625 262.027 125.652 261.91 125.678 261.793H114.839V240.797H136.78V261.793H129.96L130.017 262.144H136.78V278.386C136.899 278.185 137.015 277.984 137.131 277.782V262.144H149.419C149.457 262.027 149.496 261.91 149.534 261.793H137.131V240.797H154.158C154.184 240.68 154.207 240.563 154.232 240.446H137.131V219.45H159.074V222.757C159.191 222.428 159.303 222.098 159.424 221.77V219.45H160.343C160.389 219.334 160.435 219.216 160.482 219.1H159.424V198.103H181.365V219.1H168.598C168.644 219.216 168.693 219.334 168.74 219.45H181.365V223.042C181.482 222.983 181.599 222.924 181.716 222.865V219.45H192.927C192.97 219.334 193.013 219.216 193.056 219.1H181.716V198.103H203.658V208.723C203.708 208.615 203.768 208.51 203.815 208.401C203.875 208.263 203.945 208.141 204.008 208.01V198.103H219.552C219.582 197.986 219.613 197.87 219.642 197.752H204.008V176.756H225.951V181.854C226.067 181.699 226.18 181.541 226.301 181.387V176.756H230.905C231.041 176.642 231.172 176.524 231.301 176.405H226.301V155.514H248.244V176.405H244.804C244.848 176.522 244.889 176.64 244.933 176.756H248.244V184.83C248.356 185.077 248.481 185.321 248.594 185.568V176.756H270.536V181.549C270.654 180.949 270.771 180.348 270.887 179.746V176.756H271.469C271.491 176.639 271.514 176.522 271.537 176.405H270.887V155.514H286.941C286.969 155.396 286.999 155.28 287.028 155.163H270.887V134.167H292.829V139.749C292.944 139.553 293.063 139.365 293.18 139.173V134.167H298.265C298.483 134.058 298.69 133.941 298.923 133.843C298.938 133.837 298.951 133.823 298.966 133.816H293.18V112.82H315.122V113.067C315.179 113.034 315.237 113.003 315.293 112.969C315.354 112.934 315.413 112.888 315.473 112.849V112.82H315.516C315.676 112.713 315.829 112.596 315.974 112.469H315.473V91.4743H337.654V112.469H325.657L325.787 112.82H337.654V117.089L337.696 117.08C337.804 117.044 337.907 116.997 338.004 116.939V112.82H340.185C340.231 112.703 340.279 112.586 340.325 112.469H338.004V91.4743H359.947V112.469H359.581C359.612 112.586 359.643 112.704 359.673 112.82H359.947V113.854C360.063 114.293 360.178 114.734 360.295 115.172L360.297 115.185V112.82H367.709C367.737 112.703 367.766 112.586 367.794 112.469H360.297V91.4743H381V91.1236H360.297V70.1271H381V69.7764H360.297V48.8847H381V48.534H360.297V27.5382H381ZM2.78642 219.1H-19.156V198.103H2.78642V219.1ZM2.78642 197.752H-19.156V176.756H2.78642V197.752ZM2.78642 176.405H-19.156V155.514H2.78642V176.405ZM2.78642 155.163H-19.156V134.167H2.78642V155.163ZM2.78642 133.816H-19.156V112.82H2.78642V133.816ZM2.78642 112.469H-19.156V91.4743H2.78642V112.469ZM2.78642 91.1236H-19.156V70.1271H2.78642V91.1236ZM2.78642 69.7764H-19.156V48.8847H2.78642V69.7764ZM2.78642 48.534H-19.156V27.5382H2.78642V48.534ZM25.0781 240.446H3.13712V219.45H25.0781V240.446ZM25.0781 219.1H3.13712V198.103H25.0781V219.1ZM25.0781 197.752H3.13712V176.756H25.0781V197.752ZM25.0781 176.405H3.13712V155.514H25.0781V176.405ZM25.0781 155.163H3.13712V134.167H25.0781V155.163ZM25.0781 133.816H3.13712V112.82H25.0781V133.816ZM25.0781 112.469H3.13712V91.4743H25.0781V112.469ZM25.0781 91.1236H3.13712V70.1271H25.0781V91.1236ZM25.0781 69.7764H3.13712V48.8847H25.0781V69.7764ZM25.0781 48.534H3.13712V27.5382H25.0781V48.534ZM47.3712 240.446H25.4288V219.45H47.3712V240.446ZM47.3712 219.1H25.4288V198.103H47.3712V219.1ZM47.3712 197.752H25.4288V176.756H47.3712V197.752ZM47.3712 176.405H25.4288V155.514H47.3712V176.405ZM47.3712 155.163H25.4288V134.167H47.3712V155.163ZM47.3712 133.816H25.4288V112.82H47.3712V133.816ZM47.3712 112.469H25.4288V91.4743H47.3712V112.469ZM47.3712 91.1236H25.4288V70.1271H47.3712V91.1236ZM47.3712 69.7764H25.4288V48.8847H47.3712V69.7764ZM47.3712 48.534H25.4288V27.5382H47.3712V48.534ZM69.6636 261.793H47.7219V240.797H69.6636V261.793ZM69.6636 240.446H47.7219V219.45H69.6636V240.446ZM69.6636 219.1H47.7219V198.103H69.6636V219.1ZM69.6636 197.752H47.7219V176.756H69.6636V197.752ZM69.6636 176.405H47.7219V155.514H69.6636V176.405ZM69.6636 155.163H47.7219V134.167H69.6636V155.163ZM69.6636 133.816H47.7219V112.82H69.6636V133.816ZM69.6636 112.469H47.7219V91.4743H69.6636V112.469ZM69.6636 91.1236H47.7219V70.1271H69.6636V91.1236ZM69.6636 69.7764H47.7219V48.8847H69.6636V69.7764ZM69.6636 48.534H47.7219V27.5382H69.6636V48.534ZM92.1957 283.036H70.0143V262.144H92.1957V283.036ZM92.1957 261.793H70.0143V240.797H92.1957V261.793ZM92.1957 240.446H70.0143V219.45H92.1957V240.446ZM92.1957 219.1H70.0143V198.103H92.1957V219.1ZM92.1957 197.752H70.0143V176.756H92.1957V197.752ZM92.1957 176.405H70.0143V155.514H92.1957V176.405ZM92.1957 155.163H70.0143V134.167H92.1957V155.163ZM92.1957 133.816H70.0143V112.82H92.1957V133.816ZM92.1957 112.469H70.0143V91.4743H92.1957V112.469ZM92.1957 91.1236H70.0143V70.1271H92.1957V91.1236ZM92.1957 69.7764H70.0143V48.8847H92.1957V69.7764ZM92.1957 48.534H70.0143V27.5382H92.1957V48.534ZM114.488 283.036H92.5464V262.144H114.488V283.036ZM114.488 261.793H92.5464V240.797H114.488V261.793ZM114.488 240.446H92.5464V219.45H114.488V240.446ZM114.488 219.1H92.5464V198.103H114.488V219.1ZM114.488 197.752H92.5464V176.756H114.488V197.752ZM114.488 176.405H92.5464V155.514H114.488V176.405ZM114.488 155.163H92.5464V134.167H114.488V155.163ZM114.488 133.816H92.5464V112.82H114.488V133.816ZM114.488 112.469H92.5464V91.4743H114.488V112.469ZM114.488 91.1236H92.5464V70.1271H114.488V91.1236ZM114.488 69.7764H92.5464V48.8847H114.488V69.7764ZM114.488 48.534H92.5464V27.5382H114.488V48.534ZM136.78 240.446H114.839V219.45H136.78V240.446ZM136.78 219.1H114.839V198.103H136.78V219.1ZM136.78 197.752H114.839V176.756H136.78V197.752ZM136.78 176.405H114.839V155.514H136.78V176.405ZM136.78 155.163H114.839V134.167H136.78V155.163ZM136.78 133.816H114.839V112.82H136.78V133.816ZM136.78 112.469H114.839V91.4743H136.78V112.469ZM136.78 91.1236H114.839V70.1271H136.78V91.1236ZM136.78 69.7764H114.839V48.8847H136.78V69.7764ZM136.78 48.534H114.839V27.5382H136.78V48.534ZM159.074 219.1H137.131V198.103H159.074V219.1ZM159.074 197.752H137.131V176.756H159.074V197.752ZM159.074 176.405H137.131V155.514H159.074V176.405ZM159.074 155.163H137.131V134.167H159.074V155.163ZM159.074 133.816H137.131V112.82H159.074V133.816ZM159.074 112.469H137.131V91.4743H159.074V112.469ZM159.074 91.1236H137.131V70.1271H159.074V91.1236ZM159.074 69.7764H137.131V48.8847H159.074V69.7764ZM159.074 48.534H137.131V27.5382H159.074V48.534ZM181.365 197.752H159.424V176.756H181.365V197.752ZM181.365 176.405H159.424V155.514H181.365V176.405ZM181.365 155.163H159.424V134.167H181.365V155.163ZM181.365 133.816H159.424V112.82H181.365V133.816ZM181.365 112.469H159.424V91.4743H181.365V112.469ZM181.365 91.1236H159.424V70.1271H181.365V91.1236ZM181.365 69.7764H159.424V48.8847H181.365V69.7764ZM181.365 48.534H159.424V27.5382H181.365V48.534ZM203.658 197.752H181.716V176.756H203.658V197.752ZM203.658 176.405H181.716V155.514H203.658V176.405ZM203.658 155.163H181.716V134.167H203.658V155.163ZM203.658 133.816H181.716V112.82H203.658V133.816ZM203.658 112.469H181.716V91.4743H203.658V112.469ZM203.658 91.1236H181.716V70.1271H203.658V91.1236ZM203.658 69.7764H181.716V48.8847H203.658V69.7764ZM203.658 48.534H181.716V27.5382H203.658V48.534ZM225.951 176.405H204.008V155.514H225.951V176.405ZM225.951 155.163H204.008V134.167H225.951V155.163ZM225.951 133.816H204.008V112.82H225.951V133.816ZM225.951 112.469H204.008V91.4743H225.951V112.469ZM225.951 91.1236H204.008V70.1271H225.951V91.1236ZM225.951 69.7764H204.008V48.8847H225.951V69.7764ZM225.951 48.534H204.008V27.5382H225.951V48.534ZM248.244 155.163H226.301V134.167H248.244V155.163ZM248.244 133.816H226.301V112.82H248.244V133.816ZM248.244 112.469H226.301V91.4743H248.244V112.469ZM248.244 91.1236H226.301V70.1271H248.244V91.1236ZM248.244 69.7764H226.301V48.8847H248.244V69.7764ZM248.244 48.534H226.301V27.5382H248.244V48.534ZM270.536 176.405H248.594V155.514H270.536V176.405ZM270.536 155.163H248.594V134.167H270.536V155.163ZM270.536 133.816H248.594V112.82H270.536V133.816ZM270.536 112.469H248.594V91.4743H270.536V112.469ZM270.536 91.1236H248.594V70.1271H270.536V91.1236ZM270.536 69.7764H248.594V48.8847H270.536V69.7764ZM270.536 48.534H248.594V27.5382H270.536V48.534ZM292.829 133.816H270.887V112.82H292.829V133.816ZM292.829 112.469H270.887V91.4743H292.829V112.469ZM292.829 91.1236H270.887V70.1271H292.829V91.1236ZM292.829 69.7764H270.887V48.8847H292.829V69.7764ZM292.829 48.534H270.887V27.5382H292.829V48.534ZM315.122 112.469H293.18V91.4743H315.122V112.469ZM315.122 91.1236H293.18V70.1271H315.122V91.1236ZM315.122 69.7764H293.18V48.8847H315.122V69.7764ZM315.122 48.534H293.18V27.5382H315.122V48.534ZM337.654 91.1236H315.473V70.1271H337.654V91.1236ZM337.654 69.7764H315.473V48.8847H337.654V69.7764ZM337.654 48.534H315.473V27.5382H337.654V48.534ZM359.947 91.1236H338.004V70.1271H359.947V91.1236ZM359.947 69.7764H338.004V48.8847H359.947V69.7764ZM359.947 48.534H338.004V27.5382H359.947V48.534ZM263.828 198.103H267.266L267.336 197.752H263.432C263.561 197.869 263.696 197.987 263.828 198.103Z" fill="black"/>
</g>
</g>
</g>
<defs>
<linearGradient id="paint0_linear_1053_1501" x1="180" y1="0" x2="180" y2="300" gradientUnits="userSpaceOnUse">
<stop offset="0.195833" stop-color="#03B263"/>
<stop offset="0.919792" stop-color="#01B496"/>
</linearGradient>
<linearGradient id="paint1_linear_1053_1501" x1="181" y1="-15" x2="181" y2="309" gradientUnits="userSpaceOnUse">
<stop offset="0.195833" stop-color="#03B263"/>
<stop offset="0.919792" stop-color="#01B496"/>
</linearGradient>
<linearGradient id="paint2_linear_1053_1501" x1="178.5" y1="-142.599" x2="178.5" y2="304.29" gradientUnits="userSpaceOnUse">
<stop stop-color="#EBEBEB"/>
<stop offset="0.1701" stop-color="#E1E7ED"/>
<stop offset="0.46347" stop-color="#C5DDF2"/>
<stop offset="0.84231" stop-color="#98CDFB"/>
<stop offset="1" stop-color="#83C6FF"/>
</linearGradient>
</defs>
</svg>
