<svg width="360" height="194" viewBox="0 0 360 194" fill="none" xmlns="http://www.w3.org/2000/svg">
<mask id="mask0_1085_1462" style="mask-type:alpha" maskUnits="userSpaceOnUse" x="0" y="0" width="360" height="194">
<rect width="360" height="194" fill="#D9D9D9"/>
</mask>
<g mask="url(#mask0_1085_1462)">
<rect x="-1" y="2" width="360" height="192" fill="url(#paint0_linear_1085_1462)"/>
<g style="mix-blend-mode:multiply">
<path d="M381 -97H-4V288H381V-97Z" fill="url(#paint1_linear_1085_1462)"/>
<g style="mix-blend-mode:overlay" opacity="0.6">
<path fill-rule="evenodd" clip-rule="evenodd" d="M-104 -127.713V413.863H624V63.0835H623.722C622.917 62.976 622.1 63.1694 621.429 63.6265C620.757 64.0835 620.278 64.7722 620.082 65.5607C617.782 71.3741 615.002 77.011 612.929 82.9007C612.799 83.5947 612.531 84.2554 612.14 84.8431C611.749 85.4308 611.243 85.9334 610.653 86.3207C610.062 86.7079 609.4 86.9719 608.705 87.0967C608.01 87.2214 607.297 87.2045 606.609 87.0468C604.675 86.8028 602.711 87.0474 600.896 87.7582C599.082 88.4691 597.474 89.6235 596.22 91.116C594.373 93.3036 592.114 95.1072 589.572 96.4246C583.531 98.809 578.429 103.095 575.038 108.634C574.101 110.1 573.044 111.487 571.878 112.779C571.412 113.424 570.745 113.895 569.982 114.119C562.853 114.953 558.96 119.377 556.408 125.671C555.055 128.546 553.536 131.34 551.857 134.038C551.504 134.67 551.024 135.251 550.442 136.085C547.232 129.689 544.198 123.674 540.836 117C537.525 131.307 534.365 144.907 531.029 159.19C527.414 154.057 524.203 149.508 520.942 144.882C517.531 147.586 514.371 150.114 511.009 152.794C507.799 145.008 504.765 137.653 501.378 129.462C499.786 136.136 498.421 142 496.954 147.815C494.68 156.94 493.264 166.443 489.776 175.088C483.474 190.438 479.027 206.485 476.53 222.889C475.165 232.064 473.143 241.14 471.272 250.972C468.163 247.484 465.432 244.502 462.829 241.418C462.432 240.771 461.807 240.296 461.078 240.086C460.348 239.875 459.567 239.944 458.886 240.28C456.433 241.241 453.83 241.823 451.177 242.606C447.738 229.537 444.377 216.772 440.812 203.274C438.107 209.239 435.731 214.345 433.432 219.476C432.437 221.378 431.665 223.388 431.131 225.467C429.134 236.463 427.339 247.484 425.468 258.48C424.155 266.013 422.814 273.521 421.374 281.787C417.86 277.06 414.776 272.863 411.415 268.338C408.053 276.276 404.893 283.683 401.707 291.24C395.843 288.409 389.7 286.31 389.094 278.526C388.753 276.713 388.22 274.941 387.502 273.242C385.201 265.608 382.066 258.075 380.778 250.265C377.744 231.661 375.216 212.98 373.194 194.224C372.107 184.214 369.529 175.266 362.502 167.859C361.696 166.942 361.131 165.839 360.859 164.649C359.519 158.961 358.331 153.249 357.067 147.562C355.399 140.054 353.679 132.571 352.012 125.089H351.329C348.245 143.997 345.136 162.931 341.926 182.521C341.067 181.231 340.536 180.524 340.08 179.765C337.755 175.797 335.201 171.929 333.155 167.784C331.713 164.827 330.07 164.296 327.188 165.635C325.227 166.38 323.217 166.988 321.172 167.455C317.887 157.622 314.575 148.066 311.542 138.435C310.509 134.685 309.69 130.879 309.09 127.036C304.919 105.625 301.076 84.1141 292.431 63.8919C292.002 62.9316 291.522 61.5913 290.687 61.2124C287.983 59.9485 285.077 59.0127 282.144 57.9008C278.579 66.6727 275.167 75.0644 271.603 83.8105C268.292 81.3333 265.385 78.8821 262.199 76.8851C258.938 74.8374 255.4 73.2451 251.912 71.4246C248.499 76.2777 245.315 80.8533 241.825 85.8583C239.247 78.755 236.897 72.3601 234.546 65.9136C231.892 58.5587 231.892 58.4821 224.106 58.8868C223.415 58.9859 222.711 58.8473 222.109 58.4937C221.508 58.14 221.044 57.5923 220.795 56.9405C219.025 53.5783 216.776 50.4446 215.284 46.9813C214.36 44.6605 212.882 42.6014 210.978 40.9842C209.075 39.367 206.804 38.241 204.364 37.7046C203.642 37.3816 202.834 37.303 202.063 37.4807C201.292 37.6584 200.6 38.0828 200.092 38.6894C197.564 41.4197 194.834 43.998 191.851 47.0058C190.335 41.3183 188.995 36.3136 187.656 31.2838C184.521 19.3274 182.246 7.01687 173.905 -2.84121C172.508 -4.84044 170.84 -6.63576 168.949 -8.17559C166.253 -9.91327 163.934 -12.1764 162.132 -14.83C160.33 -17.4835 159.081 -20.4731 158.459 -23.62C157.297 -28.6756 155.325 -33.5535 153.683 -38.5089C153.227 -39.8987 152.696 -41.2639 152.216 -42.6289C146.276 -24.479 140.816 -6.37983 132.197 10.8839C129.744 10.3025 127.216 9.49409 124.613 9.13995C124.024 9.1029 123.434 9.19454 122.884 9.40852C122.334 9.6225 121.837 9.95368 121.427 10.3791C118.774 14.1447 116.777 18.4424 113.794 21.906C110.07 25.8318 106.129 29.545 101.989 33.028C101.661 31.738 101.534 31.3851 101.458 31.005C98.3999 15.6371 95.3155 0.267947 92.384 -15.127C92.0296 -16.9723 91.2966 -17.882 89.6033 -18.1856C84.6994 -19.0953 79.8205 -20.1062 74.866 -20.7887C72.995 -21.0417 71.9336 -21.4206 71.5792 -23.5189C71.0486 -26.6278 70.1647 -29.7112 69.355 -32.7709C65.5633 -46.8748 63.3146 -61.359 56.135 -74.504C53.0764 -80.1409 49.9166 -84.8421 43.9007 -87.3698C42.7119 -88.0389 41.8185 -89.1308 41.3978 -90.4284C38.4911 -99.1756 35.736 -107.972 32.9552 -116.743C32.8544 -117.497 32.4889 -118.191 31.9239 -118.7C31.3589 -119.209 30.6312 -119.501 29.8708 -119.524C24.3636 -120.132 19.0705 -122 14.4019 -124.984C13.2084 -125.662 12.2278 -126.66 11.5705 -127.865C8.68832 -133.502 5.98408 -139.215 2.97628 -145.433C2.36885 -143.993 1.96541 -143.108 1.63579 -142.173C-1.11924 -134.564 -3.79869 -126.931 -6.68061 -119.372C-6.92211 -118.822 -7.27635 -118.328 -7.72051 -117.923C-8.16466 -117.518 -8.68886 -117.21 -9.25919 -117.021C-14.7858 -115.788 -20.5349 -115.98 -25.9673 -117.577C-26.9383 -117.932 -27.735 -118.647 -28.1915 -119.574C-30.1133 -124.2 -31.8573 -128.926 -33.7026 -133.578C-34.9159 -136.688 -36.1797 -139.797 -37.4681 -142.956C-39.9714 -142.349 -42.1956 -141.996 -44.3184 -141.263C-44.7178 -141.053 -45.1567 -140.929 -45.6069 -140.899C-46.057 -140.869 -46.5085 -140.933 -46.9323 -141.088C-47.3562 -141.242 -47.7429 -141.484 -48.0678 -141.797C-48.3926 -142.11 -48.6484 -142.488 -48.8187 -142.906C-51.4218 -147.228 -54.3036 -151.399 -57.3114 -156C-57.7164 -154.736 -57.9694 -154.054 -58.1459 -153.371C-61.002 -142.578 -63.8499 -131.792 -66.6896 -121.015C-66.866 -120.332 -66.9425 -119.271 -67.372 -119.068C-70.6576 -117.527 -74.0198 -116.162 -77.4831 -114.695C-80.7442 -128.118 -83.8792 -141.01 -87.2153 -154.686C-90.2985 -147.532 -93.0287 -141.136 -95.8095 -134.766C-96.0562 -133.897 -96.5069 -133.1 -97.1239 -132.44C-99.3481 -130.822 -101.649 -129.281 -104 -127.713Z" fill="#212121"/>
</g>
<g style="mix-blend-mode:overlay" opacity="0.4">
<path d="M36.6062 250.144H51.7566C51.8045 250.027 51.8532 249.91 51.9012 249.793H36.5246C36.5521 249.91 36.5788 250.027 36.6062 250.144ZM143.498 271.386H143.693C143.776 271.262 143.858 271.142 143.93 271.036H143.441C143.46 271.153 143.479 271.268 143.498 271.386ZM391 15.5382V15.1875H370.297V-4H369.947V15.1875H348.004V-4H347.654V15.1875H325.473V-4H325.122V15.1875H303.18V-4H302.829V15.1875H280.887V-4H280.536V15.1875H258.594V-4H258.244V15.1875H236.301V-4H235.951V15.1875H214.008V-4H213.658V15.1875H191.716V-4H191.365V15.1875H169.424V-4H169.074V15.1875H147.131V-4H146.78V15.1875H124.839V-4H124.488V15.1875H102.546V-4H102.196V15.1875H80.0143V-4H79.6636V15.1875H57.7219V-4H57.3712V15.1875H35.4288V-4H35.0781V15.1875H13.1371V-4H12.7864V15.1875H-9.15597V-4H-9.50666V15.1875H-13V15.5382H-9.50666V36.534H-13V36.8847H-9.50666V57.7764H-13V58.1271H-9.50666V79.1236H-13V79.4743H-9.50666V100.469H-13V100.82H-9.50666V121.816H-13V122.167H-9.50666V143.163H-13V143.514H-9.50666V164.405H-13V164.756H-9.50666V185.752H-13V186.103H-9.50666V207.1H-10.6649C-10.6177 207.217 -10.5677 207.333 -10.5197 207.45H-9.50666V209.86C-9.38953 210.13 -9.27263 210.4 -9.15597 210.67V207.45H12.7864V228.446H12.6042C12.7891 228.661 12.9618 228.892 13.1371 229.119V228.797H35.0781V243.568C35.1952 244.073 35.3121 244.576 35.4288 245.079V228.797H57.3712V249.793H56.8684C56.8972 249.91 56.9259 250.027 56.9547 250.144H57.3712V251.824C57.4157 252.001 57.4589 252.181 57.5033 252.358C57.5794 252.662 57.6492 252.969 57.7219 253.275V250.144H79.6636V271.036H62.8569C62.9001 271.152 62.9398 271.27 62.9823 271.386H79.6636V292.382H68.5673C68.5865 292.499 68.607 292.616 68.6255 292.733H79.6636V304.007C79.7807 304.045 79.8964 304.086 80.0143 304.121V292.733H86.1274C86.1583 292.616 86.189 292.498 86.2199 292.382H80.0143V271.386H102.196V292.382H92.8721C92.9249 292.498 92.9776 292.616 93.0323 292.733H102.196V313.729H97.1674L97.1743 313.771C97.1921 313.874 97.2106 313.977 97.2285 314.08H102.196V322.993C102.312 322.835 102.43 322.677 102.546 322.519V314.08H120.802C120.837 313.963 120.869 313.846 120.903 313.729H102.546V292.733H124.413C124.428 292.616 124.442 292.499 124.458 292.382H102.546V271.386H124.488V292.144C124.609 291.235 124.722 290.324 124.839 289.413V271.386H127.542C127.579 271.269 127.618 271.152 127.657 271.036H124.839V250.144H135.599C135.625 250.027 135.652 249.91 135.678 249.793H124.839V228.797H146.78V249.793H139.96L140.017 250.144H146.78V266.386C146.899 266.185 147.015 265.984 147.131 265.782V250.144H159.419C159.457 250.027 159.496 249.91 159.534 249.793H147.131V228.797H164.158C164.184 228.68 164.207 228.563 164.232 228.446H147.131V207.45H169.074V210.757C169.191 210.428 169.303 210.098 169.424 209.77V207.45H170.343C170.389 207.334 170.435 207.216 170.482 207.1H169.424V186.103H191.365V207.1H178.598C178.644 207.216 178.693 207.334 178.74 207.45H191.365V211.042C191.482 210.983 191.599 210.924 191.716 210.865V207.45H202.927C202.97 207.334 203.013 207.216 203.056 207.1H191.716V186.103H213.658V196.723C213.708 196.615 213.768 196.51 213.815 196.401C213.875 196.263 213.945 196.141 214.008 196.01V186.103H229.552C229.582 185.986 229.613 185.87 229.642 185.752H214.008V164.756H235.951V169.854C236.067 169.699 236.18 169.541 236.301 169.387V164.756H240.905C241.041 164.642 241.172 164.524 241.301 164.405H236.301V143.514H258.244V164.405H254.804C254.848 164.522 254.889 164.64 254.933 164.756H258.244V172.83C258.356 173.077 258.481 173.321 258.594 173.568V164.756H280.536V169.549C280.654 168.949 280.771 168.348 280.887 167.746V164.756H281.469C281.491 164.639 281.514 164.522 281.537 164.405H280.887V143.514H296.941C296.969 143.396 296.999 143.28 297.028 143.163H280.887V122.167H302.829V127.749C302.944 127.553 303.063 127.365 303.18 127.173V122.167H308.265C308.483 122.058 308.69 121.941 308.923 121.843C308.938 121.837 308.951 121.823 308.966 121.816H303.18V100.82H325.122V101.067C325.179 101.034 325.237 101.003 325.293 100.969C325.354 100.934 325.413 100.888 325.473 100.849V100.82H325.516C325.676 100.713 325.829 100.596 325.974 100.469H325.473V79.4743H347.654V100.469H335.657L335.787 100.82H347.654V105.089L347.696 105.08C347.804 105.044 347.907 104.997 348.004 104.939V100.82H350.185C350.231 100.703 350.279 100.586 350.325 100.469H348.004V79.4743H369.947V100.469H369.581C369.612 100.586 369.643 100.704 369.673 100.82H369.947V101.854C370.063 102.293 370.178 102.734 370.295 103.172L370.297 103.185V100.82H377.709C377.737 100.703 377.766 100.586 377.794 100.469H370.297V79.4743H391V79.1236H370.297V58.1271H391V57.7764H370.297V36.8847H391V36.534H370.297V15.5382H391ZM12.7864 207.1H-9.15597V186.103H12.7864V207.1ZM12.7864 185.752H-9.15597V164.756H12.7864V185.752ZM12.7864 164.405H-9.15597V143.514H12.7864V164.405ZM12.7864 143.163H-9.15597V122.167H12.7864V143.163ZM12.7864 121.816H-9.15597V100.82H12.7864V121.816ZM12.7864 100.469H-9.15597V79.4743H12.7864V100.469ZM12.7864 79.1236H-9.15597V58.1271H12.7864V79.1236ZM12.7864 57.7764H-9.15597V36.8847H12.7864V57.7764ZM12.7864 36.534H-9.15597V15.5382H12.7864V36.534ZM35.0781 228.446H13.1371V207.45H35.0781V228.446ZM35.0781 207.1H13.1371V186.103H35.0781V207.1ZM35.0781 185.752H13.1371V164.756H35.0781V185.752ZM35.0781 164.405H13.1371V143.514H35.0781V164.405ZM35.0781 143.163H13.1371V122.167H35.0781V143.163ZM35.0781 121.816H13.1371V100.82H35.0781V121.816ZM35.0781 100.469H13.1371V79.4743H35.0781V100.469ZM35.0781 79.1236H13.1371V58.1271H35.0781V79.1236ZM35.0781 57.7764H13.1371V36.8847H35.0781V57.7764ZM35.0781 36.534H13.1371V15.5382H35.0781V36.534ZM57.3712 228.446H35.4288V207.45H57.3712V228.446ZM57.3712 207.1H35.4288V186.103H57.3712V207.1ZM57.3712 185.752H35.4288V164.756H57.3712V185.752ZM57.3712 164.405H35.4288V143.514H57.3712V164.405ZM57.3712 143.163H35.4288V122.167H57.3712V143.163ZM57.3712 121.816H35.4288V100.82H57.3712V121.816ZM57.3712 100.469H35.4288V79.4743H57.3712V100.469ZM57.3712 79.1236H35.4288V58.1271H57.3712V79.1236ZM57.3712 57.7764H35.4288V36.8847H57.3712V57.7764ZM57.3712 36.534H35.4288V15.5382H57.3712V36.534ZM79.6636 249.793H57.7219V228.797H79.6636V249.793ZM79.6636 228.446H57.7219V207.45H79.6636V228.446ZM79.6636 207.1H57.7219V186.103H79.6636V207.1ZM79.6636 185.752H57.7219V164.756H79.6636V185.752ZM79.6636 164.405H57.7219V143.514H79.6636V164.405ZM79.6636 143.163H57.7219V122.167H79.6636V143.163ZM79.6636 121.816H57.7219V100.82H79.6636V121.816ZM79.6636 100.469H57.7219V79.4743H79.6636V100.469ZM79.6636 79.1236H57.7219V58.1271H79.6636V79.1236ZM79.6636 57.7764H57.7219V36.8847H79.6636V57.7764ZM79.6636 36.534H57.7219V15.5382H79.6636V36.534ZM102.196 271.036H80.0143V250.144H102.196V271.036ZM102.196 249.793H80.0143V228.797H102.196V249.793ZM102.196 228.446H80.0143V207.45H102.196V228.446ZM102.196 207.1H80.0143V186.103H102.196V207.1ZM102.196 185.752H80.0143V164.756H102.196V185.752ZM102.196 164.405H80.0143V143.514H102.196V164.405ZM102.196 143.163H80.0143V122.167H102.196V143.163ZM102.196 121.816H80.0143V100.82H102.196V121.816ZM102.196 100.469H80.0143V79.4743H102.196V100.469ZM102.196 79.1236H80.0143V58.1271H102.196V79.1236ZM102.196 57.7764H80.0143V36.8847H102.196V57.7764ZM102.196 36.534H80.0143V15.5382H102.196V36.534ZM124.488 271.036H102.546V250.144H124.488V271.036ZM124.488 249.793H102.546V228.797H124.488V249.793ZM124.488 228.446H102.546V207.45H124.488V228.446ZM124.488 207.1H102.546V186.103H124.488V207.1ZM124.488 185.752H102.546V164.756H124.488V185.752ZM124.488 164.405H102.546V143.514H124.488V164.405ZM124.488 143.163H102.546V122.167H124.488V143.163ZM124.488 121.816H102.546V100.82H124.488V121.816ZM124.488 100.469H102.546V79.4743H124.488V100.469ZM124.488 79.1236H102.546V58.1271H124.488V79.1236ZM124.488 57.7764H102.546V36.8847H124.488V57.7764ZM124.488 36.534H102.546V15.5382H124.488V36.534ZM146.78 228.446H124.839V207.45H146.78V228.446ZM146.78 207.1H124.839V186.103H146.78V207.1ZM146.78 185.752H124.839V164.756H146.78V185.752ZM146.78 164.405H124.839V143.514H146.78V164.405ZM146.78 143.163H124.839V122.167H146.78V143.163ZM146.78 121.816H124.839V100.82H146.78V121.816ZM146.78 100.469H124.839V79.4743H146.78V100.469ZM146.78 79.1236H124.839V58.1271H146.78V79.1236ZM146.78 57.7764H124.839V36.8847H146.78V57.7764ZM146.78 36.534H124.839V15.5382H146.78V36.534ZM169.074 207.1H147.131V186.103H169.074V207.1ZM169.074 185.752H147.131V164.756H169.074V185.752ZM169.074 164.405H147.131V143.514H169.074V164.405ZM169.074 143.163H147.131V122.167H169.074V143.163ZM169.074 121.816H147.131V100.82H169.074V121.816ZM169.074 100.469H147.131V79.4743H169.074V100.469ZM169.074 79.1236H147.131V58.1271H169.074V79.1236ZM169.074 57.7764H147.131V36.8847H169.074V57.7764ZM169.074 36.534H147.131V15.5382H169.074V36.534ZM191.365 185.752H169.424V164.756H191.365V185.752ZM191.365 164.405H169.424V143.514H191.365V164.405ZM191.365 143.163H169.424V122.167H191.365V143.163ZM191.365 121.816H169.424V100.82H191.365V121.816ZM191.365 100.469H169.424V79.4743H191.365V100.469ZM191.365 79.1236H169.424V58.1271H191.365V79.1236ZM191.365 57.7764H169.424V36.8847H191.365V57.7764ZM191.365 36.534H169.424V15.5382H191.365V36.534ZM213.658 185.752H191.716V164.756H213.658V185.752ZM213.658 164.405H191.716V143.514H213.658V164.405ZM213.658 143.163H191.716V122.167H213.658V143.163ZM213.658 121.816H191.716V100.82H213.658V121.816ZM213.658 100.469H191.716V79.4743H213.658V100.469ZM213.658 79.1236H191.716V58.1271H213.658V79.1236ZM213.658 57.7764H191.716V36.8847H213.658V57.7764ZM213.658 36.534H191.716V15.5382H213.658V36.534ZM235.951 164.405H214.008V143.514H235.951V164.405ZM235.951 143.163H214.008V122.167H235.951V143.163ZM235.951 121.816H214.008V100.82H235.951V121.816ZM235.951 100.469H214.008V79.4743H235.951V100.469ZM235.951 79.1236H214.008V58.1271H235.951V79.1236ZM235.951 57.7764H214.008V36.8847H235.951V57.7764ZM235.951 36.534H214.008V15.5382H235.951V36.534ZM258.244 143.163H236.301V122.167H258.244V143.163ZM258.244 121.816H236.301V100.82H258.244V121.816ZM258.244 100.469H236.301V79.4743H258.244V100.469ZM258.244 79.1236H236.301V58.1271H258.244V79.1236ZM258.244 57.7764H236.301V36.8847H258.244V57.7764ZM258.244 36.534H236.301V15.5382H258.244V36.534ZM280.536 164.405H258.594V143.514H280.536V164.405ZM280.536 143.163H258.594V122.167H280.536V143.163ZM280.536 121.816H258.594V100.82H280.536V121.816ZM280.536 100.469H258.594V79.4743H280.536V100.469ZM280.536 79.1236H258.594V58.1271H280.536V79.1236ZM280.536 57.7764H258.594V36.8847H280.536V57.7764ZM280.536 36.534H258.594V15.5382H280.536V36.534ZM302.829 121.816H280.887V100.82H302.829V121.816ZM302.829 100.469H280.887V79.4743H302.829V100.469ZM302.829 79.1236H280.887V58.1271H302.829V79.1236ZM302.829 57.7764H280.887V36.8847H302.829V57.7764ZM302.829 36.534H280.887V15.5382H302.829V36.534ZM325.122 100.469H303.18V79.4743H325.122V100.469ZM325.122 79.1236H303.18V58.1271H325.122V79.1236ZM325.122 57.7764H303.18V36.8847H325.122V57.7764ZM325.122 36.534H303.18V15.5382H325.122V36.534ZM347.654 79.1236H325.473V58.1271H347.654V79.1236ZM347.654 57.7764H325.473V36.8847H347.654V57.7764ZM347.654 36.534H325.473V15.5382H347.654V36.534ZM369.947 79.1236H348.004V58.1271H369.947V79.1236ZM369.947 57.7764H348.004V36.8847H369.947V57.7764ZM369.947 36.534H348.004V15.5382H369.947V36.534ZM273.828 186.103H277.266L277.336 185.752H273.432C273.561 185.869 273.696 185.987 273.828 186.103Z" fill="black"/>
</g>
</g>
</g>
<defs>
<linearGradient id="paint0_linear_1085_1462" x1="179" y1="2" x2="179" y2="194" gradientUnits="userSpaceOnUse">
<stop offset="0.195833" stop-color="#03B263"/>
<stop offset="0.919792" stop-color="#01B496"/>
</linearGradient>
<linearGradient id="paint1_linear_1085_1462" x1="188.5" y1="-154.599" x2="188.5" y2="292.29" gradientUnits="userSpaceOnUse">
<stop stop-color="#EBEBEB"/>
<stop offset="0.1701" stop-color="#E1E7ED"/>
<stop offset="0.46347" stop-color="#C5DDF2"/>
<stop offset="0.84231" stop-color="#98CDFB"/>
<stop offset="1" stop-color="#83C6FF"/>
</linearGradient>
</defs>
</svg>
