<svg width="360" height="729" viewBox="0 0 360 729" fill="none" xmlns="http://www.w3.org/2000/svg">
<mask id="mask0_1335_2935" style="mask-type:alpha" maskUnits="userSpaceOnUse" x="0" y="0" width="360" height="729">
<rect width="360" height="729" fill="#D9D9D9"/>
</mask>
<g mask="url(#mask0_1335_2935)">
<rect width="366" height="729" fill="url(#paint0_linear_1335_2935)"/>
<g style="mix-blend-mode:multiply" clip-path="url(#clip0_1335_2935)">
<path d="M366 -12H-34V740H366V-12Z" fill="url(#paint1_linear_1335_2935)"/>
<g style="mix-blend-mode:overlay" opacity="0.6">
<path fill-rule="evenodd" clip-rule="evenodd" d="M463 306.181V750H-74.0001V462.538H-73.7952C-73.2012 462.45 -72.5989 462.608 -72.1035 462.983C-71.6081 463.357 -71.2544 463.922 -71.1102 464.568C-69.4132 469.332 -67.363 473.951 -65.8334 478.778C-65.738 479.347 -65.5401 479.888 -65.2516 480.37C-64.9631 480.851 -64.5899 481.263 -64.1545 481.581C-63.7191 481.898 -63.2305 482.114 -62.718 482.217C-62.2054 482.319 -61.6796 482.305 -61.172 482.176C-59.7456 481.976 -58.2968 482.176 -56.958 482.759C-55.6193 483.341 -54.4334 484.287 -53.5087 485.51C-52.1462 487.303 -50.4801 488.781 -48.6051 489.861C-44.1485 491.815 -40.3853 495.327 -37.8837 499.866C-37.1925 501.068 -36.4129 502.204 -35.553 503.263C-35.2094 503.791 -34.7175 504.178 -34.1545 504.361C-28.8959 505.045 -26.0244 508.67 -24.1415 513.828C-23.1439 516.184 -22.0231 518.474 -20.7847 520.684C-20.5244 521.202 -20.1702 521.679 -19.7413 522.363C-17.3733 517.121 -15.1354 512.191 -12.6555 506.722C-10.2127 518.447 -7.882 529.591 -5.42112 541.296C-2.75439 537.09 -0.386375 533.362 2.01913 529.571C4.53557 531.787 6.86629 533.859 9.34637 536.055C11.7144 529.675 13.9523 523.647 16.4504 516.935C17.6249 522.404 18.6318 527.209 19.7135 531.975C21.3914 539.452 22.4358 547.241 25.0087 554.325C29.657 566.904 32.9371 580.055 34.7795 593.497C35.7864 601.017 37.2776 608.454 38.658 616.512C40.9512 613.653 42.9652 611.209 44.8853 608.682C45.1787 608.152 45.6394 607.763 46.1774 607.59C46.7154 607.418 47.2919 607.474 47.7943 607.749C49.6033 608.537 51.5234 609.014 53.4809 609.656C56.0173 598.945 58.4964 588.485 61.1259 577.423C63.1215 582.312 64.874 586.496 66.5703 590.701C67.3042 592.259 67.8737 593.907 68.2674 595.61C69.7404 604.622 71.0643 613.653 72.4444 622.664C73.4131 628.837 74.4019 634.99 75.4643 641.764C78.0565 637.89 80.3316 634.451 82.8108 630.743C85.2907 637.248 87.6214 643.318 89.9713 649.511C94.2968 647.191 98.8281 645.471 99.2751 639.092C99.5265 637.606 99.9202 636.154 100.45 634.762C102.147 628.506 104.459 622.333 105.41 615.932C107.648 600.686 109.512 585.378 111.003 570.007C111.805 561.804 113.707 554.471 118.891 548.401C119.485 547.65 119.902 546.745 120.102 545.77C121.091 541.109 121.967 536.428 122.899 531.767C124.13 525.614 125.398 519.483 126.628 513.351H127.132C129.407 528.846 131.701 544.362 134.069 560.416C134.702 559.359 135.094 558.78 135.43 558.158C137.145 554.906 139.029 551.736 140.538 548.339C141.601 545.916 142.813 545.481 144.939 546.578C146.386 547.188 147.868 547.687 149.377 548.07C151.8 540.012 154.243 532.181 156.481 524.288C157.243 521.215 157.846 518.096 158.289 514.946C161.366 497.4 164.2 479.772 170.577 463.2C170.894 462.413 171.248 461.315 171.864 461.005C173.858 459.969 176.002 459.202 178.166 458.291C180.795 465.479 183.312 472.356 185.941 479.524C188.384 477.493 190.528 475.485 192.878 473.848C195.283 472.17 197.893 470.865 200.466 469.373C202.984 473.35 205.332 477.1 207.906 481.202C209.808 475.381 211.542 470.14 213.276 464.857C215.233 458.83 215.233 458.767 220.977 459.099C221.486 459.18 222.006 459.066 222.449 458.776C222.893 458.487 223.235 458.038 223.419 457.504C224.725 454.748 226.384 452.18 227.484 449.342C228.166 447.44 229.256 445.753 230.66 444.428C232.064 443.102 233.74 442.18 235.539 441.74C236.072 441.475 236.668 441.411 237.236 441.556C237.805 441.702 238.315 442.05 238.69 442.547C240.555 444.784 242.568 446.897 244.769 449.362C245.887 444.701 246.876 440.6 247.864 436.478C250.176 426.68 251.854 416.592 258.007 408.513C259.037 406.875 260.267 405.403 261.662 404.141C263.651 402.717 265.362 400.863 266.691 398.688C268.02 396.514 268.942 394.064 269.4 391.485C270.258 387.342 271.712 383.344 272.923 379.283C273.259 378.144 273.651 377.026 274.005 375.907C278.387 390.781 282.415 405.613 288.772 419.76C290.581 419.284 292.446 418.622 294.366 418.331C294.801 418.301 295.236 418.376 295.642 418.551C296.048 418.727 296.414 418.998 296.716 419.347C298.674 422.433 300.147 425.955 302.347 428.793C305.094 432.01 308.001 435.053 311.055 437.907C311.297 436.85 311.391 436.561 311.446 436.25C313.702 423.656 315.977 411.061 318.14 398.445C318.401 396.933 318.942 396.187 320.191 395.938C323.808 395.193 327.407 394.364 331.062 393.805C332.442 393.598 333.225 393.287 333.486 391.568C333.877 389.02 334.53 386.493 335.127 383.986C337.924 372.428 339.582 360.558 344.878 349.786C347.134 345.166 349.465 341.314 353.903 339.242C354.78 338.694 355.439 337.799 355.749 336.736C357.893 329.567 359.925 322.359 361.977 315.171C362.051 314.553 362.321 313.985 362.737 313.567C363.154 313.15 363.691 312.911 364.252 312.892C368.314 312.394 372.218 310.863 375.662 308.417C376.543 307.862 377.266 307.044 377.751 306.057C379.877 301.437 381.871 296.755 384.09 291.659C384.538 292.84 384.836 293.565 385.079 294.332C387.111 300.566 389.088 306.822 391.213 313.016C391.392 313.468 391.653 313.872 391.98 314.204C392.308 314.536 392.695 314.788 393.115 314.943C397.192 315.953 401.433 315.796 405.44 314.487C406.156 314.197 406.744 313.611 407.081 312.851C408.498 309.06 409.785 305.187 411.146 301.374C412.041 298.826 412.973 296.279 413.923 293.689C415.77 294.187 417.411 294.476 418.977 295.077C419.271 295.249 419.595 295.351 419.927 295.375C420.259 295.4 420.592 295.347 420.905 295.221C421.217 295.094 421.503 294.896 421.742 294.639C421.982 294.383 422.17 294.073 422.296 293.731C424.216 290.189 426.342 286.771 428.561 283C428.859 284.036 429.046 284.595 429.176 285.154C431.283 294 433.384 302.838 435.478 311.67C435.608 312.23 435.665 313.1 435.982 313.265C438.405 314.529 440.885 315.647 443.44 316.849C445.846 305.849 448.158 295.284 450.619 284.077C452.893 289.94 454.907 295.181 456.958 300.401C457.14 301.113 457.473 301.767 457.928 302.307C459.568 303.633 461.266 304.896 463 306.181Z" fill="#212121"/>
</g>
<g style="mix-blend-mode:overlay" opacity="0.4">
<path d="M-3.15161 637.731H18.4865C18.555 637.416 18.6245 637.103 18.6931 636.788H-3.26801C-3.22874 637.103 -3.19067 637.416 -3.15161 637.731ZM149.513 694.879H149.791C149.911 694.544 150.027 694.221 150.131 693.936H149.431C149.459 694.252 149.486 694.562 149.513 694.879ZM503 6.5755V5.63203H473.432V-45.9877H472.931V5.63203H441.593V-45.9877H441.092V5.63203H409.413V-45.9877H408.912V5.63203H377.574V-45.9877H377.073V5.63203H345.734V-45.9877H345.234V5.63203H313.896V-45.9877H313.395V5.63203H282.057V-45.9877H281.556V5.63203H250.217V-45.9877H249.716V5.63203H218.379V-45.9877H217.878V5.63203H186.542V-45.9877H186.041V5.63203H154.702V-45.9877H154.201V5.63203H122.864V-45.9877H122.363V5.63203H91.0254V-45.9877H90.5245V5.63203H58.8446V-45.9877H58.3438V5.63203H27.0063V-45.9877H26.5054V5.63203H-4.83312V-45.9877H-5.33399V5.63203H-36.6705V-45.9877H-37.1714V5.63203H-68.5099V-45.9877H-69.0108V5.63203H-74V6.5755H-69.0108V63.0601H-74V64.0036H-69.0108V120.208H-74V121.152H-69.0108V177.638H-74V178.582H-69.0108V235.064H-74V236.008H-69.0108V292.494H-74V293.437H-69.0108V349.922H-74V350.865H-69.0108V407.07H-74V408.013H-69.0108V464.5H-74V465.443H-69.0108V521.93H-70.665C-70.5975 522.245 -70.5262 522.558 -70.4577 522.873H-69.0108V529.356C-68.8435 530.082 -68.6765 530.808 -68.5099 531.534V522.873H-37.1714V579.358H-37.4316C-37.1676 579.936 -36.9209 580.557 -36.6705 581.169V580.301H-5.33399V620.041C-5.1667 621.397 -4.99975 622.752 -4.83312 624.106V580.301H26.5054V636.788H25.7874C25.8284 637.103 25.8695 637.417 25.9106 637.731H26.5054V642.251C26.5689 642.728 26.6306 643.211 26.6941 643.687C26.8027 644.507 26.9025 645.332 27.0063 646.156V637.731H58.3438V693.936H34.3402C34.4019 694.249 34.4586 694.565 34.5193 694.879H58.3438V751.363H42.4959C42.5234 751.678 42.5526 751.992 42.579 752.307H58.3438V782.638C58.5111 782.739 58.6763 782.85 58.8446 782.946V752.307H67.5756C67.6196 751.993 67.6635 751.676 67.7076 751.363H58.8446V694.879H90.5245V751.363H77.2085C77.2838 751.676 77.3591 751.992 77.4373 752.307H90.5245V808.793H83.3431L83.3529 808.906C83.3784 809.182 83.4048 809.46 83.4303 809.737H90.5245V833.716C90.6908 833.29 90.8591 832.864 91.0254 832.441V809.737H117.099C117.149 809.423 117.194 809.108 117.243 808.793H91.0254V752.307H122.255C122.277 751.992 122.297 751.678 122.32 751.363H91.0254V694.879H122.363V750.724C122.535 748.277 122.698 745.826 122.864 743.377V694.879H126.724C126.778 694.564 126.833 694.249 126.888 693.936H122.864V637.731H138.232C138.269 637.416 138.308 637.103 138.345 636.788H122.864V580.301H154.201V636.788H144.46L144.542 637.731H154.201V681.427C154.371 680.887 154.536 680.345 154.702 679.802V637.731H172.252C172.306 637.416 172.362 637.103 172.415 636.788H154.702V580.301H179.021C179.057 579.986 179.09 579.673 179.125 579.358H154.702V522.873H186.041V531.77C186.209 530.885 186.368 529.995 186.542 529.113V522.873H187.853C187.92 522.56 187.984 522.243 188.052 521.93H186.542V465.443H217.878V521.93H199.643C199.71 522.243 199.779 522.56 199.847 522.873H217.878V532.536C218.045 532.378 218.212 532.219 218.379 532.061V522.873H234.391C234.452 522.56 234.513 522.243 234.575 521.93H218.379V465.443H249.716V494.015C249.788 493.723 249.874 493.441 249.941 493.147C250.027 492.776 250.127 492.448 250.217 492.094V465.443H272.418C272.46 465.128 272.504 464.815 272.546 464.5H250.217V408.013H281.556V421.729C281.722 421.31 281.883 420.886 282.057 420.472V408.013H288.632C288.825 407.705 289.013 407.389 289.198 407.07H282.057V350.865H313.395V407.07H308.482C308.545 407.383 308.604 407.7 308.666 408.013H313.395V429.734C313.555 430.398 313.734 431.055 313.896 431.72V408.013H345.234V420.909C345.402 419.293 345.569 417.676 345.734 416.059V408.013H346.566C346.597 407.698 346.63 407.385 346.663 407.07H345.734V350.865H368.663C368.704 350.55 368.746 350.237 368.788 349.922H345.734V293.437H377.073V308.454C377.236 307.927 377.407 307.42 377.574 306.906V293.437H384.836C385.147 293.143 385.444 292.829 385.776 292.566C385.797 292.549 385.816 292.512 385.837 292.494H377.574V236.008H408.912V236.671C408.993 236.583 409.077 236.499 409.157 236.409C409.243 236.315 409.327 236.19 409.413 236.085V236.008H409.475C409.703 235.72 409.922 235.405 410.128 235.064H409.413V178.582H441.092V235.064H423.959L424.144 236.008H441.092V247.493L441.153 247.467C441.306 247.372 441.454 247.245 441.593 247.09V236.008H444.708C444.773 235.693 444.842 235.379 444.907 235.064H441.593V178.582H472.931V235.064H472.409C472.453 235.378 472.497 235.694 472.541 236.008H472.931V238.79C473.098 239.971 473.262 241.156 473.428 242.335L473.432 242.37V236.008H484.017C484.057 235.693 484.098 235.379 484.138 235.064H473.432V178.582H503V177.638H473.432V121.152H503V120.208H473.432V64.0036H503V63.0601H473.432V6.5755H503ZM-37.1714 521.93H-68.5099V465.443H-37.1714V521.93ZM-37.1714 464.5H-68.5099V408.013H-37.1714V464.5ZM-37.1714 407.07H-68.5099V350.865H-37.1714V407.07ZM-37.1714 349.922H-68.5099V293.437H-37.1714V349.922ZM-37.1714 292.494H-68.5099V236.008H-37.1714V292.494ZM-37.1714 235.064H-68.5099V178.582H-37.1714V235.064ZM-37.1714 177.638H-68.5099V121.152H-37.1714V177.638ZM-37.1714 120.208H-68.5099V64.0036H-37.1714V120.208ZM-37.1714 63.0601H-68.5099V6.5755H-37.1714V63.0601ZM-5.33399 579.358H-36.6705V522.873H-5.33399V579.358ZM-5.33399 521.93H-36.6705V465.443H-5.33399V521.93ZM-5.33399 464.5H-36.6705V408.013H-5.33399V464.5ZM-5.33399 407.07H-36.6705V350.865H-5.33399V407.07ZM-5.33399 349.922H-36.6705V293.437H-5.33399V349.922ZM-5.33399 292.494H-36.6705V236.008H-5.33399V292.494ZM-5.33399 235.064H-36.6705V178.582H-5.33399V235.064ZM-5.33399 177.638H-36.6705V121.152H-5.33399V177.638ZM-5.33399 120.208H-36.6705V64.0036H-5.33399V120.208ZM-5.33399 63.0601H-36.6705V6.5755H-5.33399V63.0601ZM26.5054 579.358H-4.83312V522.873H26.5054V579.358ZM26.5054 521.93H-4.83312V465.443H26.5054V521.93ZM26.5054 464.5H-4.83312V408.013H26.5054V464.5ZM26.5054 407.07H-4.83312V350.865H26.5054V407.07ZM26.5054 349.922H-4.83312V293.437H26.5054V349.922ZM26.5054 292.494H-4.83312V236.008H26.5054V292.494ZM26.5054 235.064H-4.83312V178.582H26.5054V235.064ZM26.5054 177.638H-4.83312V121.152H26.5054V177.638ZM26.5054 120.208H-4.83312V64.0036H26.5054V120.208ZM26.5054 63.0601H-4.83312V6.5755H26.5054V63.0601ZM58.3438 636.788H27.0063V580.301H58.3438V636.788ZM58.3438 579.358H27.0063V522.873H58.3438V579.358ZM58.3438 521.93H27.0063V465.443H58.3438V521.93ZM58.3438 464.5H27.0063V408.013H58.3438V464.5ZM58.3438 407.07H27.0063V350.865H58.3438V407.07ZM58.3438 349.922H27.0063V293.437H58.3438V349.922ZM58.3438 292.494H27.0063V236.008H58.3438V292.494ZM58.3438 235.064H27.0063V178.582H58.3438V235.064ZM58.3438 177.638H27.0063V121.152H58.3438V177.638ZM58.3438 120.208H27.0063V64.0036H58.3438V120.208ZM58.3438 63.0601H27.0063V6.5755H58.3438V63.0601ZM90.5245 693.936H58.8446V637.731H90.5245V693.936ZM90.5245 636.788H58.8446V580.301H90.5245V636.788ZM90.5245 579.358H58.8446V522.873H90.5245V579.358ZM90.5245 521.93H58.8446V465.443H90.5245V521.93ZM90.5245 464.5H58.8446V408.013H90.5245V464.5ZM90.5245 407.07H58.8446V350.865H90.5245V407.07ZM90.5245 349.922H58.8446V293.437H90.5245V349.922ZM90.5245 292.494H58.8446V236.008H90.5245V292.494ZM90.5245 235.064H58.8446V178.582H90.5245V235.064ZM90.5245 177.638H58.8446V121.152H90.5245V177.638ZM90.5245 120.208H58.8446V64.0036H90.5245V120.208ZM90.5245 63.0601H58.8446V6.5755H90.5245V63.0601ZM122.363 693.936H91.0254V637.731H122.363V693.936ZM122.363 636.788H91.0254V580.301H122.363V636.788ZM122.363 579.358H91.0254V522.873H122.363V579.358ZM122.363 521.93H91.0254V465.443H122.363V521.93ZM122.363 464.5H91.0254V408.013H122.363V464.5ZM122.363 407.07H91.0254V350.865H122.363V407.07ZM122.363 349.922H91.0254V293.437H122.363V349.922ZM122.363 292.494H91.0254V236.008H122.363V292.494ZM122.363 235.064H91.0254V178.582H122.363V235.064ZM122.363 177.638H91.0254V121.152H122.363V177.638ZM122.363 120.208H91.0254V64.0036H122.363V120.208ZM122.363 63.0601H91.0254V6.5755H122.363V63.0601ZM154.201 579.358H122.864V522.873H154.201V579.358ZM154.201 521.93H122.864V465.443H154.201V521.93ZM154.201 464.5H122.864V408.013H154.201V464.5ZM154.201 407.07H122.864V350.865H154.201V407.07ZM154.201 349.922H122.864V293.437H154.201V349.922ZM154.201 292.494H122.864V236.008H154.201V292.494ZM154.201 235.064H122.864V178.582H154.201V235.064ZM154.201 177.638H122.864V121.152H154.201V177.638ZM154.201 120.208H122.864V64.0036H154.201V120.208ZM154.201 63.0601H122.864V6.5755H154.201V63.0601ZM186.041 521.93H154.702V465.443H186.041V521.93ZM186.041 464.5H154.702V408.013H186.041V464.5ZM186.041 407.07H154.702V350.865H186.041V407.07ZM186.041 349.922H154.702V293.437H186.041V349.922ZM186.041 292.494H154.702V236.008H186.041V292.494ZM186.041 235.064H154.702V178.582H186.041V235.064ZM186.041 177.638H154.702V121.152H186.041V177.638ZM186.041 120.208H154.702V64.0036H186.041V120.208ZM186.041 63.0601H154.702V6.5755H186.041V63.0601ZM217.878 464.5H186.542V408.013H217.878V464.5ZM217.878 407.07H186.542V350.865H217.878V407.07ZM217.878 349.922H186.542V293.437H217.878V349.922ZM217.878 292.494H186.542V236.008H217.878V292.494ZM217.878 235.064H186.542V178.582H217.878V235.064ZM217.878 177.638H186.542V121.152H217.878V177.638ZM217.878 120.208H186.542V64.0036H217.878V120.208ZM217.878 63.0601H186.542V6.5755H217.878V63.0601ZM249.716 464.5H218.379V408.013H249.716V464.5ZM249.716 407.07H218.379V350.865H249.716V407.07ZM249.716 349.922H218.379V293.437H249.716V349.922ZM249.716 292.494H218.379V236.008H249.716V292.494ZM249.716 235.064H218.379V178.582H249.716V235.064ZM249.716 177.638H218.379V121.152H249.716V177.638ZM249.716 120.208H218.379V64.0036H249.716V120.208ZM249.716 63.0601H218.379V6.5755H249.716V63.0601ZM281.556 407.07H250.217V350.865H281.556V407.07ZM281.556 349.922H250.217V293.437H281.556V349.922ZM281.556 292.494H250.217V236.008H281.556V292.494ZM281.556 235.064H250.217V178.582H281.556V235.064ZM281.556 177.638H250.217V121.152H281.556V177.638ZM281.556 120.208H250.217V64.0036H281.556V120.208ZM281.556 63.0601H250.217V6.5755H281.556V63.0601ZM313.395 349.922H282.057V293.437H313.395V349.922ZM313.395 292.494H282.057V236.008H313.395V292.494ZM313.395 235.064H282.057V178.582H313.395V235.064ZM313.395 177.638H282.057V121.152H313.395V177.638ZM313.395 120.208H282.057V64.0036H313.395V120.208ZM313.395 63.0601H282.057V6.5755H313.395V63.0601ZM345.234 407.07H313.896V350.865H345.234V407.07ZM345.234 349.922H313.896V293.437H345.234V349.922ZM345.234 292.494H313.896V236.008H345.234V292.494ZM345.234 235.064H313.896V178.582H345.234V235.064ZM345.234 177.638H313.896V121.152H345.234V177.638ZM345.234 120.208H313.896V64.0036H345.234V120.208ZM345.234 63.0601H313.896V6.5755H345.234V63.0601ZM377.073 292.494H345.734V236.008H377.073V292.494ZM377.073 235.064H345.734V178.582H377.073V235.064ZM377.073 177.638H345.734V121.152H377.073V177.638ZM377.073 120.208H345.734V64.0036H377.073V120.208ZM377.073 63.0601H345.734V6.5755H377.073V63.0601ZM408.912 235.064H377.574V178.582H408.912V235.064ZM408.912 177.638H377.574V121.152H408.912V177.638ZM408.912 120.208H377.574V64.0036H408.912V120.208ZM408.912 63.0601H377.574V6.5755H408.912V63.0601ZM441.092 177.638H409.413V121.152H441.092V177.638ZM441.092 120.208H409.413V64.0036H441.092V120.208ZM441.092 63.0601H409.413V6.5755H441.092V63.0601ZM472.931 177.638H441.593V121.152H472.931V177.638ZM472.931 120.208H441.593V64.0036H472.931V120.208ZM472.931 63.0601H441.593V6.5755H472.931V63.0601ZM335.652 465.443H340.563L340.663 464.5H335.087C335.272 464.813 335.465 465.13 335.652 465.443Z" fill="black"/>
</g>
</g>
</g>
<defs>
<linearGradient id="paint0_linear_1335_2935" x1="183" y1="0" x2="183" y2="729" gradientUnits="userSpaceOnUse">
<stop offset="0.195833" stop-color="#03B263"/>
<stop offset="0.919792" stop-color="#01B496"/>
</linearGradient>
<linearGradient id="paint1_linear_1335_2935" x1="166" y1="-124.504" x2="166" y2="748.38" gradientUnits="userSpaceOnUse">
<stop stop-color="#EBEBEB"/>
<stop offset="0.1701" stop-color="#E1E7ED"/>
<stop offset="0.46347" stop-color="#C5DDF2"/>
<stop offset="0.84231" stop-color="#98CDFB"/>
<stop offset="1" stop-color="#83C6FF"/>
</linearGradient>
<clipPath id="clip0_1335_2935">
<rect width="404" height="761" fill="white" transform="translate(-23 -32)"/>
</clipPath>
</defs>
</svg>
