<svg width="359" height="192" viewBox="0 0 359 192" fill="none" xmlns="http://www.w3.org/2000/svg">
<path fill-rule="evenodd" clip-rule="evenodd" d="M-104 -129.713V411.863H624V61.0835H623.722C622.917 60.976 622.1 61.1694 621.429 61.6265C620.757 62.0835 620.278 62.7722 620.082 63.5607C617.782 69.3741 615.002 75.011 612.929 80.9007C612.799 81.5947 612.531 82.2554 612.14 82.8431C611.749 83.4308 611.243 83.9334 610.653 84.3207C610.062 84.7079 609.4 84.9719 608.705 85.0967C608.01 85.2214 607.297 85.2045 606.609 85.0468C604.675 84.8028 602.711 85.0474 600.896 85.7582C599.082 86.4691 597.474 87.6235 596.22 89.116C594.373 91.3036 592.114 93.1072 589.572 94.4246C583.531 96.809 578.429 101.095 575.038 106.634C574.101 108.1 573.044 109.487 571.878 110.779C571.412 111.424 570.745 111.895 569.982 112.119C562.853 112.953 558.96 117.377 556.408 123.671C555.055 126.546 553.536 129.34 551.857 132.038C551.504 132.67 551.024 133.251 550.442 134.085C547.232 127.689 544.198 121.674 540.836 115C537.525 129.307 534.365 142.907 531.029 157.19C527.414 152.057 524.203 147.508 520.942 142.882C517.531 145.586 514.371 148.114 511.009 150.794C507.799 143.008 504.765 135.653 501.378 127.462C499.786 134.136 498.421 140 496.954 145.815C494.68 154.94 493.264 164.443 489.776 173.088C483.474 188.438 479.027 204.485 476.53 220.889C475.165 230.064 473.143 239.14 471.272 248.972C468.163 245.484 465.432 242.502 462.829 239.418C462.432 238.771 461.807 238.296 461.078 238.086C460.348 237.875 459.567 237.944 458.886 238.28C456.433 239.241 453.83 239.823 451.177 240.606C447.738 227.537 444.377 214.772 440.812 201.274C438.107 207.239 435.731 212.345 433.432 217.476C432.437 219.378 431.665 221.388 431.131 223.467C429.134 234.463 427.339 245.484 425.468 256.48C424.155 264.013 422.814 271.521 421.374 279.787C417.86 275.06 414.776 270.863 411.415 266.338C408.053 274.276 404.893 281.683 401.707 289.24C395.843 286.409 389.7 284.31 389.094 276.526C388.753 274.713 388.22 272.941 387.502 271.242C385.201 263.608 382.066 256.075 380.778 248.265C377.744 229.661 375.216 210.98 373.194 192.224C372.107 182.214 369.529 173.266 362.502 165.859C361.695 164.942 361.131 163.839 360.859 162.649C359.519 156.961 358.331 151.249 357.067 145.562C355.399 138.054 353.679 130.571 352.012 123.089H351.329C348.245 141.997 345.136 160.931 341.926 180.521C341.067 179.231 340.536 178.524 340.08 177.765C337.755 173.797 335.201 169.929 333.155 165.784C331.713 162.827 330.07 162.296 327.188 163.635C325.227 164.38 323.217 164.988 321.172 165.455C317.887 155.622 314.575 146.066 311.542 136.435C310.509 132.685 309.69 128.879 309.09 125.036C304.919 103.625 301.076 82.1141 292.431 61.8919C292.002 60.9316 291.522 59.5913 290.688 59.2124C287.983 57.9485 285.077 57.0127 282.144 55.9008C278.579 64.6727 275.167 73.0644 271.603 81.8105C268.292 79.3333 265.385 76.8821 262.199 74.8851C258.938 72.8374 255.4 71.2451 251.912 69.4246C248.499 74.2777 245.315 78.8533 241.825 83.8583C239.247 76.755 236.897 70.3601 234.546 63.9136C231.892 56.5587 231.892 56.4821 224.106 56.8868C223.415 56.9859 222.711 56.8473 222.109 56.4937C221.508 56.14 221.044 55.5923 220.795 54.9405C219.025 51.5783 216.776 48.4446 215.284 44.9813C214.36 42.6605 212.882 40.6014 210.978 38.9842C209.075 37.367 206.804 36.241 204.364 35.7046C203.642 35.3816 202.834 35.303 202.063 35.4807C201.292 35.6584 200.6 36.0828 200.092 36.6894C197.564 39.4197 194.834 41.998 191.851 45.0058C190.335 39.3183 188.995 34.3136 187.656 29.2838C184.521 17.3274 182.246 5.01686 173.905 -4.84122C172.508 -6.84044 170.84 -8.63576 168.949 -10.1756C166.253 -11.9133 163.934 -14.1764 162.132 -16.83C160.33 -19.4836 159.081 -22.4731 158.459 -25.62C157.297 -30.6756 155.325 -35.5535 153.683 -40.5089C153.227 -41.8987 152.696 -43.2639 152.216 -44.6289C146.276 -26.479 140.815 -8.37984 132.197 8.88387C129.744 8.30249 127.216 7.49409 124.613 7.13995C124.024 7.10291 123.434 7.19453 122.884 7.40852C122.334 7.6225 121.837 7.95369 121.427 8.37906C118.774 12.1447 116.777 16.4424 113.794 19.906C110.07 23.8318 106.129 27.545 101.989 31.028C101.661 29.738 101.534 29.3851 101.458 29.005C98.3999 13.6371 95.3155 -1.73206 92.384 -17.127C92.0297 -18.9723 91.2966 -19.882 89.6033 -20.1856C84.6993 -21.0953 79.8205 -22.1062 74.866 -22.7887C72.995 -23.0417 71.9335 -23.4206 71.5792 -25.5189C71.0486 -28.6278 70.1647 -31.7112 69.355 -34.7709C65.5634 -48.8748 63.3146 -63.359 56.1349 -76.504C53.0764 -82.1409 49.9166 -86.8421 43.9007 -89.3698C42.712 -90.0389 41.8185 -91.1308 41.3978 -92.4284C38.4911 -101.176 35.736 -109.972 32.9552 -118.743C32.8544 -119.497 32.489 -120.191 31.924 -120.7C31.3589 -121.209 30.6312 -121.501 29.8708 -121.524C24.3636 -122.132 19.0705 -124 14.4019 -126.984C13.2084 -127.662 12.2278 -128.66 11.5705 -129.865C8.68829 -135.502 5.98407 -141.215 2.97626 -147.433C2.36884 -145.993 1.96539 -145.108 1.6358 -144.173C-1.11926 -136.564 -3.79871 -128.931 -6.6806 -121.372C-6.92212 -120.822 -7.27637 -120.328 -7.72052 -119.923C-8.16467 -119.518 -8.68884 -119.21 -9.25916 -119.021C-14.7858 -117.788 -20.5349 -117.98 -25.9673 -119.577C-26.9383 -119.932 -27.735 -120.647 -28.1915 -121.574C-30.1133 -126.2 -31.8573 -130.926 -33.7026 -135.578C-34.9159 -138.688 -36.1797 -141.797 -37.4681 -144.956C-39.9714 -144.349 -42.1956 -143.996 -44.3184 -143.263C-44.7178 -143.053 -45.1567 -142.929 -45.6069 -142.899C-46.057 -142.869 -46.5085 -142.933 -46.9323 -143.088C-47.3561 -143.242 -47.7429 -143.484 -48.0677 -143.797C-48.3926 -144.11 -48.6484 -144.488 -48.8187 -144.906C-51.4218 -149.228 -54.3036 -153.399 -57.3114 -158C-57.7164 -156.736 -57.9694 -156.054 -58.1459 -155.371C-61.002 -144.578 -63.8499 -133.792 -66.6896 -123.015C-66.866 -122.332 -66.9425 -121.271 -67.372 -121.068C-70.6576 -119.527 -74.0198 -118.162 -77.4831 -116.695C-80.7442 -130.118 -83.8792 -143.01 -87.2153 -156.686C-90.2985 -149.532 -93.0287 -143.136 -95.8095 -136.766C-96.0562 -135.897 -96.5069 -135.1 -97.1239 -134.44C-99.3481 -132.822 -101.649 -131.281 -104 -129.713Z" fill="#212121"/>
</svg>
