<svg width="360" height="294" viewBox="0 0 360 294" fill="none" xmlns="http://www.w3.org/2000/svg">
<path fill-rule="evenodd" clip-rule="evenodd" d="M375 14.6097V294.325H-1V113.153H-0.856519C-0.440624 113.098 -0.0188781 113.197 0.327993 113.433C0.674864 113.67 0.922493 114.025 1.02348 114.432C2.21167 117.435 3.64726 120.346 4.7182 123.388C4.78501 123.747 4.92358 124.088 5.12559 124.392C5.3276 124.695 5.58888 124.955 5.89374 125.155C6.1986 125.355 6.54074 125.491 6.89962 125.555C7.25849 125.62 7.62669 125.611 7.98209 125.53C8.98085 125.404 9.99528 125.53 10.9326 125.897C11.87 126.264 12.7003 126.861 13.3478 127.631C14.3018 128.761 15.4684 129.693 16.7813 130.373C19.9017 131.605 22.5367 133.818 24.2882 136.679C24.7722 137.437 25.318 138.153 25.9202 138.82C26.1607 139.153 26.5052 139.396 26.8993 139.512C30.5814 139.943 32.5919 142.228 33.9103 145.478C34.6088 146.963 35.3936 148.406 36.2607 149.8C36.4429 150.126 36.691 150.426 36.9913 150.857C38.6493 147.554 40.2163 144.447 41.9526 141C43.6631 148.39 45.295 155.413 47.0181 162.79C48.8853 160.14 50.5433 157.79 52.2276 155.401C53.9896 156.797 55.6216 158.103 57.3581 159.487C59.0161 155.466 60.5831 151.667 62.3322 147.437C63.1546 150.883 63.8596 153.912 64.617 156.915C65.7918 161.628 66.5231 166.537 68.3246 171.002C71.5793 178.93 73.876 187.218 75.166 195.69C75.871 200.429 76.9152 205.116 77.8817 210.194C79.4874 208.393 80.8975 206.853 82.242 205.26C82.4474 204.926 82.77 204.68 83.1466 204.572C83.5233 204.463 83.927 204.499 84.2788 204.672C85.5454 205.169 86.8899 205.469 88.2604 205.874C90.0364 199.123 91.7723 192.531 93.6134 185.559C95.0107 188.64 96.2378 191.277 97.4254 193.927C97.9394 194.909 98.3381 195.948 98.6138 197.021C99.6451 202.701 100.572 208.393 101.538 214.072C102.217 217.963 102.909 221.841 103.653 226.11C105.468 223.668 107.061 221.501 108.797 219.164C110.533 223.263 112.165 227.089 113.811 230.992C116.839 229.53 120.012 228.446 120.325 224.426C120.501 223.489 120.777 222.574 121.147 221.696C122.336 217.754 123.955 213.863 124.62 209.829C126.187 200.22 127.493 190.572 128.537 180.885C129.098 175.715 130.43 171.093 134.059 167.268C134.476 166.794 134.768 166.225 134.908 165.61C135.6 162.672 136.214 159.722 136.866 156.785C137.728 152.907 138.616 149.042 139.477 145.178H139.83C141.423 154.944 143.029 164.722 144.687 174.84C145.13 174.174 145.405 173.809 145.64 173.417C146.841 171.367 148.16 169.37 149.217 167.229C149.961 165.702 150.81 165.427 152.298 166.119C153.311 166.504 154.349 166.818 155.405 167.059C157.102 161.981 158.813 157.045 160.38 152.071C160.913 150.134 161.336 148.168 161.646 146.183C163.8 135.125 165.785 124.015 170.25 113.571C170.472 113.075 170.719 112.382 171.15 112.187C172.547 111.534 174.048 111.051 175.563 110.476C177.404 115.007 179.167 119.341 181.007 123.858C182.718 122.579 184.219 121.313 185.864 120.281C187.548 119.224 189.376 118.401 191.178 117.461C192.94 119.968 194.585 122.331 196.387 124.916C197.719 121.247 198.932 117.944 200.147 114.615C201.517 110.816 201.517 110.777 205.539 110.986C205.895 111.037 206.259 110.965 206.57 110.782C206.881 110.6 207.12 110.317 207.249 109.98C208.163 108.244 209.325 106.625 210.095 104.836C210.572 103.638 211.336 102.574 212.319 101.739C213.302 100.904 214.475 100.322 215.735 100.045C216.108 99.8784 216.525 99.8378 216.923 99.9296C217.322 100.021 217.679 100.241 217.941 100.554C219.247 101.964 220.657 103.296 222.198 104.849C222.981 101.912 223.673 99.3268 224.365 96.729C225.984 90.5537 227.159 84.1955 231.467 79.104C232.188 78.0714 233.049 77.1442 234.026 76.3489C235.419 75.4514 236.616 74.2825 237.547 72.912C238.478 71.5415 239.123 69.9974 239.444 68.3721C240.045 65.761 241.063 63.2416 241.911 60.6822C242.146 59.9644 242.421 59.2593 242.669 58.5543C245.737 67.9284 248.557 77.2764 253.008 86.1928C254.275 85.8925 255.581 85.475 256.925 85.2921C257.229 85.2729 257.534 85.3203 257.818 85.4308C258.102 85.5413 258.359 85.7123 258.57 85.9321C259.941 87.8769 260.972 90.0966 262.513 91.8855C264.436 93.9131 266.472 95.8309 268.61 97.6298C268.78 96.9636 268.845 96.7813 268.884 96.585C270.464 88.6477 272.057 80.7098 273.571 72.7586C273.754 71.8055 274.133 71.3357 275.007 71.1789C277.54 70.709 280.06 70.1869 282.619 69.8344C283.585 69.7037 284.133 69.508 284.316 68.4243C284.59 66.8186 285.047 65.2261 285.465 63.6458C287.423 56.3614 288.585 48.8805 292.293 42.0914C293.873 39.18 295.505 36.7519 298.612 35.4464C299.226 35.1008 299.687 34.5368 299.904 33.8666C301.406 29.3489 302.829 24.8055 304.265 20.2757C304.317 19.8862 304.506 19.528 304.798 19.2649C305.089 19.0018 305.465 18.851 305.858 18.8394C308.702 18.5253 311.436 17.5603 313.847 16.0192C314.464 15.669 314.97 15.1537 315.31 14.5314C316.798 11.62 318.195 8.66902 319.749 5.45748C320.062 6.20139 320.271 6.65846 320.441 7.14165C321.864 11.0711 323.248 15.0139 324.736 18.9178C324.861 19.202 325.044 19.457 325.273 19.6662C325.503 19.8754 325.773 20.0341 326.068 20.1322C328.922 20.7686 331.892 20.6697 334.697 19.8447C335.199 19.6617 335.61 19.2922 335.846 18.8132C336.839 16.424 337.739 13.983 338.693 11.5804C339.319 9.97458 339.972 8.36874 340.637 6.7368C341.93 7.05053 343.079 7.23278 344.175 7.61152C344.382 7.71993 344.608 7.78398 344.841 7.79957C345.073 7.81515 345.307 7.78192 345.525 7.70201C345.744 7.6221 345.944 7.49728 346.112 7.33557C346.28 7.17386 346.412 6.97884 346.5 6.76304C347.844 4.53054 349.333 2.3765 350.886 0C351.095 0.652778 351.226 1.00528 351.317 1.35778C352.792 6.9325 354.263 12.503 355.73 18.0693C355.821 18.4218 355.86 18.9701 356.082 19.0746C357.779 19.8708 359.516 20.5758 361.304 21.3332C362.989 14.4007 364.608 7.74221 366.331 0.678889C367.923 4.37374 369.333 7.67719 370.77 10.9672C370.897 11.4159 371.13 11.8276 371.449 12.1682C372.597 13.0039 373.786 13.8001 375 14.6097Z" fill="#212121"/>
</svg>
