<svg width="360" height="300" viewBox="0 0 360 300" fill="none" xmlns="http://www.w3.org/2000/svg">
<path fill-rule="evenodd" clip-rule="evenodd" d="M-114 -115.713V425.863H614V75.0835H613.722C612.917 74.976 612.1 75.1694 611.429 75.6265C610.757 76.0835 610.278 76.7722 610.082 77.5607C607.782 83.3741 605.002 89.011 602.929 94.9007C602.799 95.5947 602.531 96.2554 602.14 96.8431C601.749 97.4308 601.243 97.9334 600.653 98.3207C600.062 98.7079 599.4 98.9719 598.705 99.0967C598.01 99.2214 597.297 99.2045 596.609 99.0468C594.675 98.8028 592.711 99.0474 590.896 99.7582C589.082 100.469 587.474 101.624 586.22 103.116C584.373 105.304 582.114 107.107 579.572 108.425C573.531 110.809 568.429 115.095 565.038 120.634C564.101 122.1 563.044 123.487 561.878 124.779C561.412 125.424 560.745 125.895 559.982 126.119C552.853 126.953 548.96 131.377 546.408 137.671C545.055 140.546 543.536 143.34 541.857 146.038C541.504 146.67 541.024 147.251 540.442 148.085C537.232 141.689 534.198 135.674 530.836 129C527.525 143.307 524.365 156.907 521.029 171.19C517.414 166.057 514.203 161.508 510.942 156.882C507.531 159.586 504.371 162.114 501.009 164.794C497.799 157.008 494.765 149.653 491.378 141.462C489.786 148.136 488.421 154 486.954 159.815C484.68 168.94 483.264 178.443 479.776 187.088C473.474 202.438 469.027 218.485 466.53 234.889C465.165 244.064 463.143 253.14 461.272 262.972C458.163 259.484 455.432 256.502 452.829 253.418C452.432 252.771 451.807 252.296 451.078 252.086C450.348 251.875 449.567 251.944 448.886 252.28C446.433 253.241 443.83 253.823 441.177 254.606C437.738 241.537 434.377 228.772 430.812 215.274C428.107 221.239 425.731 226.345 423.432 231.476C422.437 233.378 421.665 235.388 421.131 237.467C419.134 248.463 417.339 259.484 415.468 270.48C414.155 278.013 412.814 285.521 411.374 293.787C407.86 289.06 404.776 284.863 401.415 280.338C398.053 288.276 394.893 295.683 391.707 303.24C385.843 300.409 379.7 298.31 379.094 290.526C378.753 288.713 378.22 286.941 377.502 285.242C375.201 277.608 372.066 270.075 370.778 262.265C367.744 243.661 365.216 224.98 363.194 206.224C362.107 196.214 359.529 187.266 352.502 179.859C351.695 178.942 351.131 177.839 350.859 176.649C349.519 170.961 348.331 165.249 347.067 159.562C345.399 152.054 343.679 144.571 342.012 137.089H341.329C338.245 155.997 335.136 174.931 331.926 194.521C331.067 193.231 330.536 192.524 330.08 191.765C327.755 187.797 325.201 183.929 323.155 179.784C321.713 176.827 320.07 176.296 317.188 177.635C315.227 178.38 313.217 178.988 311.172 179.455C307.887 169.622 304.575 160.066 301.542 150.435C300.509 146.685 299.69 142.879 299.09 139.036C294.919 117.625 291.076 96.1141 282.431 75.8919C282.002 74.9316 281.522 73.5913 280.688 73.2124C277.983 71.9485 275.077 71.0127 272.144 69.9008C268.579 78.6727 265.167 87.0644 261.603 95.8105C258.292 93.3333 255.385 90.8821 252.199 88.8851C248.938 86.8374 245.4 85.2451 241.912 83.4246C238.499 88.2777 235.315 92.8533 231.825 97.8583C229.247 90.755 226.897 84.3601 224.546 77.9136C221.892 70.5587 221.892 70.4821 214.106 70.8868C213.415 70.9859 212.711 70.8473 212.109 70.4937C211.508 70.14 211.044 69.5923 210.795 68.9405C209.025 65.5783 206.776 62.4446 205.284 58.9813C204.36 56.6605 202.882 54.6014 200.978 52.9842C199.075 51.367 196.804 50.241 194.364 49.7046C193.642 49.3816 192.834 49.303 192.063 49.4807C191.292 49.6584 190.6 50.0828 190.092 50.6894C187.564 53.4197 184.834 55.998 181.851 59.0058C180.335 53.3183 178.995 48.3136 177.656 43.2838C174.521 31.3274 172.246 19.0169 163.905 9.15878C162.508 7.15956 160.84 5.36424 158.949 3.8244C156.253 2.08673 153.934 -0.176437 152.132 -2.82999C150.33 -5.48355 149.081 -8.47305 148.459 -11.62C147.297 -16.6756 145.325 -21.5535 143.683 -26.5089C143.227 -27.8987 142.696 -29.2639 142.216 -30.6289C136.276 -12.479 130.815 5.62016 122.197 22.8839C119.744 22.3025 117.216 21.4941 114.613 21.14C114.024 21.1029 113.434 21.1945 112.884 21.4085C112.334 21.6225 111.837 21.9537 111.427 22.3791C108.774 26.1447 106.777 30.4424 103.794 33.906C100.07 37.8318 96.1295 41.545 91.9891 45.028C91.6608 43.738 91.5336 43.3851 91.4583 43.005C88.3999 27.6371 85.3155 12.2679 82.384 -3.12697C82.0297 -4.97226 81.2966 -5.882 79.6033 -6.18559C74.6993 -7.09534 69.8205 -8.1062 64.866 -8.7887C62.995 -9.04173 61.9335 -9.42062 61.5792 -11.5189C61.0486 -14.6278 60.1647 -17.7112 59.355 -20.7709C55.5634 -34.8748 53.3146 -49.359 46.1349 -62.504C43.0764 -68.1409 39.9166 -72.8421 33.9007 -75.3698C32.712 -76.0389 31.8185 -77.1308 31.3978 -78.4284C28.4911 -87.1756 25.736 -95.9722 22.9552 -104.743C22.8544 -105.497 22.489 -106.191 21.924 -106.7C21.3589 -107.209 20.6312 -107.501 19.8708 -107.524C14.3636 -108.132 9.0705 -110 4.40186 -112.984C3.20844 -113.662 2.22784 -114.66 1.5705 -115.865C-1.31171 -121.502 -4.01593 -127.215 -7.02374 -133.433C-7.63116 -131.993 -8.03461 -131.108 -8.3642 -130.173C-11.1193 -122.564 -13.7987 -114.931 -16.6806 -107.372C-16.9221 -106.822 -17.2764 -106.328 -17.7205 -105.923C-18.1647 -105.518 -18.6888 -105.21 -19.2592 -105.021C-24.7858 -103.788 -30.5349 -103.98 -35.9673 -105.577C-36.9383 -105.932 -37.735 -106.647 -38.1915 -107.574C-40.1133 -112.2 -41.8573 -116.926 -43.7026 -121.578C-44.9159 -124.688 -46.1797 -127.797 -47.4681 -130.956C-49.9714 -130.349 -52.1956 -129.996 -54.3184 -129.263C-54.7178 -129.053 -55.1567 -128.929 -55.6069 -128.899C-56.057 -128.869 -56.5085 -128.933 -56.9323 -129.088C-57.3561 -129.242 -57.7429 -129.484 -58.0677 -129.797C-58.3926 -130.11 -58.6484 -130.488 -58.8187 -130.906C-61.4218 -135.228 -64.3036 -139.399 -67.3114 -144C-67.7164 -142.736 -67.9694 -142.054 -68.1459 -141.371C-71.002 -130.578 -73.8499 -119.792 -76.6896 -109.015C-76.866 -108.332 -76.9425 -107.271 -77.372 -107.068C-80.6576 -105.527 -84.0198 -104.162 -87.4831 -102.695C-90.7442 -116.118 -93.8792 -129.01 -97.2153 -142.686C-100.298 -135.532 -103.029 -129.136 -105.81 -122.766C-106.056 -121.897 -106.507 -121.1 -107.124 -120.44C-109.348 -118.822 -111.649 -117.281 -114 -115.713Z" fill="#212121"/>
</svg>
