<svg width="48" height="48" viewBox="0 0 48 48" fill="none" xmlns="http://www.w3.org/2000/svg">
<path d="M34.8048 19.17V16.8C34.8048 14.1528 32.652 12 30.0048 12H18.0048C15.3576 12 13.2048 14.1528 13.2048 16.8V19.1976L13.1136 19.2024C12.811 19.2242 12.5278 19.3599 12.3212 19.5821C12.1146 19.8043 11.9998 20.0966 12 20.4V22.8C12 23.1183 12.1264 23.4235 12.3515 23.6485C12.5765 23.8736 12.8817 24 13.2 24H13.2048V31.2C13.2048 32.082 13.6884 32.8464 14.4 33.264V34.8C14.4 35.1183 14.5264 35.4235 14.7515 35.6485C14.9765 35.8736 15.2817 36 15.6 36H16.8C17.1183 36 17.4235 35.8736 17.6485 35.6485C17.8736 35.4235 18 35.1183 18 34.8V33.6H30V34.8C30 35.1183 30.1264 35.4235 30.3515 35.6485C30.5765 35.8736 30.8817 36 31.2 36H32.4C32.7183 36 33.0235 35.8736 33.2485 35.6485C33.4736 35.4235 33.6 35.1183 33.6 34.8V33.2688C33.9648 33.0601 34.2682 32.7591 34.4797 32.3959C34.6912 32.0327 34.8034 31.6203 34.8048 31.2V24C35.1231 24 35.4283 23.8736 35.6533 23.6485C35.8784 23.4235 36.0048 23.1183 36.0048 22.8V20.4744C36.0186 20.2882 35.989 20.1013 35.9184 19.9284C35.6748 19.344 35.1564 19.2036 34.8048 19.17ZM32.4072 31.2H15.6048V25.2H32.406L32.4072 31.2ZM22.8048 18V22.8H15.6048V18H22.8048ZM32.4048 18V22.8H25.2048V18H32.4048ZM18.0048 14.4H30.0048C30.888 14.4 31.6548 14.886 32.0712 15.6H15.9384C16.3548 14.886 17.1216 14.4 18.0048 14.4Z" fill="black"/>
<path d="M18.5998 29.9999C19.5939 29.9999 20.3998 29.194 20.3998 28.1999C20.3998 27.2058 19.5939 26.3999 18.5998 26.3999C17.6057 26.3999 16.7998 27.2058 16.7998 28.1999C16.7998 29.194 17.6057 29.9999 18.5998 29.9999Z" fill="black"/>
<path d="M29.4001 29.9999C30.3942 29.9999 31.2001 29.194 31.2001 28.1999C31.2001 27.2058 30.3942 26.3999 29.4001 26.3999C28.406 26.3999 27.6001 27.2058 27.6001 28.1999C27.6001 29.194 28.406 29.9999 29.4001 29.9999Z" fill="black"/>
</svg>
