<svg width="48" height="48" viewBox="0 0 48 48" fill="none" xmlns="http://www.w3.org/2000/svg">
<path d="M35.1712 18.4125C33.0338 14.1488 28.7537 11.5 24 11.5C17.1075 11.5 11.5 17.1075 11.5 24C11.5 30.8925 17.1075 36.5 24 36.5C28.7537 36.5 33.0338 33.8512 35.1712 29.5875C35.3145 29.3018 35.3429 28.9722 35.2506 28.6662C35.1583 28.3603 34.9523 28.1013 34.675 27.9425L27.7712 24L34.6737 20.0588C35.25 19.7288 35.4688 19.0063 35.1712 18.4125ZM24.63 22.915C24.4385 23.0241 24.2793 23.182 24.1685 23.3725C24.0578 23.5631 23.9994 23.7796 23.9994 24C23.9994 24.2204 24.0578 24.4369 24.1685 24.6275C24.2793 24.818 24.4385 24.9759 24.63 25.085L32.3463 29.4912C31.4413 30.879 30.2036 32.0185 28.7459 32.806C27.2882 33.5934 25.6568 34.0039 24 34C18.4863 34 14 29.5138 14 24C14 18.4863 18.4863 14 24 14C25.6566 13.9961 27.288 14.4064 28.7457 15.1936C30.2033 15.9809 31.441 17.12 32.3463 18.5075L24.63 22.915Z" fill="black"/>
<path d="M23.375 20.25C24.4105 20.25 25.25 19.4105 25.25 18.375C25.25 17.3395 24.4105 16.5 23.375 16.5C22.3395 16.5 21.5 17.3395 21.5 18.375C21.5 19.4105 22.3395 20.25 23.375 20.25Z" fill="black"/>
</svg>
