<svg width="48" height="48" viewBox="0 0 48 48" fill="none" xmlns="http://www.w3.org/2000/svg">
<path d="M11.3687 21.5369V20.2737C11.3687 17.979 12.4739 16.1316 14.6844 14.7316C16.895 13.3316 20.0002 12.6316 24.0002 12.6316C28.0002 12.6316 31.1055 13.3316 33.316 14.7316C35.5265 16.1316 36.6318 17.979 36.6318 20.2737V21.5369H11.3687ZM13.3265 19.6421H34.6739C34.6108 18.1895 33.595 16.9737 31.6265 15.9947C29.6581 15.0158 27.116 14.5263 24.0002 14.5263C20.8844 14.5263 18.3318 15.0158 16.3423 15.9947C14.3529 16.9737 13.3476 18.1895 13.3265 19.6421ZM11.3687 27.0947V25.2C12.0634 25.2 12.6687 24.9684 13.1844 24.5053C13.7002 24.0421 14.5265 23.8105 15.6634 23.8105C16.8002 23.8105 17.5529 24.0421 17.9213 24.5053C18.2897 24.9684 18.9055 25.2 19.7687 25.2C20.6318 25.2 21.2687 24.9684 21.6792 24.5053C22.0897 24.0421 22.8634 23.8105 24.0002 23.8105C25.1371 23.8105 25.9108 24.0421 26.3213 24.5053C26.7318 24.9684 27.3687 25.2 28.2318 25.2C29.095 25.2 29.7108 24.9684 30.0792 24.5053C30.4476 24.0421 31.2002 23.8105 32.3371 23.8105C33.4739 23.8105 34.3002 24.0421 34.816 24.5053C35.3318 24.9684 35.9371 25.2 36.6318 25.2V27.0947C35.495 27.0947 34.7108 26.8632 34.2792 26.4C33.8476 25.9369 33.2002 25.7053 32.3371 25.7053C31.4739 25.7053 30.8581 25.9369 30.4897 26.4C30.1213 26.8632 29.3687 27.0947 28.2318 27.0947C27.095 27.0947 26.3213 26.8632 25.9108 26.4C25.5002 25.9369 24.8634 25.7053 24.0002 25.7053C23.1371 25.7053 22.5002 25.9369 22.0897 26.4C21.6792 26.8632 20.9055 27.0947 19.7687 27.0947C18.6318 27.0947 17.8792 26.8632 17.5108 26.4C17.1423 25.9369 16.5265 25.7053 15.6634 25.7053C14.8002 25.7053 14.1544 25.9369 13.7258 26.4C13.2972 26.8632 12.5115 27.0947 11.3687 27.0947ZM13.2634 35.3684C12.7581 35.3684 12.316 35.179 11.9371 34.8C11.5581 34.4211 11.3687 33.979 11.3687 33.4737V29.4316H36.6318V33.4737C36.6318 33.979 36.4423 34.4211 36.0634 34.8C35.6844 35.179 35.2423 35.3684 34.7371 35.3684H13.2634ZM13.2634 33.4737H34.7371V31.3263H13.2634V33.4737Z" fill="white"/>
</svg>
