<svg width="48" height="48" viewBox="0 0 48 48" fill="none" xmlns="http://www.w3.org/2000/svg">
<path d="M24.0002 36L11.3687 16.8947C13.1792 15.3789 15.1581 14.1842 17.3055 13.3105C19.4529 12.4368 21.6844 12 24.0002 12C26.316 12 28.5476 12.4368 30.695 13.3105C32.8423 14.1842 34.8213 15.3789 36.6318 16.8947L24.0002 36ZM24.0002 32.6211L34.1371 17.3368C32.6213 16.3474 31.0089 15.5263 29.3001 14.8737C27.5912 14.2211 25.8246 13.8947 24.0002 13.8947C22.1678 13.8947 20.3992 14.2211 18.6943 14.8737C16.9895 15.5263 15.3792 16.3474 13.8634 17.3368L24.0002 32.6211ZM20.5284 20.6842C21.0114 20.6842 21.4213 20.5152 21.7581 20.1771C22.095 19.839 22.2634 19.4285 22.2634 18.9455C22.2634 18.4625 22.0943 18.0526 21.7563 17.7158C21.4182 17.3789 21.0077 17.2105 20.5247 17.2105C20.0417 17.2105 19.6318 17.3796 19.295 17.7177C18.9581 18.0557 18.7897 18.4663 18.7897 18.9492C18.7897 19.4322 18.9587 19.8421 19.2968 20.1789C19.6349 20.5158 20.0454 20.6842 20.5284 20.6842ZM24.0021 27.4737C24.4851 27.4737 24.895 27.3046 25.2318 26.9666C25.5687 26.6285 25.7371 26.2179 25.7371 25.735C25.7371 25.252 25.568 24.8421 25.2299 24.5053C24.8919 24.1684 24.4813 24 23.9984 24C23.5154 24 23.1055 24.169 22.7687 24.5071C22.4318 24.8452 22.2634 25.2557 22.2634 25.7387C22.2634 26.2217 22.4324 26.6316 22.7705 26.9684C23.1086 27.3053 23.5191 27.4737 24.0021 27.4737Z" fill="white"/>
</svg>
