<svg width="48" height="48" viewBox="0 0 48 48" fill="none" xmlns="http://www.w3.org/2000/svg">
<path d="M18.8146 36.6C18.1875 36.6 17.6529 36.3767 17.2108 35.9301C16.7687 35.4835 16.5476 34.9467 16.5476 34.3196C16.5476 33.6925 16.7709 33.1579 17.2175 32.7158C17.664 32.2737 18.2009 32.0526 18.828 32.0526C19.4551 32.0526 19.9897 32.2759 20.4318 32.7225C20.8739 33.1691 21.095 33.7059 21.095 34.333C21.095 34.9601 20.8717 35.4947 20.4251 35.9368C19.9785 36.3789 19.4417 36.6 18.8146 36.6ZM31.4462 36.6C30.8191 36.6 30.2844 36.3767 29.8423 35.9301C29.4002 35.4835 29.1792 34.9467 29.1792 34.3196C29.1792 33.6925 29.4025 33.1579 29.849 32.7158C30.2956 32.2737 30.8325 32.0526 31.4596 32.0526C32.0867 32.0526 32.6213 32.2759 33.0634 32.7225C33.5055 33.1691 33.7265 33.7059 33.7265 34.333C33.7265 34.9601 33.5033 35.4947 33.0567 35.9368C32.6101 36.3789 32.0733 36.6 31.4462 36.6ZM17.1792 15.7579L20.6529 22.9579H29.7476L33.695 15.7579H17.1792ZM16.2318 13.8631H34.8341C35.3176 13.8631 35.6854 14.0842 35.9377 14.5263C36.1899 14.9684 36.1897 15.4105 35.9371 15.8526L31.6739 23.5263C31.4423 23.9263 31.1417 24.2474 30.7721 24.4895C30.4024 24.7316 29.9977 24.8526 29.5581 24.8526H19.9897L18.2213 28.1368H33.7265V30.0316H18.5055C17.6213 30.0316 16.9844 29.7368 16.595 29.1474C16.2055 28.5579 16.2108 27.8947 16.6108 27.1579L18.6318 23.4316L13.8318 13.2631H11.3687V11.3684H15.0634L16.2318 13.8631Z" fill="white"/>
</svg>
