<svg width="48" height="48" viewBox="0 0 48 48" fill="none" xmlns="http://www.w3.org/2000/svg">
<path d="M13.2634 31.0421V34.1053H34.7371V31.0421H13.2634ZM18.095 17.0526V13.8947C18.095 13.3895 18.2844 12.9474 18.6634 12.5684C19.0423 12.1895 19.4844 12 19.9897 12H27.9792C28.4844 12 28.9265 12.1895 29.3055 12.5684C29.6844 12.9474 29.8739 13.3895 29.8739 13.8947V17.0526H34.7371C35.2423 17.0526 35.6844 17.2421 36.0634 17.6211C36.4423 18 36.6318 18.4421 36.6318 18.9474V34.1053C36.6318 34.6105 36.4423 35.0526 36.0634 35.4316C35.6844 35.8105 35.2423 36 34.7371 36H13.2634C12.7581 36 12.316 35.8105 11.9371 35.4316C11.5581 35.0526 11.3687 34.6105 11.3687 34.1053V18.9474C11.3687 18.4421 11.5581 18 11.9371 17.6211C12.316 17.2421 12.7581 17.0526 13.2634 17.0526H18.095ZM13.2634 27.6316H34.7371V18.9474H29.8739V21.3158H27.9792V18.9474H19.9897V21.3158H18.095V18.9474H13.2634V27.6316ZM19.9897 17.0526H27.9792V13.8947H19.9897V17.0526Z" fill="white"/>
</svg>
