<svg width="48" height="48" viewBox="0 0 48 48" fill="none" xmlns="http://www.w3.org/2000/svg">
<path d="M32.8 17.5H31.4701C31.6314 16.9652 31.709 16.4086 31.7 15.85C31.7 13.727 29.973 12 27.85 12C26.0658 12 24.8745 13.6302 24.1056 15.3935C23.3477 13.727 22.0959 12 20.15 12C18.027 12 16.3 13.727 16.3 15.85C16.3 16.5056 16.3869 17.0479 16.5299 17.5H15.2C13.9867 17.5 13 18.4867 13 19.7V21.9C13 23.1133 13.9867 24.1 15.2 24.1V31.8C15.2 33.0133 16.1867 34 17.4 34H30.6C31.8133 34 32.8 33.0133 32.8 31.8V24.1C34.0133 24.1 35 23.1133 35 21.9V19.7C35 18.4867 34.0133 17.5 32.8 17.5ZM27.85 14.2C28.7597 14.2 29.5 14.9403 29.5 15.85C29.5 17.5 28.8114 17.5 28.4 17.5H25.6742C26.2363 15.7664 27.0525 14.2 27.85 14.2ZM18.5 15.85C18.5 14.9403 19.2403 14.2 20.15 14.2C21.1268 14.2 22.0354 15.8775 22.5678 17.5H19.6C19.1886 17.5 18.5 17.5 18.5 15.85ZM15.2 19.7H22.9V21.9H15.2V19.7ZM17.4 31.8V24.1H22.9V31.8H17.4ZM30.6 31.8H25.1V24.1H30.6V31.8ZM25.1 21.9V19.7935L25.1187 19.7H32.8L32.8011 21.9H25.1Z" fill="white"/>
</svg>
