<svg width="76" height="76" viewBox="0 0 76 76" fill="none" xmlns="http://www.w3.org/2000/svg">
<path d="M21 49.15V54H55V49.15H21ZM28.65 27V22C28.65 21.2 28.95 20.5 29.55 19.9C30.15 19.3 30.85 19 31.65 19H44.3C45.1 19 45.8 19.3 46.4 19.9C47 20.5 47.3 21.2 47.3 22V27H55C55.8 27 56.5 27.3 57.1 27.9C57.7 28.5 58 29.2 58 30V54C58 54.8 57.7 55.5 57.1 56.1C56.5 56.7 55.8 57 55 57H21C20.2 57 19.5 56.7 18.9 56.1C18.3 55.5 18 54.8 18 54V30C18 29.2 18.3 28.5 18.9 27.9C19.5 27.3 20.2 27 21 27H28.65ZM21 43.75H55V30H47.3V33.75H44.3V30H31.65V33.75H28.65V30H21V43.75ZM31.65 27H44.3V22H31.65V27Z" fill="white"/>
</svg>
