<svg width="360" height="761" viewBox="0 0 360 761" fill="none" xmlns="http://www.w3.org/2000/svg">
<g style="mix-blend-mode:overlay" opacity="0.4">
<path d="M-3.15161 669.731H18.4865C18.555 669.416 18.6245 669.103 18.6931 668.788H-3.26801C-3.22874 669.103 -3.19068 669.416 -3.15161 669.731ZM149.513 726.879H149.791C149.911 726.544 150.027 726.221 150.131 725.936H149.431C149.459 726.252 149.486 726.562 149.513 726.879ZM503 38.5755V37.632H473.432V-13.9877H472.931V37.632H441.593V-13.9877H441.092V37.632H409.413V-13.9877H408.912V37.632H377.574V-13.9877H377.073V37.632H345.734V-13.9877H345.234V37.632H313.896V-13.9877H313.395V37.632H282.057V-13.9877H281.556V37.632H250.217V-13.9877H249.716V37.632H218.379V-13.9877H217.878V37.632H186.542V-13.9877H186.041V37.632H154.702V-13.9877H154.201V37.632H122.864V-13.9877H122.363V37.632H91.0254V-13.9877H90.5245V37.632H58.8446V-13.9877H58.3438V37.632H27.0063V-13.9877H26.5054V37.632H-4.83313V-13.9877H-5.33399V37.632H-36.6705V-13.9877H-37.1714V37.632H-68.5099V-13.9877H-69.0108V37.632H-74V38.5755H-69.0108V95.0601H-74V96.0036H-69.0108V152.208H-74V153.152H-69.0108V209.638H-74V210.582H-69.0108V267.064H-74V268.008H-69.0108V324.494H-74V325.437H-69.0108V381.922H-74V382.865H-69.0108V439.07H-74V440.013H-69.0108V496.5H-74V497.443H-69.0108V553.929H-70.665C-70.5975 554.245 -70.5262 554.558 -70.4577 554.873H-69.0108V561.356C-68.8435 562.082 -68.6765 562.808 -68.5099 563.534V554.873H-37.1714V611.358H-37.4316C-37.1676 611.936 -36.9209 612.557 -36.6705 613.169V612.301H-5.33399V652.041C-5.1667 653.397 -4.99975 654.752 -4.83313 656.106V612.301H26.5054V668.788H25.7873C25.8284 669.103 25.8695 669.417 25.9106 669.731H26.5054V674.251C26.5689 674.728 26.6306 675.211 26.6941 675.687C26.8027 676.507 26.9025 677.332 27.0063 678.156V669.731H58.3438V725.936H34.3402C34.4019 726.249 34.4586 726.565 34.5193 726.879H58.3438V783.363H42.4959C42.5234 783.678 42.5526 783.992 42.579 784.307H58.3438V814.638C58.5111 814.739 58.6763 814.85 58.8446 814.946V784.307H67.5756C67.6196 783.993 67.6635 783.676 67.7076 783.363H58.8446V726.879H90.5245V783.363H77.2085C77.2838 783.676 77.3591 783.992 77.4373 784.307H90.5245V840.793H83.3431L83.3529 840.906C83.3784 841.182 83.4048 841.46 83.4302 841.737H90.5245V865.716C90.6908 865.29 90.8591 864.864 91.0254 864.441V841.737H117.099C117.149 841.423 117.194 841.108 117.243 840.793H91.0254V784.307H122.255C122.277 783.992 122.297 783.678 122.32 783.363H91.0254V726.879H122.363V782.724C122.535 780.277 122.698 777.826 122.864 775.377V726.879H126.724C126.778 726.564 126.833 726.249 126.888 725.936H122.864V669.731H138.232C138.269 669.416 138.308 669.103 138.345 668.788H122.864V612.301H154.201V668.788H144.46L144.542 669.731H154.201V713.427C154.371 712.887 154.536 712.345 154.702 711.802V669.731H172.252C172.306 669.416 172.362 669.103 172.415 668.788H154.702V612.301H179.021C179.057 611.986 179.09 611.673 179.125 611.358H154.702V554.873H186.041V563.77C186.209 562.885 186.368 561.995 186.542 561.113V554.873H187.853C187.92 554.56 187.984 554.243 188.052 553.929H186.542V497.443H217.878V553.929H199.643C199.71 554.243 199.779 554.56 199.847 554.873H217.878V564.536C218.045 564.378 218.212 564.219 218.379 564.061V554.873H234.391C234.452 554.56 234.513 554.243 234.575 553.929H218.379V497.443H249.716V526.015C249.788 525.723 249.874 525.441 249.941 525.147C250.027 524.776 250.127 524.448 250.217 524.094V497.443H272.418C272.46 497.128 272.504 496.815 272.546 496.5H250.217V440.013H281.556V453.729C281.722 453.31 281.883 452.886 282.057 452.472V440.013H288.631C288.825 439.705 289.013 439.389 289.198 439.07H282.057V382.865H313.395V439.07H308.482C308.545 439.383 308.604 439.7 308.666 440.013H313.395V461.734C313.555 462.398 313.734 463.055 313.896 463.72V440.013H345.234V452.909C345.402 451.293 345.569 449.676 345.734 448.059V440.013H346.566C346.597 439.698 346.63 439.385 346.663 439.07H345.734V382.865H368.663C368.704 382.55 368.746 382.237 368.788 381.922H345.734V325.437H377.073V340.454C377.236 339.927 377.407 339.42 377.574 338.906V325.437H384.836C385.147 325.143 385.444 324.829 385.776 324.566C385.797 324.549 385.816 324.512 385.837 324.494H377.574V268.008H408.912V268.671C408.993 268.583 409.077 268.499 409.157 268.409C409.243 268.315 409.327 268.19 409.413 268.085V268.008H409.475C409.703 267.72 409.922 267.405 410.128 267.064H409.413V210.582H441.092V267.064H423.959L424.144 268.008H441.092V279.493L441.153 279.467C441.306 279.372 441.454 279.245 441.593 279.09V268.008H444.708C444.773 267.693 444.842 267.379 444.907 267.064H441.593V210.582H472.931V267.064H472.409C472.453 267.377 472.497 267.695 472.541 268.008H472.931V270.79C473.098 271.971 473.262 273.156 473.428 274.335L473.432 274.37V268.008H484.017C484.057 267.693 484.098 267.379 484.138 267.064H473.432V210.582H503V209.638H473.432V153.152H503V152.208H473.432V96.0036H503V95.0601H473.432V38.5755H503ZM-37.1714 553.929H-68.5099V497.443H-37.1714V553.929ZM-37.1714 496.5H-68.5099V440.013H-37.1714V496.5ZM-37.1714 439.07H-68.5099V382.865H-37.1714V439.07ZM-37.1714 381.922H-68.5099V325.437H-37.1714V381.922ZM-37.1714 324.494H-68.5099V268.008H-37.1714V324.494ZM-37.1714 267.064H-68.5099V210.582H-37.1714V267.064ZM-37.1714 209.638H-68.5099V153.152H-37.1714V209.638ZM-37.1714 152.208H-68.5099V96.0036H-37.1714V152.208ZM-37.1714 95.0601H-68.5099V38.5755H-37.1714V95.0601ZM-5.33399 611.358H-36.6705V554.873H-5.33399V611.358ZM-5.33399 553.929H-36.6705V497.443H-5.33399V553.929ZM-5.33399 496.5H-36.6705V440.013H-5.33399V496.5ZM-5.33399 439.07H-36.6705V382.865H-5.33399V439.07ZM-5.33399 381.922H-36.6705V325.437H-5.33399V381.922ZM-5.33399 324.494H-36.6705V268.008H-5.33399V324.494ZM-5.33399 267.064H-36.6705V210.582H-5.33399V267.064ZM-5.33399 209.638H-36.6705V153.152H-5.33399V209.638ZM-5.33399 152.208H-36.6705V96.0036H-5.33399V152.208ZM-5.33399 95.0601H-36.6705V38.5755H-5.33399V95.0601ZM26.5054 611.358H-4.83313V554.873H26.5054V611.358ZM26.5054 553.929H-4.83313V497.443H26.5054V553.929ZM26.5054 496.5H-4.83313V440.013H26.5054V496.5ZM26.5054 439.07H-4.83313V382.865H26.5054V439.07ZM26.5054 381.922H-4.83313V325.437H26.5054V381.922ZM26.5054 324.494H-4.83313V268.008H26.5054V324.494ZM26.5054 267.064H-4.83313V210.582H26.5054V267.064ZM26.5054 209.638H-4.83313V153.152H26.5054V209.638ZM26.5054 152.208H-4.83313V96.0036H26.5054V152.208ZM26.5054 95.0601H-4.83313V38.5755H26.5054V95.0601ZM58.3438 668.788H27.0063V612.301H58.3438V668.788ZM58.3438 611.358H27.0063V554.873H58.3438V611.358ZM58.3438 553.929H27.0063V497.443H58.3438V553.929ZM58.3438 496.5H27.0063V440.013H58.3438V496.5ZM58.3438 439.07H27.0063V382.865H58.3438V439.07ZM58.3438 381.922H27.0063V325.437H58.3438V381.922ZM58.3438 324.494H27.0063V268.008H58.3438V324.494ZM58.3438 267.064H27.0063V210.582H58.3438V267.064ZM58.3438 209.638H27.0063V153.152H58.3438V209.638ZM58.3438 152.208H27.0063V96.0036H58.3438V152.208ZM58.3438 95.0601H27.0063V38.5755H58.3438V95.0601ZM90.5245 725.936H58.8446V669.731H90.5245V725.936ZM90.5245 668.788H58.8446V612.301H90.5245V668.788ZM90.5245 611.358H58.8446V554.873H90.5245V611.358ZM90.5245 553.929H58.8446V497.443H90.5245V553.929ZM90.5245 496.5H58.8446V440.013H90.5245V496.5ZM90.5245 439.07H58.8446V382.865H90.5245V439.07ZM90.5245 381.922H58.8446V325.437H90.5245V381.922ZM90.5245 324.494H58.8446V268.008H90.5245V324.494ZM90.5245 267.064H58.8446V210.582H90.5245V267.064ZM90.5245 209.638H58.8446V153.152H90.5245V209.638ZM90.5245 152.208H58.8446V96.0036H90.5245V152.208ZM90.5245 95.0601H58.8446V38.5755H90.5245V95.0601ZM122.363 725.936H91.0254V669.731H122.363V725.936ZM122.363 668.788H91.0254V612.301H122.363V668.788ZM122.363 611.358H91.0254V554.873H122.363V611.358ZM122.363 553.929H91.0254V497.443H122.363V553.929ZM122.363 496.5H91.0254V440.013H122.363V496.5ZM122.363 439.07H91.0254V382.865H122.363V439.07ZM122.363 381.922H91.0254V325.437H122.363V381.922ZM122.363 324.494H91.0254V268.008H122.363V324.494ZM122.363 267.064H91.0254V210.582H122.363V267.064ZM122.363 209.638H91.0254V153.152H122.363V209.638ZM122.363 152.208H91.0254V96.0036H122.363V152.208ZM122.363 95.0601H91.0254V38.5755H122.363V95.0601ZM154.201 611.358H122.864V554.873H154.201V611.358ZM154.201 553.929H122.864V497.443H154.201V553.929ZM154.201 496.5H122.864V440.013H154.201V496.5ZM154.201 439.07H122.864V382.865H154.201V439.07ZM154.201 381.922H122.864V325.437H154.201V381.922ZM154.201 324.494H122.864V268.008H154.201V324.494ZM154.201 267.064H122.864V210.582H154.201V267.064ZM154.201 209.638H122.864V153.152H154.201V209.638ZM154.201 152.208H122.864V96.0036H154.201V152.208ZM154.201 95.0601H122.864V38.5755H154.201V95.0601ZM186.041 553.929H154.702V497.443H186.041V553.929ZM186.041 496.5H154.702V440.013H186.041V496.5ZM186.041 439.07H154.702V382.865H186.041V439.07ZM186.041 381.922H154.702V325.437H186.041V381.922ZM186.041 324.494H154.702V268.008H186.041V324.494ZM186.041 267.064H154.702V210.582H186.041V267.064ZM186.041 209.638H154.702V153.152H186.041V209.638ZM186.041 152.208H154.702V96.0036H186.041V152.208ZM186.041 95.0601H154.702V38.5755H186.041V95.0601ZM217.878 496.5H186.542V440.013H217.878V496.5ZM217.878 439.07H186.542V382.865H217.878V439.07ZM217.878 381.922H186.542V325.437H217.878V381.922ZM217.878 324.494H186.542V268.008H217.878V324.494ZM217.878 267.064H186.542V210.582H217.878V267.064ZM217.878 209.638H186.542V153.152H217.878V209.638ZM217.878 152.208H186.542V96.0036H217.878V152.208ZM217.878 95.0601H186.542V38.5755H217.878V95.0601ZM249.716 496.5H218.379V440.013H249.716V496.5ZM249.716 439.07H218.379V382.865H249.716V439.07ZM249.716 381.922H218.379V325.437H249.716V381.922ZM249.716 324.494H218.379V268.008H249.716V324.494ZM249.716 267.064H218.379V210.582H249.716V267.064ZM249.716 209.638H218.379V153.152H249.716V209.638ZM249.716 152.208H218.379V96.0036H249.716V152.208ZM249.716 95.0601H218.379V38.5755H249.716V95.0601ZM281.556 439.07H250.217V382.865H281.556V439.07ZM281.556 381.922H250.217V325.437H281.556V381.922ZM281.556 324.494H250.217V268.008H281.556V324.494ZM281.556 267.064H250.217V210.582H281.556V267.064ZM281.556 209.638H250.217V153.152H281.556V209.638ZM281.556 152.208H250.217V96.0036H281.556V152.208ZM281.556 95.0601H250.217V38.5755H281.556V95.0601ZM313.395 381.922H282.057V325.437H313.395V381.922ZM313.395 324.494H282.057V268.008H313.395V324.494ZM313.395 267.064H282.057V210.582H313.395V267.064ZM313.395 209.638H282.057V153.152H313.395V209.638ZM313.395 152.208H282.057V96.0036H313.395V152.208ZM313.395 95.0601H282.057V38.5755H313.395V95.0601ZM345.234 439.07H313.896V382.865H345.234V439.07ZM345.234 381.922H313.896V325.437H345.234V381.922ZM345.234 324.494H313.896V268.008H345.234V324.494ZM345.234 267.064H313.896V210.582H345.234V267.064ZM345.234 209.638H313.896V153.152H345.234V209.638ZM345.234 152.208H313.896V96.0036H345.234V152.208ZM345.234 95.0601H313.896V38.5755H345.234V95.0601ZM377.073 324.494H345.734V268.008H377.073V324.494ZM377.073 267.064H345.734V210.582H377.073V267.064ZM377.073 209.638H345.734V153.152H377.073V209.638ZM377.073 152.208H345.734V96.0036H377.073V152.208ZM377.073 95.0601H345.734V38.5755H377.073V95.0601ZM408.912 267.064H377.574V210.582H408.912V267.064ZM408.912 209.638H377.574V153.152H408.912V209.638ZM408.912 152.208H377.574V96.0036H408.912V152.208ZM408.912 95.0601H377.574V38.5755H408.912V95.0601ZM441.092 209.638H409.413V153.152H441.092V209.638ZM441.092 152.208H409.413V96.0036H441.092V152.208ZM441.092 95.0601H409.413V38.5755H441.092V95.0601ZM472.931 209.638H441.593V153.152H472.931V209.638ZM472.931 152.208H441.593V96.0036H472.931V152.208ZM472.931 95.0601H441.593V38.5755H472.931V95.0601ZM335.652 497.443H340.563L340.663 496.5H335.087C335.272 496.813 335.465 497.13 335.652 497.443Z" fill="black"/>
</g>
</svg>
