<svg width="360" height="292" viewBox="0 0 360 292" fill="none" xmlns="http://www.w3.org/2000/svg">
<g style="mix-blend-mode:overlay" opacity="0.4">
<path d="M26.6062 254.144H41.7566C41.8046 254.027 41.8532 253.91 41.9012 253.793H26.5246C26.5521 253.91 26.5788 254.027 26.6062 254.144ZM133.498 275.386H133.693C133.776 275.262 133.858 275.142 133.93 275.036H133.441C133.46 275.153 133.479 275.268 133.498 275.386ZM381 19.5382V19.1875H360.297V0H359.947V19.1875H338.004V0H337.654V19.1875H315.473V0H315.122V19.1875H293.18V0H292.829V19.1875H270.887V0H270.536V19.1875H248.594V0H248.244V19.1875H226.301V0H225.951V19.1875H204.008V0H203.658V19.1875H181.716V0H181.365V19.1875H159.424V0H159.074V19.1875H137.131V0H136.78V19.1875H114.839V0H114.488V19.1875H92.5464V0H92.1957V19.1875H70.0143V0H69.6636V19.1875H47.7219V0H47.3712V19.1875H25.4288V0H25.0781V19.1875H3.13712V0H2.78642V19.1875H-19.156V0H-19.5067V19.1875H-23V19.5382H-19.5067V40.534H-23V40.8847H-19.5067V61.7764H-23V62.1271H-19.5067V83.1236H-23V83.4743H-19.5067V104.469H-23V104.82H-19.5067V125.816H-23V126.167H-19.5067V147.163H-23V147.514H-19.5067V168.405H-23V168.756H-19.5067V189.752H-23V190.103H-19.5067V211.1H-20.6649C-20.6177 211.217 -20.5677 211.333 -20.5197 211.45H-19.5067V213.86C-19.3895 214.13 -19.2726 214.4 -19.156 214.67V211.45H2.78642V232.446H2.6042C2.78909 232.661 2.96177 232.892 3.13712 233.119V232.797H25.0781V247.568C25.1952 248.073 25.3121 248.576 25.4288 249.079V232.797H47.3712V253.793H46.8684C46.8972 253.91 46.9259 254.027 46.9547 254.144H47.3712V255.824C47.4157 256.001 47.4589 256.181 47.5033 256.358C47.5794 256.662 47.6492 256.969 47.7219 257.275V254.144H69.6636V275.036H52.8569C52.9001 275.152 52.9398 275.27 52.9823 275.386H69.6636V296.382H58.5673C58.5865 296.499 58.607 296.616 58.6255 296.733H69.6636V308.007C69.7807 308.045 69.8964 308.086 70.0143 308.121V296.733H76.1274C76.1583 296.616 76.189 296.498 76.2199 296.382H70.0143V275.386H92.1957V296.382H82.8721C82.9249 296.498 82.9776 296.616 83.0323 296.733H92.1957V317.729H87.1674L87.1743 317.771C87.1921 317.874 87.2106 317.977 87.2285 318.08H92.1957V326.993C92.3121 326.835 92.43 326.677 92.5464 326.519V318.08H110.802C110.837 317.963 110.869 317.846 110.903 317.729H92.5464V296.733H114.413C114.428 296.616 114.442 296.499 114.458 296.382H92.5464V275.386H114.488V296.144C114.609 295.235 114.722 294.324 114.839 293.413V275.386H117.542C117.579 275.269 117.618 275.152 117.657 275.036H114.839V254.144H125.599C125.625 254.027 125.652 253.91 125.678 253.793H114.839V232.797H136.78V253.793H129.96L130.017 254.144H136.78V270.386C136.899 270.185 137.015 269.984 137.131 269.782V254.144H149.419C149.457 254.027 149.496 253.91 149.534 253.793H137.131V232.797H154.158C154.184 232.68 154.207 232.563 154.232 232.446H137.131V211.45H159.074V214.757C159.191 214.428 159.303 214.098 159.424 213.77V211.45H160.343C160.389 211.334 160.435 211.216 160.482 211.1H159.424V190.103H181.365V211.1H168.598C168.644 211.216 168.693 211.334 168.74 211.45H181.365V215.042C181.482 214.983 181.599 214.924 181.716 214.865V211.45H192.927C192.97 211.334 193.013 211.216 193.056 211.1H181.716V190.103H203.658V200.723C203.708 200.615 203.768 200.51 203.815 200.401C203.875 200.263 203.945 200.141 204.008 200.01V190.103H219.552C219.582 189.986 219.613 189.87 219.642 189.752H204.008V168.756H225.951V173.854C226.067 173.699 226.18 173.541 226.301 173.387V168.756H230.905C231.041 168.642 231.172 168.524 231.301 168.405H226.301V147.514H248.244V168.405H244.804C244.848 168.522 244.889 168.64 244.933 168.756H248.244V176.83C248.356 177.077 248.481 177.321 248.594 177.568V168.756H270.536V173.549C270.654 172.949 270.771 172.348 270.887 171.746V168.756H271.469C271.491 168.639 271.514 168.522 271.537 168.405H270.887V147.514H286.941C286.969 147.396 286.999 147.28 287.028 147.163H270.887V126.167H292.829V131.749C292.944 131.553 293.063 131.365 293.18 131.173V126.167H298.265C298.483 126.058 298.69 125.941 298.923 125.843C298.938 125.837 298.951 125.823 298.966 125.816H293.18V104.82H315.122V105.067C315.179 105.034 315.237 105.003 315.293 104.969C315.354 104.934 315.413 104.888 315.473 104.849V104.82H315.516C315.676 104.713 315.829 104.596 315.974 104.469H315.473V83.4743H337.654V104.469H325.657L325.787 104.82H337.654V109.089L337.696 109.08C337.804 109.044 337.907 108.997 338.004 108.939V104.82H340.185C340.231 104.703 340.279 104.586 340.325 104.469H338.004V83.4743H359.947V104.469H359.581C359.612 104.586 359.643 104.704 359.673 104.82H359.947V105.854C360.063 106.293 360.178 106.734 360.295 107.172L360.297 107.185V104.82H367.709C367.737 104.703 367.766 104.586 367.794 104.469H360.297V83.4743H381V83.1236H360.297V62.1271H381V61.7764H360.297V40.8847H381V40.534H360.297V19.5382H381ZM2.78642 211.1H-19.156V190.103H2.78642V211.1ZM2.78642 189.752H-19.156V168.756H2.78642V189.752ZM2.78642 168.405H-19.156V147.514H2.78642V168.405ZM2.78642 147.163H-19.156V126.167H2.78642V147.163ZM2.78642 125.816H-19.156V104.82H2.78642V125.816ZM2.78642 104.469H-19.156V83.4743H2.78642V104.469ZM2.78642 83.1236H-19.156V62.1271H2.78642V83.1236ZM2.78642 61.7764H-19.156V40.8847H2.78642V61.7764ZM2.78642 40.534H-19.156V19.5382H2.78642V40.534ZM25.0781 232.446H3.13712V211.45H25.0781V232.446ZM25.0781 211.1H3.13712V190.103H25.0781V211.1ZM25.0781 189.752H3.13712V168.756H25.0781V189.752ZM25.0781 168.405H3.13712V147.514H25.0781V168.405ZM25.0781 147.163H3.13712V126.167H25.0781V147.163ZM25.0781 125.816H3.13712V104.82H25.0781V125.816ZM25.0781 104.469H3.13712V83.4743H25.0781V104.469ZM25.0781 83.1236H3.13712V62.1271H25.0781V83.1236ZM25.0781 61.7764H3.13712V40.8847H25.0781V61.7764ZM25.0781 40.534H3.13712V19.5382H25.0781V40.534ZM47.3712 232.446H25.4288V211.45H47.3712V232.446ZM47.3712 211.1H25.4288V190.103H47.3712V211.1ZM47.3712 189.752H25.4288V168.756H47.3712V189.752ZM47.3712 168.405H25.4288V147.514H47.3712V168.405ZM47.3712 147.163H25.4288V126.167H47.3712V147.163ZM47.3712 125.816H25.4288V104.82H47.3712V125.816ZM47.3712 104.469H25.4288V83.4743H47.3712V104.469ZM47.3712 83.1236H25.4288V62.1271H47.3712V83.1236ZM47.3712 61.7764H25.4288V40.8847H47.3712V61.7764ZM47.3712 40.534H25.4288V19.5382H47.3712V40.534ZM69.6636 253.793H47.7219V232.797H69.6636V253.793ZM69.6636 232.446H47.7219V211.45H69.6636V232.446ZM69.6636 211.1H47.7219V190.103H69.6636V211.1ZM69.6636 189.752H47.7219V168.756H69.6636V189.752ZM69.6636 168.405H47.7219V147.514H69.6636V168.405ZM69.6636 147.163H47.7219V126.167H69.6636V147.163ZM69.6636 125.816H47.7219V104.82H69.6636V125.816ZM69.6636 104.469H47.7219V83.4743H69.6636V104.469ZM69.6636 83.1236H47.7219V62.1271H69.6636V83.1236ZM69.6636 61.7764H47.7219V40.8847H69.6636V61.7764ZM69.6636 40.534H47.7219V19.5382H69.6636V40.534ZM92.1957 275.036H70.0143V254.144H92.1957V275.036ZM92.1957 253.793H70.0143V232.797H92.1957V253.793ZM92.1957 232.446H70.0143V211.45H92.1957V232.446ZM92.1957 211.1H70.0143V190.103H92.1957V211.1ZM92.1957 189.752H70.0143V168.756H92.1957V189.752ZM92.1957 168.405H70.0143V147.514H92.1957V168.405ZM92.1957 147.163H70.0143V126.167H92.1957V147.163ZM92.1957 125.816H70.0143V104.82H92.1957V125.816ZM92.1957 104.469H70.0143V83.4743H92.1957V104.469ZM92.1957 83.1236H70.0143V62.1271H92.1957V83.1236ZM92.1957 61.7764H70.0143V40.8847H92.1957V61.7764ZM92.1957 40.534H70.0143V19.5382H92.1957V40.534ZM114.488 275.036H92.5464V254.144H114.488V275.036ZM114.488 253.793H92.5464V232.797H114.488V253.793ZM114.488 232.446H92.5464V211.45H114.488V232.446ZM114.488 211.1H92.5464V190.103H114.488V211.1ZM114.488 189.752H92.5464V168.756H114.488V189.752ZM114.488 168.405H92.5464V147.514H114.488V168.405ZM114.488 147.163H92.5464V126.167H114.488V147.163ZM114.488 125.816H92.5464V104.82H114.488V125.816ZM114.488 104.469H92.5464V83.4743H114.488V104.469ZM114.488 83.1236H92.5464V62.1271H114.488V83.1236ZM114.488 61.7764H92.5464V40.8847H114.488V61.7764ZM114.488 40.534H92.5464V19.5382H114.488V40.534ZM136.78 232.446H114.839V211.45H136.78V232.446ZM136.78 211.1H114.839V190.103H136.78V211.1ZM136.78 189.752H114.839V168.756H136.78V189.752ZM136.78 168.405H114.839V147.514H136.78V168.405ZM136.78 147.163H114.839V126.167H136.78V147.163ZM136.78 125.816H114.839V104.82H136.78V125.816ZM136.78 104.469H114.839V83.4743H136.78V104.469ZM136.78 83.1236H114.839V62.1271H136.78V83.1236ZM136.78 61.7764H114.839V40.8847H136.78V61.7764ZM136.78 40.534H114.839V19.5382H136.78V40.534ZM159.074 211.1H137.131V190.103H159.074V211.1ZM159.074 189.752H137.131V168.756H159.074V189.752ZM159.074 168.405H137.131V147.514H159.074V168.405ZM159.074 147.163H137.131V126.167H159.074V147.163ZM159.074 125.816H137.131V104.82H159.074V125.816ZM159.074 104.469H137.131V83.4743H159.074V104.469ZM159.074 83.1236H137.131V62.1271H159.074V83.1236ZM159.074 61.7764H137.131V40.8847H159.074V61.7764ZM159.074 40.534H137.131V19.5382H159.074V40.534ZM181.365 189.752H159.424V168.756H181.365V189.752ZM181.365 168.405H159.424V147.514H181.365V168.405ZM181.365 147.163H159.424V126.167H181.365V147.163ZM181.365 125.816H159.424V104.82H181.365V125.816ZM181.365 104.469H159.424V83.4743H181.365V104.469ZM181.365 83.1236H159.424V62.1271H181.365V83.1236ZM181.365 61.7764H159.424V40.8847H181.365V61.7764ZM181.365 40.534H159.424V19.5382H181.365V40.534ZM203.658 189.752H181.716V168.756H203.658V189.752ZM203.658 168.405H181.716V147.514H203.658V168.405ZM203.658 147.163H181.716V126.167H203.658V147.163ZM203.658 125.816H181.716V104.82H203.658V125.816ZM203.658 104.469H181.716V83.4743H203.658V104.469ZM203.658 83.1236H181.716V62.1271H203.658V83.1236ZM203.658 61.7764H181.716V40.8847H203.658V61.7764ZM203.658 40.534H181.716V19.5382H203.658V40.534ZM225.951 168.405H204.008V147.514H225.951V168.405ZM225.951 147.163H204.008V126.167H225.951V147.163ZM225.951 125.816H204.008V104.82H225.951V125.816ZM225.951 104.469H204.008V83.4743H225.951V104.469ZM225.951 83.1236H204.008V62.1271H225.951V83.1236ZM225.951 61.7764H204.008V40.8847H225.951V61.7764ZM225.951 40.534H204.008V19.5382H225.951V40.534ZM248.244 147.163H226.301V126.167H248.244V147.163ZM248.244 125.816H226.301V104.82H248.244V125.816ZM248.244 104.469H226.301V83.4743H248.244V104.469ZM248.244 83.1236H226.301V62.1271H248.244V83.1236ZM248.244 61.7764H226.301V40.8847H248.244V61.7764ZM248.244 40.534H226.301V19.5382H248.244V40.534ZM270.536 168.405H248.594V147.514H270.536V168.405ZM270.536 147.163H248.594V126.167H270.536V147.163ZM270.536 125.816H248.594V104.82H270.536V125.816ZM270.536 104.469H248.594V83.4743H270.536V104.469ZM270.536 83.1236H248.594V62.1271H270.536V83.1236ZM270.536 61.7764H248.594V40.8847H270.536V61.7764ZM270.536 40.534H248.594V19.5382H270.536V40.534ZM292.829 125.816H270.887V104.82H292.829V125.816ZM292.829 104.469H270.887V83.4743H292.829V104.469ZM292.829 83.1236H270.887V62.1271H292.829V83.1236ZM292.829 61.7764H270.887V40.8847H292.829V61.7764ZM292.829 40.534H270.887V19.5382H292.829V40.534ZM315.122 104.469H293.18V83.4743H315.122V104.469ZM315.122 83.1236H293.18V62.1271H315.122V83.1236ZM315.122 61.7764H293.18V40.8847H315.122V61.7764ZM315.122 40.534H293.18V19.5382H315.122V40.534ZM337.654 83.1236H315.473V62.1271H337.654V83.1236ZM337.654 61.7764H315.473V40.8847H337.654V61.7764ZM337.654 40.534H315.473V19.5382H337.654V40.534ZM359.947 83.1236H338.004V62.1271H359.947V83.1236ZM359.947 61.7764H338.004V40.8847H359.947V61.7764ZM359.947 40.534H338.004V19.5382H359.947V40.534ZM263.828 190.103H267.266L267.336 189.752H263.432C263.561 189.869 263.696 189.987 263.828 190.103Z" fill="black"/>
</g>
</svg>
