<svg width="48" height="48" viewBox="0 0 48 48" fill="none" xmlns="http://www.w3.org/2000/svg">
<path d="M29.6668 23.2083C30.0328 23.2083 30.3396 23.0845 30.5871 22.8369C30.8347 22.5893 30.9585 22.2826 30.9585 21.9166C30.9585 21.5506 30.8347 21.2438 30.5871 20.9963C30.3396 20.7487 30.0328 20.6249 29.6668 20.6249C29.3009 20.6249 28.9941 20.7487 28.7465 20.9963C28.4989 21.2438 28.3752 21.5506 28.3752 21.9166C28.3752 22.2826 28.4989 22.5893 28.7465 22.8369C28.9941 23.0845 29.3009 23.2083 29.6668 23.2083ZM19.3335 19.9791H25.7918V18.0416H19.3335V19.9791ZM14.8127 36.1249C14.0807 33.6708 13.3595 31.222 12.6491 28.7786C11.9387 26.3352 11.5835 23.8326 11.5835 21.2708C11.5835 19.2902 12.2724 17.611 13.6502 16.2333C15.0279 14.8555 16.7071 14.1666 18.6877 14.1666H25.146C25.7703 13.3485 26.5292 12.7135 27.4226 12.2614C28.316 11.8093 29.2793 11.5833 30.3127 11.5833C30.8509 11.5833 31.3083 11.7716 31.6851 12.1484C32.0618 12.5251 32.2502 12.9826 32.2502 13.5208C32.2502 13.6499 32.234 13.7791 32.2017 13.9083C32.1694 14.0374 32.1318 14.1558 32.0887 14.2635C32.0026 14.5003 31.9219 14.7425 31.8465 14.99C31.7712 15.2376 31.712 15.4905 31.6689 15.7489L34.6075 18.6874H37.4168V27.6968L33.7679 28.8916L31.6043 36.1249H24.5002V33.5416H21.9168V36.1249H14.8127ZM16.2658 34.1874H19.9793V31.6041H26.4377V34.1874H30.1512L32.1856 27.4062L35.4793 26.276V20.6249H33.8002L29.6668 16.4916C29.6884 15.9534 29.7583 15.4313 29.8767 14.9254C29.9951 14.4195 30.1189 13.9083 30.2481 13.3916C29.43 13.6069 28.655 13.9244 27.9231 14.3442C27.1911 14.764 26.6314 15.3506 26.2439 16.1041H18.6877C17.2607 16.1041 16.0428 16.6084 15.0341 17.6172C14.0254 18.6259 13.521 19.8438 13.521 21.2708C13.521 23.4915 13.8331 25.6613 14.4575 27.7801C15.0818 29.8989 15.6845 32.0346 16.2658 34.1874Z" fill="white"/>
</svg>
