<svg width="48" height="48" viewBox="0 0 48 48" fill="none" xmlns="http://www.w3.org/2000/svg">
<path d="M12.2998 25.3001H13.5998V34.4C13.5998 35.8339 14.7659 37 16.1998 37H31.8002C33.2341 37 34.4002 35.8339 34.4002 34.4V25.3001H35.7002C35.9573 25.3001 36.2086 25.2238 36.4224 25.0809C36.6361 24.9381 36.8027 24.7351 36.9011 24.4976C36.9994 24.2601 37.0252 23.9987 36.975 23.7466C36.9249 23.4945 36.8011 23.2628 36.6194 23.081L24.9191 11.3812C24.7985 11.2603 24.6552 11.1645 24.4975 11.0991C24.3398 11.0337 24.1707 11 24 11C23.8293 11 23.6602 11.0337 23.5025 11.0991C23.3448 11.1645 23.2015 11.2603 23.0809 11.3812L11.3806 23.081C11.1989 23.2628 11.0751 23.4945 11.025 23.7466C10.9748 23.9987 11.0006 24.2601 11.0989 24.4976C11.1973 24.7351 11.3639 24.9381 11.5776 25.0809C11.7914 25.2238 12.0427 25.3001 12.2998 25.3001ZM21.3999 34.4V27.9001H26.6001V34.4H21.3999ZM24 14.1384L31.8002 21.9384V27.9001L31.8015 34.4H29.2001V27.9001C29.2001 26.4662 28.034 25.3001 26.6001 25.3001H21.3999C19.966 25.3001 18.7999 26.4662 18.7999 27.9001V34.4H16.1998V21.9384L24 14.1384Z" fill="white"/>
</svg>
