<svg width="48" height="48" viewBox="0 0 48 48" fill="none" xmlns="http://www.w3.org/2000/svg">
<path d="M24 13C20.1402 13 17 16.0841 17 19.875H19.8C19.8 17.6007 21.6844 15.75 24 15.75C26.3156 15.75 28.2 17.6007 28.2 19.875C28.2 21.3449 27.5644 21.8894 26.1266 22.9756C25.5918 23.3799 24.9884 23.8364 24.4102 24.4029C22.5734 26.2055 22.593 27.9834 22.6 28.125V30.875H25.4V28.1126C25.4 28.0796 25.4322 27.2862 26.3898 26.3471C26.8378 25.9071 27.3446 25.5249 27.8332 25.155C29.3172 24.033 31 22.7625 31 19.875C31 16.0841 27.8598 13 24 13ZM22.6 32.25H25.4V35H22.6V32.25Z" fill="white"/>
</svg>
