<svg width="48" height="48" viewBox="0 0 48 48" fill="none" xmlns="http://www.w3.org/2000/svg">
<path d="M35.1247 14H11.8747C11.5321 14 11.2036 14.1361 10.9613 14.3783C10.7191 14.6206 10.583 14.9491 10.583 15.2917V33.375C10.583 33.7176 10.7191 34.0461 10.9613 34.2883C11.2036 34.5306 11.5321 34.6667 11.8747 34.6667H35.1247C35.4672 34.6667 35.7958 34.5306 36.038 34.2883C36.2803 34.0461 36.4163 33.7176 36.4163 33.375V15.2917C36.4163 14.9491 36.2803 14.6206 36.038 14.3783C35.7958 14.1361 35.4672 14 35.1247 14ZM33.833 28.2083C32.8053 28.2083 31.8197 28.6166 31.093 29.3433C30.3663 30.07 29.958 31.0556 29.958 32.0833H17.0413C17.0413 31.0556 16.6331 30.07 15.9064 29.3433C15.1797 28.6166 14.1941 28.2083 13.1663 28.2083V20.4583C14.1941 20.4583 15.1797 20.0501 15.9064 19.3234C16.6331 18.5967 17.0413 17.611 17.0413 16.5833H29.958C29.958 17.611 30.3663 18.5967 31.093 19.3234C31.8197 20.0501 32.8053 20.4583 33.833 20.4583V28.2083Z" fill="white"/>
<path d="M23.4997 19.1667C20.6503 19.1667 18.333 21.484 18.333 24.3334C18.333 27.1828 20.6503 29.5001 23.4997 29.5001C26.3491 29.5001 28.6663 27.1828 28.6663 24.3334C28.6663 21.484 26.3491 19.1667 23.4997 19.1667ZM23.4997 26.9167C22.075 26.9167 20.9163 25.7581 20.9163 24.3334C20.9163 22.9087 22.075 21.7501 23.4997 21.7501C24.9244 21.7501 26.083 22.9087 26.083 24.3334C26.083 25.7581 24.9244 26.9167 23.4997 26.9167Z" fill="white"/>
</svg>
