<svg width="76" height="76" viewBox="0 0 76 76" fill="none" xmlns="http://www.w3.org/2000/svg">
<path d="M22 58C21.4333 58 20.9583 57.8083 20.575 57.425C20.1917 57.0417 20 56.5667 20 56V45.05C20 44.225 20.2938 43.5188 20.8813 42.9313C21.4688 42.3438 22.175 42.05 23 42.05H24.35V32.95C24.35 32.125 24.6438 31.4188 25.2313 30.8313C25.8188 30.2438 26.525 29.95 27.35 29.95H36.5V26.75C35.8333 26.2833 35.325 25.7744 34.975 25.2233C34.625 24.6722 34.45 24.0075 34.45 23.2294C34.45 22.7431 34.5417 22.275 34.725 21.825C34.9083 21.375 35.1667 20.9833 35.5 20.65L38 18L40.5 20.65C40.8333 20.9833 41.1 21.375 41.3 21.825C41.5 22.275 41.6 22.7431 41.6 23.2294C41.6 24.0075 41.4167 24.6722 41.05 25.2233C40.6833 25.7744 40.1667 26.2833 39.5 26.75V29.95H48.65C49.475 29.95 50.1813 30.2438 50.7688 30.8313C51.3563 31.4188 51.65 32.125 51.65 32.95V42.05H53C53.825 42.05 54.5313 42.3438 55.1188 42.9313C55.7063 43.5188 56 44.225 56 45.05V56C56 56.5667 55.8083 57.0417 55.425 57.425C55.0417 57.8083 54.5667 58 54 58H22ZM27.35 42.05H48.65V32.95H27.35V42.05ZM23 55H53V45.05H23V55Z" fill="black"/>
</svg>
