<svg width="76" height="76" viewBox="0 0 76 76" fill="none" xmlns="http://www.w3.org/2000/svg">
<path d="M24 49.8V52.5C24 52.925 23.8563 53.2813 23.5688 53.5688C23.2813 53.8563 22.925 54 22.5 54H21.5C21.075 54 20.7188 53.8563 20.4313 53.5688C20.1438 53.2813 20 52.925 20 52.5V36.3L24.25 23.5C24.4167 23.0333 24.6917 22.6667 25.075 22.4C25.4583 22.1333 25.9 22 26.4 22H49.6C50.1 22 50.5417 22.1333 50.925 22.4C51.3083 22.6667 51.5833 23.0333 51.75 23.5L56 36.3V52.5C56 52.925 55.8563 53.2813 55.5688 53.5688C55.2813 53.8563 54.925 54 54.5 54H53.45C53.0167 54 52.6667 53.8563 52.4 53.5688C52.1333 53.2813 52 52.925 52 52.5V49.8H24ZM24.15 33.3H51.85L49.1 25H26.9L24.15 33.3ZM28.2883 44.3C29.0628 44.3 29.7083 44.0375 30.225 43.5125C30.7417 42.9875 31 42.35 31 41.6C31 40.8222 30.7375 40.1611 30.2125 39.6167C29.6875 39.0722 29.05 38.8 28.3 38.8C27.5222 38.8 26.8611 39.0711 26.3166 39.6133C25.7722 40.1554 25.5 40.8137 25.5 41.5883C25.5 42.3628 25.7711 43.0083 26.3133 43.525C26.8554 44.0417 27.5137 44.3 28.2883 44.3ZM47.75 44.3C48.5278 44.3 49.1889 44.0375 49.7334 43.5125C50.2778 42.9875 50.55 42.35 50.55 41.6C50.55 40.8222 50.2789 40.1611 49.7367 39.6167C49.1946 39.0722 48.5363 38.8 47.7617 38.8C46.9872 38.8 46.3417 39.0711 45.825 39.6133C45.3083 40.1554 45.05 40.8137 45.05 41.5883C45.05 42.3628 45.3125 43.0083 45.8375 43.525C46.3625 44.0417 47 44.3 47.75 44.3ZM23 46.8H53V36.3H23V46.8Z" fill="black"/>
</svg>
