<svg width="76" height="76" viewBox="0 0 76 76" fill="none" xmlns="http://www.w3.org/2000/svg">
<path d="M42.9261 42.9045C42.367 41.3205 41.2178 40.047 39.4784 39.0841C37.739 38.1212 35.3008 37.6398 32.1636 37.6398C29.0265 37.6398 26.5883 38.1212 24.8489 39.0841C23.1095 40.047 21.9447 41.3205 21.3545 42.9045H42.9261ZM18 45.7C18 44.2091 18.2718 42.8036 18.8153 41.4835C19.3589 40.1634 20.2131 39.0142 21.3778 38.0358C22.5426 37.0574 24.018 36.2809 25.804 35.7063C27.59 35.1316 29.7176 34.8443 32.1869 34.8443C34.6563 34.8443 36.7761 35.1316 38.5466 35.7063C40.317 36.2809 41.7847 37.0574 42.9494 38.0358C44.1142 39.0142 44.9684 40.1634 45.5119 41.4835C46.0555 42.8036 46.3273 44.2091 46.3273 45.7H18ZM18 51.6636V48.8682H46.3273V51.6636H18ZM49.1227 58V55.2045H53.1295L55.7852 28.1818H37.242L36.9159 25.3864H46.467V17H49.2625V25.3864H59L55.8784 55.2045C55.7852 56.0121 55.4513 56.6799 54.8767 57.208C54.3021 57.736 53.5799 58 52.7102 58H49.1227ZM19.3977 58C19.025 58 18.6989 57.8602 18.4193 57.5807C18.1398 57.3011 18 56.975 18 56.6023V55.2045H46.3273V56.6023C46.3273 56.975 46.1875 57.3011 45.908 57.5807C45.6284 57.8602 45.3023 58 44.9295 58H19.3977Z" fill="black"/>
</svg>
