<svg width="76" height="76" viewBox="0 0 76 76" fill="none" xmlns="http://www.w3.org/2000/svg">
<path d="M18 54V49.5H22.3V25C22.3 24.175 22.5938 23.4688 23.1813 22.8813C23.7688 22.2938 24.475 22 25.3 22H56.3V25H25.3V49.5H37V54H18ZM41.95 54C41.3975 54 40.9344 53.775 40.5607 53.325C40.1869 52.875 40 52.3667 40 51.8V29.95C40 29.3975 40.1869 28.9344 40.5607 28.5607C40.9344 28.1869 41.3975 28 41.95 28H55.5375C56.1792 28 56.75 28.175 57.25 28.525C57.75 28.875 58 29.35 58 29.95V51.8137C58 52.4331 57.7583 52.9524 57.275 53.3714C56.7917 53.7905 56.2167 54 55.55 54H41.95ZM43 49.5H55V31H43V49.5Z" fill="black"/>
</svg>
