<svg width="76" height="76" viewBox="0 0 76 76" fill="none" xmlns="http://www.w3.org/2000/svg">
<path d="M46 38C46.5667 38 47.0417 37.8083 47.425 37.425C47.8083 37.0417 48 36.5667 48 36C48 35.4333 47.8083 34.9583 47.425 34.575C47.0417 34.1917 46.5667 34 46 34C45.4333 34 44.9583 34.1917 44.575 34.575C44.1917 34.9583 44 35.4333 44 36C44 36.5667 44.1917 37.0417 44.575 37.425C44.9583 37.8083 45.4333 38 46 38ZM30 33H40V30H30V33ZM23 58C21.8667 54.2 20.75 50.4083 19.65 46.625C18.55 42.8417 18 38.9667 18 35C18 31.9333 19.0667 29.3333 21.2 27.2C23.3333 25.0667 25.9333 24 29 24H39C39.9667 22.7333 41.1417 21.75 42.525 21.05C43.9083 20.35 45.4 20 47 20C47.8333 20 48.5417 20.2917 49.125 20.875C49.7083 21.4583 50 22.1667 50 23C50 23.2 49.975 23.4 49.925 23.6C49.875 23.8 49.8167 23.9833 49.75 24.15C49.6167 24.5167 49.4917 24.8917 49.375 25.275C49.2583 25.6583 49.1667 26.05 49.1 26.45L53.65 31H58V44.95L52.35 46.8L49 58H38V54H34V58H23ZM25.25 55H31V51H41V55H46.75L49.9 44.5L55 42.75V34H52.4L46 27.6C46.0333 26.7667 46.1417 25.9583 46.325 25.175C46.5083 24.3917 46.7 23.6 46.9 22.8C45.6333 23.1333 44.4333 23.625 43.3 24.275C42.1667 24.925 41.3 25.8333 40.7 27H29C26.7905 27 24.9047 27.7809 23.3428 29.3428C21.7809 30.9047 21 32.7905 21 35C21 38.4386 21.4833 41.7982 22.45 45.0789C23.4167 48.3596 24.35 51.6667 25.25 55Z" fill="black"/>
</svg>
