<svg width="48" height="48" viewBox="0 0 48 48" fill="none" xmlns="http://www.w3.org/2000/svg">
<path d="M33.5 17.0526H29.75V14.5263C29.75 13.1331 28.6287 12 27.25 12H19.75C18.3713 12 17.25 13.1331 17.25 14.5263V17.0526H13.5C12.1212 17.0526 11 18.1857 11 19.5789V33.4737C11 34.8669 12.1212 36 13.5 36H33.5C34.8787 36 36 34.8669 36 33.4737V19.5789C36 18.1857 34.8787 17.0526 33.5 17.0526ZM28.5 19.5789V33.4737H18.5V19.5789H28.5ZM27.25 14.5263V17.0526H19.75V14.5263H27.25ZM13.5 19.5789H16V33.4737H13.5V19.5789ZM31 33.4737V19.5789H33.5L33.5012 33.4737H31Z" fill="black"/>
</svg>
