<svg width="74" height="67" viewBox="0 0 74 67" fill="none" xmlns="http://www.w3.org/2000/svg">
<g clip-path="url(#clip0_1199_2282)">
<path d="M45.1323 27.9445C37.4183 41.9047 33.2834 53.5979 33.2834 53.5979C24.3584 37.5769 8.79639 31.5513 8.79639 31.5513C21.8479 31.0682 31.3171 38.0272 31.3171 38.0272C40.1389 21.7426 54.2685 5.55085 64.4273 0C64.4273 0 52.5198 14.5752 45.1323 27.9445Z" fill="#03B263"/>
<path d="M14.6331 0.928223C10.1105 4.32171 6.43461 8.72344 3.89526 13.7865C1.35591 18.8495 0.0224558 24.4355 0 30.1042C0.00266335 31.9927 0.136653 33.8787 0.400992 35.7484C0.687329 37.6172 1.10946 39.4624 1.664 41.2692C3.35696 46.7179 6.29317 51.6946 10.239 55.8034C11.5438 57.1652 12.9477 58.4279 14.4388 59.5809C17.4114 61.8651 20.8213 63.8621 24.3995 65.0224C35.4407 68.603 47.3429 67.3372 57.1813 61.0978C58.772 60.0393 60.2845 58.8669 61.7072 57.5899C63.1211 56.3002 64.4374 54.9065 65.6452 53.4205C66.8572 51.9349 67.9485 50.3541 68.9087 48.6932C69.4065 47.8726 69.8327 47.0116 70.2685 46.1565C72.3906 41.9927 73.529 37.0012 73.9174 32.291C74.4472 24.525 72.552 16.7863 68.4956 10.1525L66.4191 11.4504C70.3075 17.6244 72.1819 24.862 71.7813 32.1557C71.4049 39.3856 68.7445 46.6156 64.2148 52.2672C63.0842 53.6974 61.8494 55.0413 60.5204 56.2877C59.1797 57.524 57.7522 58.662 56.2489 59.6927L55.1044 60.4409C46.0996 66.3271 34.8706 66.9642 24.804 63.8637C24.3657 63.7287 23.9416 63.5541 23.5138 63.3893C20.5177 62.2198 17.6896 60.656 15.1036 58.7388C13.6314 57.6337 12.2434 56.42 10.9511 55.1076C7.04085 51.1611 4.19882 46.2776 2.39207 41.0355C1.82469 39.2722 1.38641 37.4696 1.08074 35.6421C0.796329 33.809 0.639537 31.9582 0.611501 30.1032C0.567489 24.4948 1.81909 18.9525 4.26801 13.9116C6.71693 8.87063 10.2965 4.46836 14.7255 1.05047" fill="#03B263"/>
</g>
<defs>
<clipPath id="clip0_1199_2282">
<rect width="74" height="67" fill="white"/>
</clipPath>
</defs>
</svg>
