<svg width="210" height="147" viewBox="0 0 210 147" fill="none" xmlns="http://www.w3.org/2000/svg">
<g filter="url(#filter0_d_1200_2445)">
<path d="M169.106 49.2855L160.028 115.696H173.58L180.32 49.2855H169.106Z" fill="#B7A691"/>
<path d="M82.1966 49.2855L73.1187 115.696H86.6584L93.4104 49.2855H82.1966Z" fill="#B7A691"/>
<path d="M96.3764 49.2855L106.048 124.107H91.6179L84.4268 49.2855H96.3764Z" fill="#B7A691"/>
<path d="M84.5818 49.2855L75.5039 115.696H89.0436L95.7838 49.2855H84.5818Z" fill="#E0CAAA"/>
<path d="M98.9154 49.2855L108.587 124.107H94.1569L86.9658 49.2855H98.9154Z" fill="#FCEED6"/>
<path d="M183.287 49.2855L192.958 125.118H178.528L171.349 49.2855H183.287Z" fill="#B7A691"/>
<path d="M171.492 49.2855L162.414 115.696H175.954L182.706 49.2855H171.492Z" fill="#E0CAAA"/>
<path d="M185.826 49.2855L195.497 125.118H181.067L173.876 49.2855H185.826Z" fill="#FCEED6"/>
<path d="M195.449 32.6295H68.252V51.6293H195.449V32.6295Z" fill="#EFBA43"/>
<path d="M202 32.6295H74.8027V51.6293H202V32.6295Z" fill="#FFDF5A"/>
<mask id="mask0_1200_2445" style="mask-type:luminance" maskUnits="userSpaceOnUse" x="74" y="32" width="128" height="20">
<path d="M202 32.6295H74.8027V51.6293H202V32.6295Z" fill="white"/>
</mask>
<g mask="url(#mask0_1200_2445)">
<path d="M92.7327 58.6251H78.0063L102.072 23.2428H116.786L92.7327 58.6251Z" fill="#442A10"/>
<path d="M65.2614 58.6251H50.5469L74.6003 23.2428H89.3148L65.2614 58.6251Z" fill="#442A10"/>
<path d="M120.192 58.6251H105.477L129.531 23.2428H144.245L120.192 58.6251Z" fill="#442A10"/>
<path d="M147.663 58.6251H132.949L157.002 23.2428H171.717L147.663 58.6251Z" fill="#442A10"/>
<path d="M175.122 58.6251H160.407L184.461 23.2428H199.175L175.122 58.6251Z" fill="#442A10"/>
<path d="M202.593 58.6251H187.878L211.932 23.2428H226.646L202.593 58.6251Z" fill="#442A10"/>
</g>
<path d="M142.36 118.87L142.839 117.35L143.648 116.359L143.169 117.879L142.36 118.87Z" fill="#40474C"/>
<path d="M133.673 117.912L134.168 116.392L134.961 117.383L134.482 118.903L133.673 117.912Z" fill="#40474C"/>
<path d="M145.002 121.099L145.481 119.563L147.43 119.15L146.951 120.67L145.002 121.099Z" fill="#40474C"/>
<path d="M141.997 120.174C141.997 120.174 141.997 120.323 141.964 120.406L141.469 121.925C141.469 121.925 141.502 121.776 141.502 121.71V121.661C141.502 121.661 141.502 121.529 141.469 121.463V121.43C141.436 121.363 141.403 121.297 141.37 121.231C141.37 121.231 141.37 121.215 141.353 121.198C141.304 121.132 141.254 121.083 141.204 121.017C141.204 121.017 141.188 120.984 141.171 120.984C141.105 120.934 141.039 120.868 140.957 120.818C140.858 120.752 140.759 120.703 140.643 120.637C140.626 120.637 140.61 120.62 140.593 120.604C140.494 120.554 140.379 120.521 140.263 120.472C140.23 120.472 140.213 120.455 140.18 120.439C140.048 120.406 139.916 120.373 139.768 120.339C139.371 120.257 138.942 120.224 138.512 120.24C137.439 120.273 136.431 120.62 135.985 121.165C135.903 121.281 135.837 121.38 135.804 121.496L136.283 119.976C136.316 119.861 136.382 119.761 136.481 119.646C136.927 119.101 137.934 118.754 139.008 118.737C139.421 118.737 139.85 118.754 140.247 118.837C140.362 118.87 140.478 118.886 140.577 118.919C140.61 118.919 140.626 118.919 140.643 118.936C140.676 118.936 140.692 118.936 140.725 118.969C140.841 119.002 140.94 119.051 141.056 119.101C141.056 119.101 141.056 119.101 141.072 119.101C141.072 119.101 141.089 119.101 141.105 119.101C141.221 119.15 141.32 119.216 141.419 119.282C141.419 119.282 141.436 119.282 141.452 119.282C141.518 119.332 141.584 119.382 141.634 119.431C141.634 119.431 141.65 119.448 141.667 119.464C141.7 119.497 141.733 119.53 141.766 119.563C141.782 119.596 141.816 119.613 141.832 119.646C141.832 119.646 141.832 119.646 141.849 119.662C141.898 119.728 141.931 119.794 141.948 119.877C141.948 119.877 141.948 119.894 141.948 119.91C141.964 119.976 141.981 120.026 141.981 120.092C141.981 120.092 141.981 120.108 141.981 120.125V120.158L141.997 120.174Z" fill="#40474C"/>
<path d="M132.203 120.042C132.203 120.042 132.203 120.191 132.203 120.274C132.203 120.307 132.203 120.34 132.203 120.356C132.203 120.472 132.236 120.587 132.269 120.686L131.773 122.206C131.74 122.107 131.724 121.991 131.707 121.876V121.843C131.707 121.826 131.707 121.81 131.707 121.777C131.707 121.71 131.707 121.628 131.707 121.545C131.707 121.512 131.707 121.479 131.707 121.463C131.707 121.364 131.74 121.248 131.773 121.149L129.841 120.736L130.336 119.217L132.285 119.613C132.252 119.712 132.236 119.828 132.219 119.927C132.219 119.96 132.219 119.993 132.219 120.026L132.203 120.042Z" fill="#40474C"/>
<path d="M130.32 121.116L131.509 122.586L133.458 122.173C133.458 122.173 133.507 122.206 133.524 122.222C133.623 122.289 133.722 122.355 133.838 122.421C133.887 122.454 133.92 122.47 133.97 122.487C134.069 122.536 134.151 122.586 134.25 122.635C134.3 122.668 134.35 122.685 134.399 122.701C134.564 122.768 134.729 122.85 134.911 122.916L134.564 124.006L136.992 124.518L137.801 123.527C138.264 123.56 138.726 123.577 139.189 123.56C139.42 123.56 139.651 123.544 139.882 123.511L140.675 124.502L142.376 124.138L142.773 122.883C143.334 122.668 143.83 122.421 144.243 122.123L146.192 122.52L147.397 121.033L146.902 122.553L145.696 124.039L143.747 123.643C143.599 123.742 143.45 123.841 143.285 123.924L143.565 123.858L143.087 125.377L140.18 126.005L139.387 125.014C139.156 125.03 138.925 125.047 138.693 125.063C138.231 125.063 137.768 125.063 137.306 125.03L136.497 126.021L133.606 125.427L133.986 124.254C133.986 124.254 133.937 124.221 133.904 124.221C133.887 124.221 133.871 124.221 133.838 124.204C133.805 124.204 133.788 124.171 133.755 124.155C133.656 124.105 133.557 124.056 133.458 123.99C133.425 123.973 133.375 123.94 133.326 123.924C133.21 123.858 133.094 123.791 132.995 123.709C132.995 123.709 132.979 123.709 132.962 123.692L131.013 124.105L129.824 122.635L130.32 121.116Z" fill="#40474C"/>
<path d="M132.269 119.629L130.32 119.233L131.525 117.747L133.474 118.143C133.887 117.846 134.383 117.598 134.944 117.383L134.151 116.392L137.058 115.765L137.851 116.756C138.082 116.756 138.313 116.723 138.545 116.723C139.007 116.723 139.469 116.723 139.932 116.756L140.741 115.765L143.632 116.376L142.822 117.367C143.384 117.581 143.879 117.829 144.276 118.11L146.225 117.697L147.414 119.167L145.465 119.58C145.564 119.927 145.564 120.29 145.465 120.637L147.397 121.033L146.191 122.52L144.243 122.123C143.83 122.421 143.318 122.668 142.773 122.883L143.565 123.874L140.659 124.502L139.866 123.511C139.635 123.527 139.403 123.544 139.172 123.56C138.71 123.56 138.247 123.56 137.785 123.527L136.976 124.518L134.085 123.907L134.895 122.916C134.333 122.701 133.838 122.454 133.425 122.173L131.476 122.586L130.287 121.116L132.236 120.703C132.136 120.356 132.12 119.993 132.236 119.646L132.269 119.629ZM138 121.545C138.412 121.628 138.825 121.661 139.238 121.644C140.328 121.611 141.319 121.281 141.765 120.719C142.376 119.976 141.683 119.101 140.229 118.804C139.816 118.721 139.403 118.688 138.991 118.704C137.917 118.738 136.91 119.084 136.464 119.613C135.852 120.373 136.53 121.231 138.016 121.529" fill="#6C7780"/>
<path d="M44.3018 101.034L45.7221 96.6244L48.0839 93.7341L46.6635 98.1439L44.3018 101.034Z" fill="#40474C"/>
<path d="M19.1646 98.2593L20.5849 93.8661L22.8972 96.7399L21.4768 101.133L19.1646 98.2593Z" fill="#40474C"/>
<path d="M51.9658 107.475L53.3862 103.066L59.0347 101.843L57.6308 106.237L51.9658 107.475Z" fill="#40474C"/>
<path d="M43.2953 104.816C43.2953 105.031 43.2623 105.246 43.1962 105.46L41.7758 109.87C41.8419 109.655 41.8749 109.441 41.8749 109.226C41.8749 109.193 41.8749 109.143 41.8749 109.11C41.8749 108.912 41.8419 108.698 41.7758 108.499C41.7758 108.466 41.7593 108.417 41.7428 108.384C41.6767 108.186 41.5776 107.987 41.4455 107.789C41.4455 107.756 41.4125 107.74 41.3794 107.707C41.2473 107.541 41.0987 107.36 40.9335 107.195C40.9005 107.162 40.8674 107.128 40.8344 107.095C40.6527 106.93 40.438 106.765 40.2233 106.617C39.9591 106.435 39.6453 106.253 39.3149 106.105C39.2654 106.088 39.2324 106.055 39.1828 106.038C39.1828 106.038 39.1498 106.038 39.1333 106.022C38.836 105.89 38.5222 105.774 38.1919 105.659C38.1093 105.626 38.0267 105.593 37.9441 105.576C37.5808 105.46 37.1844 105.361 36.7715 105.262C35.5988 105.014 34.3601 104.932 33.1545 104.965C30.033 105.064 27.1096 106.055 25.8214 107.624C25.5737 107.938 25.392 108.252 25.2764 108.582L26.6967 104.172C26.7958 103.858 26.9775 103.528 27.2253 103.214C28.53 101.629 31.4368 100.654 34.5749 100.555C35.7805 100.522 37.0027 100.621 38.1919 100.852C38.5222 100.918 38.8525 101.001 39.1498 101.084C39.2324 101.1 39.2819 101.133 39.3645 101.15C39.4471 101.183 39.5296 101.199 39.5957 101.232C39.926 101.348 40.2398 101.464 40.5371 101.596C40.5536 101.596 40.5867 101.612 40.6032 101.629C40.6362 101.629 40.6527 101.662 40.6858 101.678C41.0326 101.843 41.3299 102.009 41.6107 102.19C41.6437 102.207 41.6767 102.223 41.7097 102.24C41.9079 102.372 42.0896 102.521 42.2548 102.669C42.2878 102.702 42.3208 102.735 42.3374 102.752C42.4365 102.851 42.5356 102.933 42.6181 103.033C42.6842 103.115 42.7503 103.198 42.7998 103.28C42.7998 103.313 42.8328 103.33 42.8494 103.346C42.9815 103.545 43.0806 103.743 43.1632 103.957C43.1632 103.99 43.1797 104.023 43.1962 104.057C43.2623 104.238 43.2953 104.403 43.3118 104.569C43.3118 104.602 43.3118 104.635 43.3118 104.668C43.3118 104.701 43.3118 104.75 43.3118 104.783L43.2953 104.816Z" fill="#40474C"/>
<path d="M14.8875 104.42C14.871 104.651 14.871 104.866 14.8875 105.097C14.8875 105.179 14.8875 105.262 14.904 105.345C14.937 105.658 15.0031 105.989 15.0857 106.303L13.6653 110.712C13.5662 110.399 13.5167 110.085 13.4836 109.771C13.4836 109.738 13.4836 109.705 13.4671 109.655C13.4671 109.606 13.4671 109.556 13.4671 109.49C13.4671 109.259 13.4671 109.044 13.4671 108.813C13.4671 108.73 13.4671 108.631 13.4836 108.549C13.5167 108.251 13.5827 107.938 13.6818 107.64L8.06641 106.468L9.48678 102.058L15.1022 103.231C15.0031 103.544 14.937 103.842 14.904 104.139C14.904 104.222 14.904 104.321 14.8875 104.42Z" fill="#40474C"/>
<path d="M9.43689 107.508L12.8722 111.786L18.5207 110.564C18.5207 110.564 18.6528 110.646 18.7189 110.68C18.9996 110.878 19.2969 111.059 19.6107 111.258C19.7429 111.324 19.875 111.406 20.0071 111.472C20.2714 111.621 20.5521 111.77 20.8329 111.902C20.965 111.968 21.1137 112.034 21.2623 112.1C21.7413 112.315 22.2202 112.529 22.7488 112.711L21.7248 115.866L28.7771 117.335L31.1389 114.445C32.4767 114.544 33.8145 114.577 35.1522 114.544C35.8294 114.528 36.49 114.478 37.1672 114.429L39.4629 117.286L44.4012 116.229L45.5573 112.595C47.1759 111.984 48.6293 111.258 49.8349 110.415L55.4669 111.588L58.9848 107.277L57.5644 111.687L54.063 115.981L48.4311 114.825C48.0182 115.122 47.5557 115.387 47.0933 115.651L47.8861 115.469L46.4657 119.879L38.0425 121.696L35.7468 118.822C35.0862 118.888 34.409 118.921 33.7319 118.937C32.4106 118.971 31.0563 118.937 29.7185 118.838L27.3567 121.729L18.9666 119.995L20.0567 116.592C20.0567 116.592 19.908 116.526 19.8254 116.477C19.7759 116.46 19.7098 116.427 19.6603 116.411C19.5777 116.378 19.5116 116.328 19.429 116.295C19.1318 116.146 18.8345 115.998 18.5537 115.832C18.4381 115.766 18.3225 115.7 18.1904 115.634C17.8435 115.436 17.5132 115.221 17.2159 115.007C17.1829 114.99 17.1498 114.974 17.1168 114.941C17.1168 114.941 17.1003 114.941 17.0838 114.924L11.4353 116.146L8 111.869L9.42037 107.459L9.43689 107.508Z" fill="#40474C"/>
<path d="M15.1176 103.231L9.50218 102.058L13.0201 97.7641L18.652 98.9202C19.8742 98.0779 21.2946 97.3347 22.9131 96.7401L20.6009 93.8663L29.0075 92.0495L31.3033 94.9068C31.9639 94.8573 32.641 94.8242 33.3182 94.7912C34.6395 94.7582 35.9938 94.7912 37.3316 94.8903L39.6934 92L48.0835 93.7342L45.7217 96.6245C47.3733 97.2356 48.7937 97.9623 49.9498 98.7715L55.5982 97.5494L59.0501 101.827L53.4016 103.049C53.6989 104.057 53.6989 105.097 53.3851 106.121L59.0005 107.294L55.4826 111.604L49.8507 110.432C48.645 111.274 47.1916 112.017 45.573 112.612L47.9018 115.486L39.4787 117.302L37.1829 114.445C36.5223 114.495 35.8451 114.544 35.168 114.561C33.8467 114.594 32.4924 114.561 31.1546 114.462L28.7928 117.352L20.4027 115.618L22.7645 112.728C21.1129 112.116 19.6925 111.39 18.5364 110.58L12.888 111.803L9.45264 107.525L15.1011 106.303C14.8038 105.295 14.7873 104.271 15.1341 103.231H15.1176ZM31.7162 108.78C32.9053 109.028 34.1275 109.127 35.3332 109.094C38.4547 108.995 41.3615 108.004 42.6497 106.418C44.4334 104.238 42.435 101.744 38.1739 100.869C36.9847 100.621 35.7626 100.522 34.5569 100.572C31.4354 100.671 28.5121 101.662 27.2073 103.231C25.4236 105.411 27.422 107.905 31.6996 108.797" fill="#6C7780"/>
<path d="M76.6924 128.449L77.3861 126.285L78.5587 124.865L77.8485 127.029L76.6924 128.449Z" fill="#40474C"/>
<path d="M64.3062 127.095L64.9998 124.915L66.1394 126.335L65.4458 128.515L64.3062 127.095Z" fill="#40474C"/>
<path d="M80.4751 131.62L81.1688 129.457L83.9434 128.845L83.2498 131.026L80.4751 131.62Z" fill="#40474C"/>
<path d="M76.1975 130.316C76.1975 130.415 76.1975 130.53 76.148 130.629L75.4378 132.793C75.4708 132.694 75.4873 132.578 75.4873 132.479C75.4873 132.463 75.4873 132.446 75.4873 132.413C75.4873 132.314 75.4708 132.215 75.4378 132.116C75.4378 132.099 75.4378 132.083 75.4213 132.05C75.3882 131.951 75.3387 131.852 75.2726 131.752C75.2726 131.752 75.2561 131.719 75.2396 131.719C75.1735 131.637 75.1075 131.554 75.0249 131.472C75.0084 131.472 74.9918 131.439 74.9753 131.422C74.8927 131.34 74.7771 131.257 74.6615 131.191C74.5294 131.092 74.3808 131.009 74.2156 130.943C74.1991 130.943 74.1826 130.91 74.1495 130.91C74.1495 130.91 74.1495 130.91 74.133 130.91C73.9844 130.844 73.8357 130.778 73.6706 130.728C73.6375 130.728 73.588 130.695 73.5384 130.695C73.3568 130.629 73.1751 130.58 72.9604 130.547C72.3823 130.431 71.7712 130.382 71.1767 130.398C69.6407 130.448 68.2038 130.927 67.5597 131.703C67.4275 131.868 67.345 132.017 67.2954 132.182L67.9891 130.018C68.0386 129.87 68.1212 129.704 68.2533 129.539C68.8975 128.763 70.3343 128.268 71.8703 128.218C72.4649 128.218 73.076 128.251 73.6541 128.367C73.8192 128.4 73.9844 128.433 74.133 128.482C74.166 128.482 74.1991 128.499 74.2321 128.515C74.2651 128.515 74.3147 128.548 74.3477 128.548C74.5129 128.614 74.6615 128.664 74.8102 128.73C74.8102 128.73 74.8267 128.73 74.8432 128.73C74.8432 128.73 74.8597 128.747 74.8928 128.763C75.0579 128.846 75.2066 128.928 75.3387 129.027C75.3387 129.027 75.3717 129.027 75.3882 129.06C75.4873 129.126 75.5699 129.192 75.6525 129.275C75.6525 129.275 75.6855 129.308 75.702 129.325C75.7516 129.374 75.8011 129.424 75.8342 129.457C75.8672 129.506 75.9002 129.539 75.9167 129.572C75.9167 129.572 75.9333 129.589 75.9498 129.605C76.0158 129.704 76.0654 129.804 76.0984 129.903C76.0984 129.903 76.0984 129.936 76.1149 129.952C76.148 130.035 76.1645 130.117 76.1645 130.2C76.1645 130.2 76.1645 130.233 76.1645 130.249V130.299L76.1975 130.316Z" fill="#40474C"/>
<path d="M62.1919 130.117C62.1919 130.233 62.1919 130.332 62.1919 130.447C62.1919 130.48 62.1919 130.53 62.1919 130.563C62.1919 130.728 62.2415 130.877 62.2745 131.042L61.5808 133.222C61.5313 133.057 61.5148 132.908 61.4817 132.76C61.4817 132.743 61.4817 132.727 61.4817 132.71C61.4817 132.677 61.4817 132.66 61.4817 132.627C61.4817 132.512 61.4817 132.413 61.4817 132.297C61.4817 132.248 61.4817 132.215 61.4817 132.165C61.4983 132.016 61.5313 131.868 61.5808 131.719L58.8062 131.141L59.4998 128.977L62.2745 129.555C62.225 129.704 62.1919 129.853 62.1754 130.001C62.1754 130.051 62.1754 130.084 62.1754 130.134L62.1919 130.117Z" fill="#40474C"/>
<path d="M59.4995 131.653L61.2007 133.767L63.9919 133.173C63.9919 133.173 64.0579 133.222 64.0909 133.239C64.2396 133.338 64.3882 133.42 64.5369 133.52C64.6029 133.553 64.669 133.586 64.7351 133.619C64.8672 133.685 64.9993 133.767 65.148 133.833C65.214 133.866 65.2966 133.899 65.3627 133.932C65.5939 134.032 65.8416 134.131 66.0894 134.23L65.5774 135.799L69.0457 136.525L70.2019 135.105C70.8625 135.155 71.5231 135.171 72.1838 135.155C72.5141 135.155 72.8444 135.122 73.1747 135.089L74.3143 136.509L76.7422 135.98L77.3202 134.197C78.113 133.899 78.8232 133.536 79.4343 133.107L82.209 133.685L83.9431 131.571L83.2495 133.734L81.5153 135.848L78.7406 135.27C78.5424 135.419 78.3112 135.551 78.08 135.683L78.4764 135.601L77.7827 137.781L73.6372 138.673L72.4976 137.252C72.1672 137.285 71.8369 137.302 71.5066 137.302C70.846 137.318 70.1853 137.302 69.5247 137.252L68.3686 138.673L64.2396 137.814L64.7846 136.146C64.7846 136.146 64.702 136.113 64.669 136.096C64.636 136.096 64.6029 136.063 64.5864 136.063C64.5534 136.047 64.5204 136.03 64.4708 135.997C64.3222 135.931 64.1735 135.848 64.0414 135.782C63.9753 135.749 63.9258 135.716 63.8597 135.683C63.6946 135.584 63.5294 135.485 63.3808 135.369C63.3808 135.369 63.3477 135.353 63.3312 135.336L60.54 135.931L58.8389 133.833L59.5325 131.67L59.4995 131.653Z" fill="#40474C"/>
<path d="M62.3081 129.539L59.5334 128.961L61.2676 126.847L64.0423 127.425C64.6369 127.012 65.3471 126.649 66.1398 126.351L65.0002 124.931L69.1457 124.039L70.2853 125.443C70.6156 125.427 70.946 125.394 71.2763 125.394C71.9369 125.377 72.5976 125.394 73.2582 125.443L74.4143 124.023L78.5433 124.882L77.3872 126.302C78.1965 126.599 78.8901 126.963 79.4682 127.359L82.2429 126.764L83.944 128.878L81.1528 129.473C81.3015 129.968 81.3015 130.48 81.1528 130.992L83.9275 131.571L82.1933 133.685L79.4187 133.106C78.8241 133.519 78.1139 133.883 77.3046 134.197L78.4442 135.6L74.2987 136.492L73.1591 135.072C72.8288 135.105 72.4985 135.121 72.1681 135.138C71.5075 135.154 70.8469 135.138 70.1862 135.088L69.0301 136.509L64.9011 135.65L66.0572 134.23C65.248 133.932 64.5378 133.569 63.9762 133.173L61.185 133.767L59.4839 131.653L62.2751 131.059C62.1264 130.563 62.1264 130.051 62.2751 129.556L62.3081 129.539ZM70.4835 132.264C71.0616 132.38 71.6727 132.429 72.2672 132.413C73.8032 132.363 75.2401 131.884 75.8842 131.092C76.7596 130.018 75.7686 128.796 73.6876 128.35C73.1096 128.234 72.4985 128.185 71.9039 128.201C70.3679 128.251 68.931 128.73 68.2869 129.523C67.4115 130.596 68.4025 131.835 70.5 132.264" fill="#6C7780"/>
<path d="M100.67 30.4329C95.4477 34.8538 84.4649 37.9124 77.6978 39.9729C72.8751 41.4972 67.8385 43.0862 62.7506 43.3609C57.9124 43.529 49.3411 40.1065 58.1055 38.2622C54.9016 26.295 62.9839 13.8656 75.0658 11.4335C87.4712 9.13055 97.0282 20.0157 101.351 30.1422L101.255 29.9162L100.67 30.4329Z" fill="#045540"/>
<path d="M99.4951 28.082C94.2724 32.503 83.2896 35.5615 76.5225 37.622C71.6998 39.1464 66.6632 40.7354 61.5753 41.0101C56.7371 41.1782 48.1658 37.7556 56.9303 35.9114C53.7263 23.9442 61.8086 11.5147 73.8905 9.08266C86.2959 6.77972 95.8529 17.6649 100.176 27.7914L100.079 27.5654L99.4951 28.082Z" fill="url(#paint0_linear_1200_2445)"/>
</g>
<defs>
<filter id="filter0_d_1200_2445" x="0" y="0.770996" width="210" height="145.901" filterUnits="userSpaceOnUse" color-interpolation-filters="sRGB">
<feFlood flood-opacity="0" result="BackgroundImageFix"/>
<feColorMatrix in="SourceAlpha" type="matrix" values="0 0 0 0 0 0 0 0 0 0 0 0 0 0 0 0 0 0 127 0" result="hardAlpha"/>
<feOffset/>
<feGaussianBlur stdDeviation="4"/>
<feComposite in2="hardAlpha" operator="out"/>
<feColorMatrix type="matrix" values="0 0 0 0 0 0 0 0 0 0 0 0 0 0 0 0 0 0 0.15 0"/>
<feBlend mode="normal" in2="BackgroundImageFix" result="effect1_dropShadow_1200_2445"/>
<feBlend mode="normal" in="SourceGraphic" in2="effect1_dropShadow_1200_2445" result="shape"/>
</filter>
<linearGradient id="paint0_linear_1200_2445" x1="67.441" y1="11.3476" x2="78.8213" y2="38.005" gradientUnits="userSpaceOnUse">
<stop stop-color="#03B263"/>
<stop offset="1" stop-color="#03836D"/>
</linearGradient>
</defs>
</svg>
