<svg width="78" height="75" viewBox="0 0 78 75" fill="none" xmlns="http://www.w3.org/2000/svg">
<path d="M63.375 11.7188H14.625C10.5864 11.7188 7.3125 14.8667 7.3125 18.75V56.25C7.3125 60.1333 10.5864 63.2813 14.625 63.2813H63.375C67.4136 63.2813 70.6875 60.1333 70.6875 56.25V18.75C70.6875 14.8667 67.4136 11.7188 63.375 11.7188Z" stroke="#373737" stroke-width="3" stroke-linejoin="round"/>
<path d="M51.1875 30.4688C53.8799 30.4688 56.0625 28.3701 56.0625 25.7813C56.0625 23.1924 53.8799 21.0938 51.1875 21.0938C48.4951 21.0938 46.3125 23.1924 46.3125 25.7813C46.3125 28.3701 48.4951 30.4688 51.1875 30.4688Z" stroke="#373737" stroke-width="3" stroke-miterlimit="10"/>
<path d="M46.3125 49.188L32.501 35.9326C31.6221 35.0877 30.4409 34.5975 29.1987 34.5621C27.9564 34.5267 26.7471 34.9488 25.8177 35.7422L7.3125 51.5625M34.125 63.2813L52.9151 45.2139C53.7744 44.3859 54.9246 43.8969 56.1398 43.8426C57.3549 43.7884 58.5473 44.173 59.4826 44.9209L70.6875 53.9063" stroke="#373737" stroke-width="3" stroke-linecap="round" stroke-linejoin="round"/>
</svg>
