<svg width="359" height="224" viewBox="0 0 359 224" fill="none" xmlns="http://www.w3.org/2000/svg">
<g style="mix-blend-mode:multiply">
<path d="M381 -135H-4V250H381V-135Z" fill="none"/>
<g style="mix-blend-mode:overlay" opacity="0.4">
<path d="M36.6062 212.144H51.7566C51.8046 212.027 51.8532 211.91 51.9012 211.793H36.5246C36.5521 211.91 36.5788 212.027 36.6062 212.144ZM143.498 233.386H143.693C143.776 233.262 143.858 233.142 143.93 233.036H143.441C143.46 233.153 143.479 233.268 143.498 233.386ZM391 -22.4618V-22.8125H370.297V-42H369.947V-22.8125H348.004V-42H347.654V-22.8125H325.473V-42H325.122V-22.8125H303.18V-42H302.829V-22.8125H280.887V-42H280.536V-22.8125H258.594V-42H258.244V-22.8125H236.301V-42H235.951V-22.8125H214.008V-42H213.658V-22.8125H191.716V-42H191.365V-22.8125H169.424V-42H169.074V-22.8125H147.131V-42H146.78V-22.8125H124.839V-42H124.488V-22.8125H102.546V-42H102.196V-22.8125H80.0143V-42H79.6636V-22.8125H57.7219V-42H57.3712V-22.8125H35.4288V-42H35.0781V-22.8125H13.1371V-42H12.7864V-22.8125H-9.15597V-42H-9.50666V-22.8125H-13V-22.4618H-9.50666V-1.46604H-13V-1.11535H-9.50666V19.7764H-13V20.1271H-9.50666V41.1236H-13V41.4743H-9.50666V62.4693H-13V62.82H-9.50666V83.8164H-13V84.1671H-9.50666V105.163H-13V105.514H-9.50666V126.405H-13V126.756H-9.50666V147.752H-13V148.103H-9.50666V169.1H-10.6649C-10.6177 169.217 -10.5677 169.333 -10.5197 169.45H-9.50666V171.86C-9.38953 172.13 -9.27263 172.4 -9.15597 172.67V169.45H12.7864V190.446H12.6042C12.7891 190.661 12.9618 190.892 13.1371 191.119V190.797H35.0781V205.568C35.1952 206.073 35.3121 206.576 35.4288 207.079V190.797H57.3712V211.793H56.8684C56.8972 211.91 56.9259 212.027 56.9547 212.144H57.3712V213.824C57.4157 214.001 57.4589 214.181 57.5033 214.358C57.5794 214.662 57.6492 214.969 57.7219 215.275V212.144H79.6636V233.036H62.8569C62.9001 233.152 62.9398 233.27 62.9823 233.386H79.6636V254.382H68.5673C68.5865 254.499 68.607 254.616 68.6255 254.733H79.6636V266.007C79.7807 266.045 79.8964 266.086 80.0143 266.121V254.733H86.1274C86.1583 254.616 86.189 254.498 86.2199 254.382H80.0143V233.386H102.196V254.382H92.8721C92.9249 254.498 92.9776 254.616 93.0323 254.733H102.196V275.729H97.1674L97.1743 275.771C97.1921 275.874 97.2106 275.977 97.2285 276.08H102.196V284.993C102.312 284.835 102.43 284.677 102.546 284.519V276.08H120.802C120.837 275.963 120.869 275.846 120.903 275.729H102.546V254.733H124.413C124.428 254.616 124.442 254.499 124.458 254.382H102.546V233.386H124.488V254.144C124.609 253.235 124.722 252.324 124.839 251.413V233.386H127.542C127.579 233.269 127.618 233.152 127.657 233.036H124.839V212.144H135.599C135.625 212.027 135.652 211.91 135.678 211.793H124.839V190.797H146.78V211.793H139.96L140.017 212.144H146.78V228.386C146.899 228.185 147.015 227.984 147.131 227.782V212.144H159.419C159.457 212.027 159.496 211.91 159.534 211.793H147.131V190.797H164.158C164.184 190.68 164.207 190.563 164.232 190.446H147.131V169.45H169.074V172.757C169.191 172.428 169.303 172.098 169.424 171.77V169.45H170.343C170.389 169.334 170.435 169.216 170.482 169.1H169.424V148.103H191.365V169.1H178.598C178.644 169.216 178.693 169.334 178.74 169.45H191.365V173.042C191.482 172.983 191.599 172.924 191.716 172.865V169.45H202.927C202.97 169.334 203.013 169.216 203.056 169.1H191.716V148.103H213.658V158.723C213.708 158.615 213.768 158.51 213.815 158.401C213.875 158.263 213.945 158.141 214.008 158.01V148.103H229.552C229.582 147.986 229.613 147.87 229.642 147.752H214.008V126.756H235.951V131.854C236.067 131.699 236.18 131.541 236.301 131.387V126.756H240.905C241.041 126.642 241.172 126.524 241.301 126.405H236.301V105.514H258.244V126.405H254.804C254.848 126.522 254.889 126.64 254.933 126.756H258.244V134.83C258.356 135.077 258.481 135.321 258.594 135.568V126.756H280.536V131.549C280.654 130.949 280.771 130.348 280.887 129.746V126.756H281.469C281.491 126.639 281.514 126.522 281.537 126.405H280.887V105.514H296.941C296.969 105.396 296.999 105.28 297.028 105.163H280.887V84.1671H302.829V89.7487C302.944 89.5529 303.063 89.3645 303.18 89.1735V84.1671H308.265C308.483 84.0575 308.69 83.9411 308.923 83.8432C308.938 83.837 308.951 83.8233 308.966 83.8164H303.18V62.82H325.122V63.0665C325.179 63.0337 325.237 63.0028 325.293 62.9693C325.354 62.9344 325.413 62.8878 325.473 62.8488V62.82H325.516C325.676 62.7132 325.829 62.5961 325.974 62.4693H325.473V41.4743H347.654V62.4693H335.657L335.787 62.82H347.654V67.0892L347.696 67.0797C347.804 67.0441 347.907 66.9971 348.004 66.9393V62.82H350.185C350.231 62.7029 350.279 62.5865 350.325 62.4693H348.004V41.4743H369.947V62.4693H369.581C369.612 62.5858 369.643 62.7036 369.673 62.82H369.947V63.8543C370.063 64.2934 370.178 64.7337 370.295 65.1721L370.297 65.1851V62.82H377.709C377.737 62.7029 377.766 62.5865 377.794 62.4693H370.297V41.4743H391V41.1236H370.297V20.1271H391V19.7764H370.297V-1.11535H391V-1.46604H370.297V-22.4618H391ZM12.7864 169.1H-9.15597V148.103H12.7864V169.1ZM12.7864 147.752H-9.15597V126.756H12.7864V147.752ZM12.7864 126.405H-9.15597V105.514H12.7864V126.405ZM12.7864 105.163H-9.15597V84.1671H12.7864V105.163ZM12.7864 83.8164H-9.15597V62.82H12.7864V83.8164ZM12.7864 62.4693H-9.15597V41.4743H12.7864V62.4693ZM12.7864 41.1236H-9.15597V20.1271H12.7864V41.1236ZM12.7864 19.7764H-9.15597V-1.11535H12.7864V19.7764ZM12.7864 -1.46604H-9.15597V-22.4618H12.7864V-1.46604ZM35.0781 190.446H13.1371V169.45H35.0781V190.446ZM35.0781 169.1H13.1371V148.103H35.0781V169.1ZM35.0781 147.752H13.1371V126.756H35.0781V147.752ZM35.0781 126.405H13.1371V105.514H35.0781V126.405ZM35.0781 105.163H13.1371V84.1671H35.0781V105.163ZM35.0781 83.8164H13.1371V62.82H35.0781V83.8164ZM35.0781 62.4693H13.1371V41.4743H35.0781V62.4693ZM35.0781 41.1236H13.1371V20.1271H35.0781V41.1236ZM35.0781 19.7764H13.1371V-1.11535H35.0781V19.7764ZM35.0781 -1.46604H13.1371V-22.4618H35.0781V-1.46604ZM57.3712 190.446H35.4288V169.45H57.3712V190.446ZM57.3712 169.1H35.4288V148.103H57.3712V169.1ZM57.3712 147.752H35.4288V126.756H57.3712V147.752ZM57.3712 126.405H35.4288V105.514H57.3712V126.405ZM57.3712 105.163H35.4288V84.1671H57.3712V105.163ZM57.3712 83.8164H35.4288V62.82H57.3712V83.8164ZM57.3712 62.4693H35.4288V41.4743H57.3712V62.4693ZM57.3712 41.1236H35.4288V20.1271H57.3712V41.1236ZM57.3712 19.7764H35.4288V-1.11535H57.3712V19.7764ZM57.3712 -1.46604H35.4288V-22.4618H57.3712V-1.46604ZM79.6636 211.793H57.7219V190.797H79.6636V211.793ZM79.6636 190.446H57.7219V169.45H79.6636V190.446ZM79.6636 169.1H57.7219V148.103H79.6636V169.1ZM79.6636 147.752H57.7219V126.756H79.6636V147.752ZM79.6636 126.405H57.7219V105.514H79.6636V126.405ZM79.6636 105.163H57.7219V84.1671H79.6636V105.163ZM79.6636 83.8164H57.7219V62.82H79.6636V83.8164ZM79.6636 62.4693H57.7219V41.4743H79.6636V62.4693ZM79.6636 41.1236H57.7219V20.1271H79.6636V41.1236ZM79.6636 19.7764H57.7219V-1.11535H79.6636V19.7764ZM79.6636 -1.46604H57.7219V-22.4618H79.6636V-1.46604ZM102.196 233.036H80.0143V212.144H102.196V233.036ZM102.196 211.793H80.0143V190.797H102.196V211.793ZM102.196 190.446H80.0143V169.45H102.196V190.446ZM102.196 169.1H80.0143V148.103H102.196V169.1ZM102.196 147.752H80.0143V126.756H102.196V147.752ZM102.196 126.405H80.0143V105.514H102.196V126.405ZM102.196 105.163H80.0143V84.1671H102.196V105.163ZM102.196 83.8164H80.0143V62.82H102.196V83.8164ZM102.196 62.4693H80.0143V41.4743H102.196V62.4693ZM102.196 41.1236H80.0143V20.1271H102.196V41.1236ZM102.196 19.7764H80.0143V-1.11535H102.196V19.7764ZM102.196 -1.46604H80.0143V-22.4618H102.196V-1.46604ZM124.488 233.036H102.546V212.144H124.488V233.036ZM124.488 211.793H102.546V190.797H124.488V211.793ZM124.488 190.446H102.546V169.45H124.488V190.446ZM124.488 169.1H102.546V148.103H124.488V169.1ZM124.488 147.752H102.546V126.756H124.488V147.752ZM124.488 126.405H102.546V105.514H124.488V126.405ZM124.488 105.163H102.546V84.1671H124.488V105.163ZM124.488 83.8164H102.546V62.82H124.488V83.8164ZM124.488 62.4693H102.546V41.4743H124.488V62.4693ZM124.488 41.1236H102.546V20.1271H124.488V41.1236ZM124.488 19.7764H102.546V-1.11535H124.488V19.7764ZM124.488 -1.46604H102.546V-22.4618H124.488V-1.46604ZM146.78 190.446H124.839V169.45H146.78V190.446ZM146.78 169.1H124.839V148.103H146.78V169.1ZM146.78 147.752H124.839V126.756H146.78V147.752ZM146.78 126.405H124.839V105.514H146.78V126.405ZM146.78 105.163H124.839V84.1671H146.78V105.163ZM146.78 83.8164H124.839V62.82H146.78V83.8164ZM146.78 62.4693H124.839V41.4743H146.78V62.4693ZM146.78 41.1236H124.839V20.1271H146.78V41.1236ZM146.78 19.7764H124.839V-1.11535H146.78V19.7764ZM146.78 -1.46604H124.839V-22.4618H146.78V-1.46604ZM169.074 169.1H147.131V148.103H169.074V169.1ZM169.074 147.752H147.131V126.756H169.074V147.752ZM169.074 126.405H147.131V105.514H169.074V126.405ZM169.074 105.163H147.131V84.1671H169.074V105.163ZM169.074 83.8164H147.131V62.82H169.074V83.8164ZM169.074 62.4693H147.131V41.4743H169.074V62.4693ZM169.074 41.1236H147.131V20.1271H169.074V41.1236ZM169.074 19.7764H147.131V-1.11535H169.074V19.7764ZM169.074 -1.46604H147.131V-22.4618H169.074V-1.46604ZM191.365 147.752H169.424V126.756H191.365V147.752ZM191.365 126.405H169.424V105.514H191.365V126.405ZM191.365 105.163H169.424V84.1671H191.365V105.163ZM191.365 83.8164H169.424V62.82H191.365V83.8164ZM191.365 62.4693H169.424V41.4743H191.365V62.4693ZM191.365 41.1236H169.424V20.1271H191.365V41.1236ZM191.365 19.7764H169.424V-1.11535H191.365V19.7764ZM191.365 -1.46604H169.424V-22.4618H191.365V-1.46604ZM213.658 147.752H191.716V126.756H213.658V147.752ZM213.658 126.405H191.716V105.514H213.658V126.405ZM213.658 105.163H191.716V84.1671H213.658V105.163ZM213.658 83.8164H191.716V62.82H213.658V83.8164ZM213.658 62.4693H191.716V41.4743H213.658V62.4693ZM213.658 41.1236H191.716V20.1271H213.658V41.1236ZM213.658 19.7764H191.716V-1.11535H213.658V19.7764ZM213.658 -1.46604H191.716V-22.4618H213.658V-1.46604ZM235.951 126.405H214.008V105.514H235.951V126.405ZM235.951 105.163H214.008V84.1671H235.951V105.163ZM235.951 83.8164H214.008V62.82H235.951V83.8164ZM235.951 62.4693H214.008V41.4743H235.951V62.4693ZM235.951 41.1236H214.008V20.1271H235.951V41.1236ZM235.951 19.7764H214.008V-1.11535H235.951V19.7764ZM235.951 -1.46604H214.008V-22.4618H235.951V-1.46604ZM258.244 105.163H236.301V84.1671H258.244V105.163ZM258.244 83.8164H236.301V62.82H258.244V83.8164ZM258.244 62.4693H236.301V41.4743H258.244V62.4693ZM258.244 41.1236H236.301V20.1271H258.244V41.1236ZM258.244 19.7764H236.301V-1.11535H258.244V19.7764ZM258.244 -1.46604H236.301V-22.4618H258.244V-1.46604ZM280.536 126.405H258.594V105.514H280.536V126.405ZM280.536 105.163H258.594V84.1671H280.536V105.163ZM280.536 83.8164H258.594V62.82H280.536V83.8164ZM280.536 62.4693H258.594V41.4743H280.536V62.4693ZM280.536 41.1236H258.594V20.1271H280.536V41.1236ZM280.536 19.7764H258.594V-1.11535H280.536V19.7764ZM280.536 -1.46604H258.594V-22.4618H280.536V-1.46604ZM302.829 83.8164H280.887V62.82H302.829V83.8164ZM302.829 62.4693H280.887V41.4743H302.829V62.4693ZM302.829 41.1236H280.887V20.1271H302.829V41.1236ZM302.829 19.7764H280.887V-1.11535H302.829V19.7764ZM302.829 -1.46604H280.887V-22.4618H302.829V-1.46604ZM325.122 62.4693H303.18V41.4743H325.122V62.4693ZM325.122 41.1236H303.18V20.1271H325.122V41.1236ZM325.122 19.7764H303.18V-1.11535H325.122V19.7764ZM325.122 -1.46604H303.18V-22.4618H325.122V-1.46604ZM347.654 41.1236H325.473V20.1271H347.654V41.1236ZM347.654 19.7764H325.473V-1.11535H347.654V19.7764ZM347.654 -1.46604H325.473V-22.4618H347.654V-1.46604ZM369.947 41.1236H348.004V20.1271H369.947V41.1236ZM369.947 19.7764H348.004V-1.11535H369.947V19.7764ZM369.947 -1.46604H348.004V-22.4618H369.947V-1.46604ZM273.828 148.103H277.266L277.336 147.752H273.432C273.561 147.869 273.696 147.987 273.828 148.103Z" fill="black"/>
</g>
</g>
<defs>
<linearGradient id="paint0_linear_1097_1594" x1="188.5" y1="-192.599" x2="188.5" y2="254.29" gradientUnits="userSpaceOnUse">
<stop stop-color="#EBEBEB"/>
<stop offset="0.1701" stop-color="#E1E7ED"/>
<stop offset="0.46347" stop-color="#C5DDF2"/>
<stop offset="0.84231" stop-color="#98CDFB"/>
<stop offset="1" stop-color="#83C6FF"/>
</linearGradient>
</defs>
</svg>
