<svg width="48" height="48" viewBox="0 0 48 48" fill="none" xmlns="http://www.w3.org/2000/svg">
<path d="M18.7577 31.9579H20.3366V29.179H23.1156V27.6H20.3366V24.8211H18.7577V27.6H15.9787V29.179H18.7577V31.9579ZM25.5471 30.8526H31.8945V29.3053H25.5471V30.8526ZM25.5471 27.4737H31.8945V25.8947H25.5471V27.4737ZM26.7156 22.3263L28.6419 20.4L30.5682 22.3263L31.705 21.1895L29.7787 19.2632L31.705 17.3369L30.5682 16.2L28.6419 18.1263L26.7156 16.2L25.5787 17.3369L27.505 19.2632L25.5787 21.1895L26.7156 22.3263ZM16.4524 20.0526H22.6419V18.4737H16.4524V20.0526ZM14.5261 35.3684C14.0208 35.3684 13.5787 35.179 13.1998 34.8C12.8208 34.4211 12.6313 33.979 12.6313 33.4737V14.5263C12.6313 14.0211 12.8208 13.579 13.1998 13.2C13.5787 12.8211 14.0208 12.6316 14.5261 12.6316H33.4735C33.9787 12.6316 34.4208 12.8211 34.7998 13.2C35.1787 13.579 35.3682 14.0211 35.3682 14.5263V33.4737C35.3682 33.979 35.1787 34.4211 34.7998 34.8C34.4208 35.179 33.9787 35.3684 33.4735 35.3684H14.5261ZM14.5261 33.4737H33.4735V14.5263H14.5261V33.4737Z" fill="#334050"/>
</svg>
