<svg width="48" height="48" viewBox="0 0 48 48" fill="none" xmlns="http://www.w3.org/2000/svg">
<path d="M13.8945 34.1053V32.4211H31.8314V34.1053H13.8945ZM18.1331 30.7369C16.9542 30.7369 15.953 30.3299 15.1296 29.5158C14.3062 28.7018 13.8945 27.7053 13.8945 26.5264V13.8948H32.4208C32.884 13.8948 33.2805 14.0597 33.6103 14.3895C33.9401 14.7193 34.1051 15.1158 34.1051 15.579V20.0702C34.1051 20.5334 33.9401 20.9299 33.6103 21.2597C33.2805 21.5895 32.884 21.7544 32.4208 21.7544H29.7261V26.5264C29.7261 27.7053 29.3144 28.7018 28.491 29.5158C27.6676 30.3299 26.6665 30.7369 25.4875 30.7369H18.1331ZM18.1331 29.0527H25.4869C26.161 29.0527 26.7554 28.7954 27.27 28.2807C27.7846 27.7661 28.0419 27.1813 28.0419 26.5264V15.579H15.5787V26.5264C15.5787 27.1813 15.8407 27.7661 16.3647 28.2807C16.8887 28.7954 17.4782 29.0527 18.1331 29.0527ZM29.7261 20.0702H32.4208V15.579H29.7261V20.0702Z" fill="#334050"/>
</svg>
