<svg width="48" height="48" viewBox="0 0 48 48" fill="none" xmlns="http://www.w3.org/2000/svg">
<path d="M15.9197 34.0737C14.8857 34.0737 14.0055 33.7114 13.2792 32.9869C12.5528 32.2623 12.1897 31.3825 12.1897 30.3474H10.1055V15.7895C10.1055 15.2842 10.2949 14.8421 10.6739 14.4632C11.0528 14.0842 11.4949 13.8948 12.0002 13.8948H30.2844V19.1685H33.6002L37.8949 24.8842V30.3474H35.6528C35.6528 31.3825 35.2909 32.2623 34.5671 32.9869C33.8432 33.7114 32.9643 34.0737 31.9302 34.0737C30.8962 34.0737 30.016 33.7114 29.2897 32.9869C28.5634 32.2623 28.2002 31.3825 28.2002 30.3474H19.6423C19.6423 31.379 19.2804 32.2579 18.5566 32.9842C17.8327 33.7106 16.9538 34.0737 15.9197 34.0737ZM15.916 32.179C16.4213 32.179 16.8528 32 17.2107 31.6421C17.5686 31.2842 17.7476 30.8527 17.7476 30.3474C17.7476 29.8421 17.5686 29.4106 17.2107 29.0527C16.8528 28.6948 16.4213 28.5158 15.916 28.5158C15.4107 28.5158 14.9792 28.6948 14.6213 29.0527C14.2634 29.4106 14.0844 29.8421 14.0844 30.3474C14.0844 30.8527 14.2634 31.2842 14.6213 31.6421C14.9792 32 15.4107 32.179 15.916 32.179ZM12.0002 28.4527H12.6949C13.0528 27.8842 13.5059 27.4316 14.0541 27.0948C14.6024 26.7579 15.2129 26.5895 15.8857 26.5895C16.5585 26.5895 17.1739 26.7632 17.7318 27.1106C18.2897 27.4579 18.7476 27.9053 19.1055 28.4527H28.3897V15.7895H12.0002V28.4527ZM31.9265 32.179C32.4318 32.179 32.8634 32 33.2213 31.6421C33.5792 31.2842 33.7581 30.8527 33.7581 30.3474C33.7581 29.8421 33.5792 29.4106 33.2213 29.0527C32.8634 28.6948 32.4318 28.5158 31.9265 28.5158C31.4213 28.5158 30.9897 28.6948 30.6318 29.0527C30.2739 29.4106 30.0949 29.8421 30.0949 30.3474C30.0949 30.8527 30.2739 31.2842 30.6318 31.6421C30.9897 32 31.4213 32.179 31.9265 32.179ZM30.2844 25.7369H36.1581L32.6528 21.0632H30.2844V25.7369Z" fill="#334050"/>
</svg>
