<svg width="48" height="48" viewBox="0 0 48 48" fill="none" xmlns="http://www.w3.org/2000/svg">
<path d="M15.1577 31.4527V33.1579C15.1577 33.4264 15.0669 33.6514 14.8853 33.8329C14.7037 34.0145 14.4787 34.1053 14.2103 34.1053H13.5787C13.3103 34.1053 13.0853 34.0145 12.9037 33.8329C12.7221 33.6514 12.6313 33.4264 12.6313 33.1579V22.9264L15.3156 14.8421C15.4208 14.5474 15.5945 14.3158 15.8366 14.1474C16.0787 13.979 16.3577 13.8948 16.6735 13.8948H31.3261C31.6419 13.8948 31.9208 13.979 32.1629 14.1474C32.405 14.3158 32.5787 14.5474 32.684 14.8421L35.3682 22.9264V33.1579C35.3682 33.4264 35.2774 33.6514 35.0958 33.8329C34.9142 34.0145 34.6892 34.1053 34.4208 34.1053H33.7577C33.484 34.1053 33.2629 34.0145 33.0945 33.8329C32.9261 33.6514 32.8419 33.4264 32.8419 33.1579V31.4527H15.1577ZM15.2524 21.0316H32.7471L31.0103 15.7895H16.9892L15.2524 21.0316ZM17.866 27.979C18.3552 27.979 18.7629 27.8132 19.0892 27.4816C19.4156 27.15 19.5787 26.7474 19.5787 26.2737C19.5787 25.7825 19.4129 25.365 19.0813 25.0211C18.7498 24.6772 18.3471 24.5053 17.8735 24.5053C17.3822 24.5053 16.9647 24.6765 16.6208 25.0189C16.277 25.3613 16.105 25.7771 16.105 26.2663C16.105 26.7555 16.2762 27.1632 16.6187 27.4895C16.9611 27.8158 17.3769 27.979 17.866 27.979ZM30.1577 27.979C30.6489 27.979 31.0664 27.8132 31.4103 27.4816C31.7542 27.15 31.9261 26.7474 31.9261 26.2737C31.9261 25.7825 31.7549 25.365 31.4124 25.0211C31.07 24.6772 30.6543 24.5053 30.1651 24.5053C29.6759 24.5053 29.2682 24.6765 28.9419 25.0189C28.6156 25.3613 28.4524 25.7771 28.4524 26.2663C28.4524 26.7555 28.6182 27.1632 28.9498 27.4895C29.2813 27.8158 29.684 27.979 30.1577 27.979ZM14.5261 29.5579H33.4735V22.9264H14.5261V29.5579Z" fill="#334050"/>
</svg>
