<svg width="48" height="48" viewBox="0 0 48 48" fill="none" xmlns="http://www.w3.org/2000/svg">
<path d="M34.8 23.6H13.2C12.8817 23.6 12.5765 23.7264 12.3515 23.9515C12.1264 24.1765 12 24.4817 12 24.8C12.0001 26.9064 12.5546 28.9757 13.6078 30.7998C14.661 32.624 16.1758 34.1388 18 35.192V36.8C18 37.1183 18.1264 37.4235 18.3515 37.6485C18.5765 37.8736 18.8817 38 19.2 38H28.8C29.1183 38 29.4235 37.8736 29.6485 37.6485C29.8736 37.4235 30 37.1183 30 36.8V35.192C31.8242 34.1388 33.339 32.624 34.3922 30.7998C35.4454 28.9757 35.9999 26.9064 36 24.8C36 24.4817 35.8736 24.1765 35.6485 23.9515C35.4235 23.7264 35.1183 23.6 34.8 23.6ZM28.26 33.392C28.0603 33.4926 27.8927 33.6471 27.776 33.8379C27.6594 34.0287 27.5984 34.2484 27.6 34.472V35.6H20.4V34.472C20.4016 34.2484 20.3406 34.0287 20.224 33.8379C20.1073 33.6471 19.9397 33.4926 19.74 33.392C18.3203 32.69 17.0963 31.6477 16.1772 30.358C15.258 29.0682 14.6722 27.5711 14.472 26H33.528C33.3278 27.5711 32.742 29.0682 31.8228 30.358C30.9037 31.6477 29.6797 32.69 28.26 33.392ZM20.4 22.4V21.116C20.3982 19.7044 19.8474 18.3488 18.864 17.336C18.5858 17.0549 18.3661 16.7213 18.2178 16.3546C18.0695 15.988 17.9955 15.5955 18 15.2V14H15.6V15.2C15.5955 16.6199 16.1468 17.9853 17.136 19.004C17.6921 19.566 18.0027 20.3254 18 21.116V22.4H20.4ZM25.2 22.4V21.116C25.1982 19.7044 24.6474 18.3488 23.664 17.336C23.3858 17.0549 23.1661 16.7213 23.0178 16.3546C22.8695 15.988 22.7955 15.5955 22.8 15.2V14H20.4V15.2C20.4018 16.6116 20.9526 17.9672 21.936 18.98C22.2142 19.2611 22.4339 19.5947 22.5822 19.9614C22.7305 20.328 22.8045 20.7205 22.8 21.116V22.4H25.2ZM30 22.4V21.116C29.9982 19.7044 29.4474 18.3488 28.464 17.336C28.1858 17.0549 27.9661 16.7213 27.8178 16.3546C27.6695 15.988 27.5955 15.5955 27.6 15.2V14H25.2V15.2C25.2018 16.6116 25.7526 17.9672 26.736 18.98C27.0142 19.2611 27.2339 19.5947 27.3822 19.9614C27.5305 20.328 27.6045 20.7205 27.6 21.116V22.4H30Z" fill="black"/>
</svg>
