<svg width="48" height="48" viewBox="0 0 48 48" fill="none" xmlns="http://www.w3.org/2000/svg">
<path d="M35.0221 20.6663L33.6822 19.3264L35.1178 17.8908L30.1092 12.8822L28.6736 14.3178L27.3018 12.946L28.2589 11.9571C28.7481 11.4679 29.3542 11.2286 30.0773 11.2393C30.8004 11.2499 31.4065 11.4998 31.8957 11.989L36.011 16.1043C36.5002 16.5935 36.7448 17.1943 36.7448 17.9067C36.7448 18.6192 36.5002 19.22 36.011 19.7092L35.0221 20.6663ZM19.7092 36.011C19.22 36.5002 18.6192 36.7448 17.9067 36.7448C17.1943 36.7448 16.5935 36.5002 16.1043 36.011L11.5423 31.4491C11.1808 31.0795 11 30.6255 11 30.0872C11 29.5489 11.1808 29.099 11.5423 28.7374L12.946 27.3337L14.3178 28.6736L12.8822 30.1092L17.8908 35.1178L19.3264 33.6822L20.6663 35.054L19.7092 36.011ZM32.3742 26.1853L35.0859 23.4736L24.5264 12.9141L21.8147 15.6258L32.3742 26.1853ZM23.4417 35.1178L26.1853 32.3742L15.6258 21.8147L12.8822 24.5583L23.4417 35.1178ZM23.7288 27.2061L27.2061 23.7288L24.2712 20.7939L20.7939 24.2712L23.7288 27.2061ZM24.7816 36.4577C24.4214 36.8192 23.9752 37 23.4428 37C22.9104 37 22.4634 36.8192 22.1018 36.4577L11.5423 25.8982C11.1808 25.538 11 25.0917 11 24.5593C11 24.0269 11.1808 23.58 11.5423 23.2184L14.254 20.4748C14.6236 20.1133 15.0775 19.9325 15.6158 19.9325C16.1542 19.9325 16.6041 20.1133 16.9656 20.4748L19.4221 22.9313L22.9313 19.4221L20.4748 16.9656C20.1133 16.6055 19.9325 16.1592 19.9325 15.6268C19.9325 15.0944 20.1133 14.6474 20.4748 14.2859L23.1865 11.5423C23.5561 11.1808 24.01 11 24.5484 11C25.0867 11 25.5366 11.1808 25.8982 11.5423L36.4577 22.1018C36.8192 22.4714 37 22.9254 37 23.4637C37 24.002 36.8192 24.4519 36.4577 24.8135L33.7141 27.5252C33.354 27.8867 32.9077 28.0675 32.3753 28.0675C31.8429 28.0675 31.3959 27.8867 31.0344 27.5252L28.5779 25.0687L25.0687 28.5779L27.5252 31.0344C27.8867 31.4039 28.0675 31.8579 28.0675 32.3962C28.0675 32.9345 27.8867 33.3845 27.5252 33.746L24.7816 36.4577Z" fill="black"/>
</svg>
