<svg width="48" height="48" viewBox="0 0 48 48" fill="none" xmlns="http://www.w3.org/2000/svg">
<path d="M16.7952 20.8571C18.4908 20.8571 19.3872 19.9501 20.0412 19.2871C20.6292 18.6921 20.9184 18.4286 21.5916 18.4286C22.2648 18.4286 22.554 18.6921 23.142 19.2871C23.796 19.9501 24.6924 20.8571 26.3892 20.8571C28.0872 20.8571 28.9848 19.9501 29.6412 19.2871C30.2304 18.6921 30.5196 18.4286 31.1952 18.4286C31.8708 18.4286 32.16 18.6921 32.7492 19.2871C33.4044 19.9501 34.302 20.8571 36 20.8571V18.4286C35.3244 18.4286 35.0352 18.1651 34.446 17.5701C33.7908 16.9071 32.8932 16 31.1952 16C29.4972 16 28.6008 16.9071 27.9444 17.5689C27.3552 18.1651 27.0672 18.4286 26.3892 18.4286C25.7148 18.4286 25.4268 18.1651 24.8388 17.5701C24.1848 16.9071 23.2884 16 21.5916 16C19.8948 16 18.9984 16.9071 18.3444 17.5701C17.7564 18.1651 17.4684 18.4286 16.7952 18.4286C16.122 18.4286 15.834 18.1651 15.246 17.5701C14.592 16.9071 13.6956 16 12 16V18.4286C12.6732 18.4286 12.9612 18.6921 13.5492 19.2871C14.2032 19.9501 15.0996 20.8571 16.7952 20.8571ZM16.7952 26.9286C18.4908 26.9286 19.3872 26.0215 20.0412 25.3585C20.6292 24.7635 20.9184 24.5 21.5916 24.5C22.2648 24.5 22.554 24.7635 23.142 25.3585C23.796 26.0215 24.6924 26.9286 26.3892 26.9286C28.0872 26.9286 28.9848 26.0215 29.6412 25.3585C30.2304 24.7635 30.5196 24.5 31.1952 24.5C31.8708 24.5 32.16 24.7635 32.7492 25.3585C33.4044 26.0215 34.302 26.9286 36 26.9286V24.5C35.3244 24.5 35.0352 24.2365 34.446 23.6415C33.7908 22.9785 32.8932 22.0714 31.1952 22.0714C29.4972 22.0714 28.6008 22.9785 27.9444 23.6403C27.3552 24.2365 27.0672 24.5 26.3892 24.5C25.7148 24.5 25.4268 24.2365 24.8388 23.6415C24.1848 22.9785 23.2884 22.0714 21.5916 22.0714C19.8948 22.0714 18.9984 22.9785 18.3444 23.6415C17.7564 24.2365 17.4684 24.5 16.7952 24.5C16.122 24.5 15.834 24.2365 15.246 23.6415C14.592 22.9785 13.6956 22.0714 12 22.0714V24.5C12.6732 24.5 12.9612 24.7635 13.5492 25.3585C14.2032 26.0215 15.0996 26.9286 16.7952 26.9286ZM16.7952 33C18.4908 33 19.3872 32.0929 20.0412 31.4299C20.6292 30.8349 20.9184 30.5714 21.5916 30.5714C22.2648 30.5714 22.554 30.8349 23.142 31.4299C23.796 32.0929 24.6924 33 26.3892 33C28.0872 33 28.9848 32.0929 29.6412 31.4299C30.2304 30.8349 30.5196 30.5714 31.1952 30.5714C31.8708 30.5714 32.16 30.8349 32.7492 31.4299C33.4044 32.0929 34.302 33 36 33V30.5714C35.3244 30.5714 35.0352 30.3079 34.446 29.7129C33.7908 29.0499 32.8932 28.1429 31.1952 28.1429C29.4972 28.1429 28.6008 29.0499 27.9444 29.7117C27.3552 30.3079 27.0672 30.5714 26.3892 30.5714C25.7148 30.5714 25.4268 30.3079 24.8388 29.7129C24.1848 29.0499 23.2884 28.1429 21.5916 28.1429C19.8948 28.1429 18.9984 29.0499 18.3444 29.7129C17.7564 30.3079 17.4684 30.5714 16.7952 30.5714C16.122 30.5714 15.834 30.3079 15.246 29.7129C14.592 29.0499 13.6956 28.1429 12 28.1429V30.5714C12.6732 30.5714 12.9612 30.8349 13.5492 31.4299C14.2032 32.0929 15.0996 33 16.7952 33Z" fill="black"/>
</svg>
