<svg width="76" height="76" viewBox="0 0 76 76" fill="none" xmlns="http://www.w3.org/2000/svg">
<path d="M29.7894 57.95C28.7965 57.95 27.95 57.5965 27.25 56.8894C26.55 56.1823 26.2 55.3323 26.2 54.3394C26.2 53.3465 26.5535 52.5 27.2606 51.8C27.9677 51.1 28.8177 50.75 29.8106 50.75C30.8035 50.75 31.65 51.1035 32.35 51.8106C33.05 52.5177 33.4 53.3677 33.4 54.3606C33.4 55.3535 33.0465 56.2 32.3394 56.9C31.6323 57.6 30.7823 57.95 29.7894 57.95ZM49.7894 57.95C48.7965 57.95 47.95 57.5965 47.25 56.8894C46.55 56.1823 46.2 55.3323 46.2 54.3394C46.2 53.3465 46.5535 52.5 47.2606 51.8C47.9677 51.1 48.8177 50.75 49.8106 50.75C50.8035 50.75 51.65 51.1035 52.35 51.8106C53.05 52.5177 53.4 53.3677 53.4 54.3606C53.4 55.3535 53.0465 56.2 52.3394 56.9C51.6323 57.6 50.7823 57.95 49.7894 57.95ZM27.2 24.95L32.7 36.35H47.1L53.35 24.95H27.2ZM25.7 21.95H55.1537C55.9192 21.95 56.5016 22.3 56.901 23C57.3003 23.7 57.3 24.4 56.9 25.1L50.15 37.25C49.7833 37.8833 49.3074 38.3917 48.722 38.775C48.1367 39.1583 47.496 39.35 46.8 39.35H31.65L28.85 44.55H53.4V47.55H29.3C27.9 47.55 26.8917 47.0833 26.275 46.15C25.6583 45.2167 25.6667 44.1667 26.3 43L29.5 37.1L21.9 21H18V18H23.85L25.7 21.95Z" fill="black"/>
</svg>
