<svg width="76" height="76" viewBox="0 0 76 76" fill="none" xmlns="http://www.w3.org/2000/svg">
<path d="M18 34.1V32.1C18 28.4667 19.75 25.5417 23.25 23.325C26.75 21.1083 31.6667 20 38 20C44.3333 20 49.25 21.1083 52.75 23.325C56.25 25.5417 58 28.4667 58 32.1V34.1H18ZM21.1 31.1H54.9C54.8 28.8 53.1917 26.875 50.075 25.325C46.9583 23.775 42.9333 23 38 23C33.0667 23 29.025 23.775 25.875 25.325C22.725 26.875 21.1333 28.8 21.1 31.1ZM18 42.9V39.9C19.1 39.9 20.0583 39.5333 20.875 38.8C21.6917 38.0667 23 37.7 24.8 37.7C26.6 37.7 27.7917 38.0667 28.375 38.8C28.9583 39.5333 29.9333 39.9 31.3 39.9C32.6667 39.9 33.675 39.5333 34.325 38.8C34.975 38.0667 36.2 37.7 38 37.7C39.8 37.7 41.025 38.0667 41.675 38.8C42.325 39.5333 43.3333 39.9 44.7 39.9C46.0667 39.9 47.0417 39.5333 47.625 38.8C48.2083 38.0667 49.4 37.7 51.2 37.7C53 37.7 54.3083 38.0667 55.125 38.8C55.9417 39.5333 56.9 39.9 58 39.9V42.9C56.2 42.9 54.9583 42.5333 54.275 41.8C53.5917 41.0667 52.5667 40.7 51.2 40.7C49.8333 40.7 48.8583 41.0667 48.275 41.8C47.6917 42.5333 46.5 42.9 44.7 42.9C42.9 42.9 41.675 42.5333 41.025 41.8C40.375 41.0667 39.3667 40.7 38 40.7C36.6333 40.7 35.625 41.0667 34.975 41.8C34.325 42.5333 33.1 42.9 31.3 42.9C29.5 42.9 28.3083 42.5333 27.725 41.8C27.1417 41.0667 26.1667 40.7 24.8 40.7C23.4333 40.7 22.4107 41.0667 21.7322 41.8C21.0536 42.5333 19.8095 42.9 18 42.9ZM21 56C20.2 56 19.5 55.7 18.9 55.1C18.3 54.5 18 53.8 18 53V46.6H58V53C58 53.8 57.7 54.5 57.1 55.1C56.5 55.7 55.8 56 55 56H21ZM21 53H55V49.6H21V53Z" fill="black"/>
</svg>
