<svg width="76" height="76" viewBox="0 0 76 76" fill="none" xmlns="http://www.w3.org/2000/svg">
<path d="M25.2059 53.95C23.5686 53.95 22.175 53.3764 21.025 52.2292C19.875 51.082 19.3 49.6889 19.3 48.05H16V25C16 24.2 16.3 23.5 16.9 22.9C17.5 22.3 18.2 22 19 22H47.95V30.35H53.2L60 39.4V48.05H56.45C56.45 49.6889 55.877 51.082 54.7309 52.2292C53.5848 53.3764 52.1931 53.95 50.5559 53.95C48.9186 53.95 47.525 53.3764 46.375 52.2292C45.225 51.082 44.65 49.6889 44.65 48.05H31.1C31.1 49.6833 30.527 51.075 29.3809 52.225C28.2348 53.375 26.8431 53.95 25.2059 53.95ZM25.2 50.95C26 50.95 26.6833 50.6667 27.25 50.1C27.8167 49.5333 28.1 48.85 28.1 48.05C28.1 47.25 27.8167 46.5667 27.25 46C26.6833 45.4333 26 45.15 25.2 45.15C24.4 45.15 23.7167 45.4333 23.15 46C22.5833 46.5667 22.3 47.25 22.3 48.05C22.3 48.85 22.5833 49.5333 23.15 50.1C23.7167 50.6667 24.4 50.95 25.2 50.95ZM19 45.05H20.1C20.6667 44.15 21.384 43.4333 22.252 42.9C23.1201 42.3667 24.0868 42.1 25.1521 42.1C26.2174 42.1 27.1917 42.375 28.075 42.925C28.9583 43.475 29.6833 44.1833 30.25 45.05H44.95V25H19V45.05ZM50.55 50.95C51.35 50.95 52.0333 50.6667 52.6 50.1C53.1667 49.5333 53.45 48.85 53.45 48.05C53.45 47.25 53.1667 46.5667 52.6 46C52.0333 45.4333 51.35 45.15 50.55 45.15C49.75 45.15 49.0667 45.4333 48.5 46C47.9333 46.5667 47.65 47.25 47.65 48.05C47.65 48.85 47.9333 49.5333 48.5 50.1C49.0667 50.6667 49.75 50.95 50.55 50.95ZM47.95 40.75H57.25L51.7 33.35H47.95V40.75Z" fill="black"/>
</svg>
