<svg width="48" height="48" viewBox="0 0 48 48" fill="none" xmlns="http://www.w3.org/2000/svg">
<path d="M35.2 17.5556H31V14.7778C31 13.2458 29.7442 12 28.2 12H19.8C18.2558 12 17 13.2458 17 14.7778V17.5556H12.8C11.2558 17.5556 10 18.8014 10 20.3333V34.2222C10 35.7542 11.2558 37 12.8 37H35.2C36.7442 37 38 35.7542 38 34.2222V20.3333C38 18.8014 36.7442 17.5556 35.2 17.5556ZM19.8 14.7778H28.2V17.5556H19.8V14.7778ZM12.8 34.2222V20.3333H35.2L35.2014 34.2222H12.8Z" fill="white"/>
<path d="M25.875 22H23.125V26.125H19V28.875H23.125V33H25.875V28.875H30V26.125H25.875V22Z" fill="white"/>
</svg>
