<svg width="48" height="48" viewBox="0 0 48 48" fill="none" xmlns="http://www.w3.org/2000/svg">
<path d="M36.6318 15.7895V32.2106C36.6318 32.7158 36.4423 33.1579 36.0634 33.5369C35.6844 33.9158 35.2423 34.1053 34.7371 34.1053H13.2634C12.7581 34.1053 12.316 33.9158 11.9371 33.5369C11.5581 33.1579 11.3687 32.7158 11.3687 32.2106V15.7895C11.3687 15.2842 11.5581 14.8421 11.9371 14.4632C12.316 14.0842 12.7581 13.8948 13.2634 13.8948H34.7371C35.2423 13.8948 35.6844 14.0842 36.0634 14.4632C36.4423 14.8421 36.6318 15.2842 36.6318 15.7895ZM13.2634 19.2316H34.7371V15.7895H13.2634V19.2316ZM13.2634 23.3053V32.2106H34.7371V23.3053H13.2634Z" fill="white"/>
</svg>
