<svg width="48" height="48" viewBox="0 0 48 48" fill="none" xmlns="http://www.w3.org/2000/svg">
<path d="M11.3687 34.1053V31.2632H14.0844V15.7895C14.0844 15.2685 14.27 14.8224 14.641 14.4514C15.0121 14.0803 15.4581 13.8948 15.9792 13.8948H35.5581V15.7895H15.9792V31.2632H23.3687V34.1053H11.3687ZM26.495 34.1053C26.146 34.1053 25.8535 33.9632 25.6175 33.679C25.3814 33.3948 25.2634 33.0737 25.2634 32.7158V18.9158C25.2634 18.5669 25.3814 18.2744 25.6175 18.0383C25.8535 17.8023 26.146 17.6842 26.495 17.6842H35.0766C35.4818 17.6842 35.8423 17.7948 36.1581 18.0158C36.4739 18.2369 36.6318 18.5369 36.6318 18.9158V32.7244C36.6318 33.1157 36.4792 33.4436 36.1739 33.7083C35.8687 33.973 35.5055 34.1053 35.0844 34.1053H26.495ZM27.1581 31.2632H34.7371V19.579H27.1581V31.2632Z" fill="white"/>
</svg>
