<svg width="48" height="48" viewBox="0 0 48 48" fill="none" xmlns="http://www.w3.org/2000/svg">
<path d="M13.7784 32.8422C12.9784 32.8422 12.3521 32.5738 11.8995 32.0369C11.4468 31.5001 11.2837 30.758 11.41 29.8106L12.9258 19.2316C13.0942 18.1159 13.6153 17.158 14.4889 16.358C15.3626 15.558 16.3574 15.158 17.4732 15.158H31.1468C32.2626 15.158 33.2574 15.558 34.131 16.358C35.0047 17.158 35.5258 18.1159 35.6942 19.2316L37.1784 29.8106C37.3047 30.758 37.1416 31.5001 36.6889 32.0369C36.2363 32.5738 35.61 32.8422 34.81 32.8422C34.3258 32.8422 33.9153 32.7632 33.5784 32.6053C33.2416 32.4474 32.9574 32.2527 32.7258 32.0211L29.4416 28.7369H19.1468L15.8626 32.0211C15.631 32.2527 15.3468 32.4474 15.01 32.6053C14.6731 32.7632 14.2626 32.8422 13.7784 32.8422ZM14.3468 30.8211L18.3258 26.8422H30.2626L34.2416 30.8211C34.3468 30.9264 34.5363 31.0211 34.81 31.1053C34.9995 31.1053 35.1416 31.0106 35.2363 30.8211C35.331 30.6316 35.3574 30.4422 35.3153 30.2527L33.7995 19.5474C33.6942 18.8106 33.3837 18.2106 32.8679 17.7474C32.3521 17.2843 31.7784 17.0527 31.1468 17.0527H17.4416C16.81 17.0527 16.2363 17.2843 15.7205 17.7474C15.2047 18.2106 14.8942 18.8106 14.7889 19.5474L13.2731 30.2527C13.231 30.4422 13.2574 30.6316 13.3521 30.8211C13.4468 31.0106 13.5889 31.1053 13.7784 31.1053C13.9258 31.1053 14.1153 31.0106 14.3468 30.8211ZM31.2416 25.2632C31.5784 25.2632 31.8731 25.1369 32.1258 24.8843C32.3784 24.6316 32.5047 24.3369 32.5047 24.0001C32.5047 23.6632 32.3784 23.3685 32.1258 23.1159C31.8731 22.8632 31.5784 22.7369 31.2416 22.7369C30.9047 22.7369 30.61 22.8632 30.3574 23.1159C30.1047 23.3685 29.9784 23.6632 29.9784 24.0001C29.9784 24.3369 30.1047 24.6316 30.3574 24.8843C30.61 25.1369 30.9047 25.2632 31.2416 25.2632ZM28.5574 21.158C28.8942 21.158 29.1889 21.0316 29.4416 20.779C29.6942 20.5264 29.8205 20.2316 29.8205 19.8948C29.8205 19.558 29.6942 19.2632 29.4416 19.0106C29.1889 18.758 28.8942 18.6316 28.5574 18.6316C28.2205 18.6316 27.9258 18.758 27.6731 19.0106C27.4205 19.2632 27.2942 19.558 27.2942 19.8948C27.2942 20.2316 27.4205 20.5264 27.6731 20.779C27.9258 21.0316 28.2205 21.158 28.5574 21.158ZM18.61 25.1053H20.1889V22.7369H22.5574V21.158H20.1889V18.7895H18.61V21.158H16.2416V22.7369H18.61V25.1053Z" fill="white"/>
</svg>
