<svg width="48" height="48" viewBox="0 0 48 48" fill="none" xmlns="http://www.w3.org/2000/svg">
<path d="M27.1115 27.0976C26.7584 26.0971 26.0325 25.2928 24.934 24.6847C23.8354 24.0765 22.2954 23.7725 20.3141 23.7725C18.3328 23.7725 16.7928 24.0765 15.6943 24.6847C14.5957 25.2928 13.86 26.0971 13.4873 27.0976H27.1115ZM11.3687 28.8631C11.3687 27.9215 11.5403 27.0338 11.8836 26.2001C12.2269 25.3664 12.7664 24.6405 13.502 24.0226C14.2377 23.4046 15.1695 22.9142 16.2975 22.5513C17.4255 22.1884 18.7693 22.0069 20.3288 22.0069C21.8884 22.0069 23.2273 22.1884 24.3454 22.5513C25.4636 22.9142 26.3905 23.4046 27.1262 24.0226C27.8618 24.6405 28.4013 25.3664 28.7446 26.2001C29.0879 27.0338 29.2596 27.9215 29.2596 28.8631H11.3687ZM11.3687 32.6296V30.8641H29.2596V32.6296H11.3687ZM31.0251 36.6316V34.866H33.5557L35.233 17.799H23.5215L23.3155 16.0335H29.3478V10.7368H31.1134V16.0335H37.2634L35.2919 34.866C35.233 35.3761 35.0221 35.7978 34.6592 36.1313C34.2963 36.4648 33.8402 36.6316 33.2909 36.6316H31.0251ZM12.2514 36.6316C12.016 36.6316 11.81 36.5433 11.6335 36.3667C11.4569 36.1902 11.3687 35.9842 11.3687 35.7488V34.866H29.2596V35.7488C29.2596 35.9842 29.1713 36.1902 28.9947 36.3667C28.8182 36.5433 28.6122 36.6316 28.3768 36.6316H12.2514Z" fill="white"/>
</svg>
