<svg width="48" height="48" viewBox="0 0 48 48" fill="none" xmlns="http://www.w3.org/2000/svg">
<path d="M13.895 36.6316C13.5371 36.6316 13.2371 36.5105 12.995 36.2684C12.7529 36.0263 12.6318 35.7263 12.6318 35.3684V28.4526C12.6318 27.9316 12.8174 27.4855 13.1884 27.1145C13.5595 26.7434 14.0055 26.5579 14.5266 26.5579H15.3792V20.8105C15.3792 20.2895 15.5647 19.8434 15.9358 19.4724C16.3068 19.1013 16.7529 18.9158 17.2739 18.9158H23.0529V16.8947C22.6318 16.6 22.3108 16.2786 22.0897 15.9305C21.8687 15.5824 21.7582 15.1626 21.7582 14.6712C21.7582 14.3641 21.816 14.0684 21.9318 13.7842C22.0476 13.5 22.2108 13.2526 22.4213 13.0421L24.0003 11.3684L25.5792 13.0421C25.7897 13.2526 25.9582 13.5 26.0845 13.7842C26.2108 14.0684 26.2739 14.3641 26.2739 14.6712C26.2739 15.1626 26.1582 15.5824 25.9266 15.9305C25.695 16.2786 25.3687 16.6 24.9476 16.8947V18.9158H30.7266C31.2476 18.9158 31.6937 19.1013 32.0647 19.4724C32.4358 19.8434 32.6213 20.2895 32.6213 20.8105V26.5579H33.4739C33.995 26.5579 34.441 26.7434 34.8121 27.1145C35.1832 27.4855 35.3687 27.9316 35.3687 28.4526V35.3684C35.3687 35.7263 35.2476 36.0263 35.0055 36.2684C34.7634 36.5105 34.4634 36.6316 34.1055 36.6316H13.895ZM17.2739 26.5579H30.7266V20.8105H17.2739V26.5579ZM14.5266 34.7368H33.4739V28.4526H14.5266V34.7368Z" fill="white"/>
</svg>
