<svg width="48" height="48" viewBox="0 0 48 48" fill="none" xmlns="http://www.w3.org/2000/svg">
<path d="M12.6313 37.8947V28.7368C12.6313 27.0768 13.2208 25.6618 14.3998 24.4918C15.5787 23.3218 16.9892 22.7368 18.6313 22.7368H20.5261V12C20.5261 11.4789 20.7116 11.0329 21.0827 10.6618C21.4537 10.2908 21.8998 10.1052 22.4208 10.1052H25.5787C26.0998 10.1052 26.5458 10.2908 26.9169 10.6618C27.2879 11.0329 27.4735 11.4789 27.4735 12V22.7368H29.3682C31.0282 22.7368 32.4432 23.3218 33.6132 24.4918C34.7832 25.6618 35.3682 27.0768 35.3682 28.7368V37.8947H12.6313ZM14.5261 36H17.8419V31.8947C17.8419 31.6263 17.9366 31.4013 18.1261 31.2197C18.3156 31.0381 18.5419 30.9473 18.805 30.9473C19.0682 30.9473 19.2892 31.0381 19.4682 31.2197C19.6471 31.4013 19.7366 31.6263 19.7366 31.8947V36H23.0524V31.8947C23.0524 31.6263 23.1471 31.4013 23.3366 31.2197C23.5261 31.0381 23.7524 30.9473 24.0156 30.9473C24.2787 30.9473 24.4998 31.0381 24.6787 31.2197C24.8577 31.4013 24.9471 31.6263 24.9471 31.8947V36H28.2629V31.8947C28.2629 31.6263 28.3577 31.4013 28.5471 31.2197C28.7366 31.0381 28.9629 30.9473 29.2261 30.9473C29.4892 30.9473 29.7103 31.0381 29.8892 31.2197C30.0682 31.4013 30.1577 31.6263 30.1577 31.8947V36H33.4735V28.7368C33.4735 27.5964 33.0743 26.6272 32.2761 25.8289C31.4778 25.0307 30.5085 24.6315 29.3682 24.6315H18.6313C17.491 24.6315 16.5217 25.0307 15.7235 25.8289C14.9252 26.6272 14.5261 27.5964 14.5261 28.7368V36ZM25.5787 22.7368V12H22.4208V22.7368H25.5787Z" fill="white"/>
</svg>
