<svg width="76" height="76" viewBox="0 0 76 76" fill="none" xmlns="http://www.w3.org/2000/svg">
<path d="M22 54V51.3333H50.4V54H22ZM28.7111 48.6667C26.8444 48.6667 25.2593 48.0222 23.9556 46.7333C22.6519 45.4444 22 43.8667 22 42V22H51.3333C52.0667 22 52.6944 22.2611 53.2167 22.7833C53.7389 23.3056 54 23.9333 54 24.6667V31.7778C54 32.5111 53.7389 33.1389 53.2167 33.6611C52.6944 34.1833 52.0667 34.4444 51.3333 34.4444H47.0667V42C47.0667 43.8667 46.4148 45.4444 45.1111 46.7333C43.8074 48.0222 42.2222 48.6667 40.3556 48.6667H28.7111ZM28.7111 46H40.3546C41.4219 46 42.363 45.5926 43.1778 44.7778C43.9926 43.963 44.4 43.037 44.4 42V24.6667H24.6667V42C24.6667 43.037 25.0815 43.963 25.9111 44.7778C26.7407 45.5926 27.6741 46 28.7111 46ZM47.0667 31.7778H51.3333V24.6667H47.0667V31.7778Z" fill="white"/>
</svg>
