<svg width="76" height="76" viewBox="0 0 76 76" fill="none" xmlns="http://www.w3.org/2000/svg">
<path d="M38 57L18 26.75C20.8667 24.35 24 22.4583 27.4 21.075C30.8 19.6917 34.3333 19 38 19C41.6667 19 45.2 19.6917 48.6 21.075C52 22.4583 55.1333 24.35 58 26.75L38 57ZM38 51.65L54.05 27.45C51.65 25.8833 49.0971 24.5833 46.3914 23.55C43.6857 22.5167 40.8885 22 38 22C35.0987 22 32.2983 22.5167 29.599 23.55C26.8997 24.5833 24.35 25.8833 21.95 27.45L38 51.65ZM32.5029 32.75C33.2676 32.75 33.9167 32.4824 34.45 31.9471C34.9833 31.4118 35.25 30.7618 35.25 29.9971C35.25 29.2324 34.9824 28.5833 34.4471 28.05C33.9118 27.5167 33.2618 27.25 32.4971 27.25C31.7324 27.25 31.0833 27.5176 30.55 28.0529C30.0167 28.5882 29.75 29.2382 29.75 30.0029C29.75 30.7676 30.0176 31.4167 30.5529 31.95C31.0882 32.4833 31.7382 32.75 32.5029 32.75ZM38.0029 43.5C38.7676 43.5 39.4167 43.2323 39.95 42.697C40.4833 42.1617 40.75 41.5117 40.75 40.747C40.75 39.9823 40.4823 39.3333 39.947 38.8C39.4117 38.2667 38.7618 38 37.9971 38C37.2324 38 36.5833 38.2677 36.05 38.803C35.5167 39.3383 35.25 39.9883 35.25 40.753C35.25 41.5177 35.5176 42.1667 36.0529 42.7C36.5882 43.2333 37.2382 43.5 38.0029 43.5Z" fill="white"/>
</svg>
