<svg width="76" height="76" viewBox="0 0 76 76" fill="none" xmlns="http://www.w3.org/2000/svg">
<path d="M21.8155 52C20.5488 52 19.5571 51.575 18.8405 50.725C18.1238 49.875 17.8655 48.7 18.0655 47.2L20.4655 30.45C20.7321 28.6833 21.5571 27.1667 22.9405 25.9C24.3238 24.6333 25.8988 24 27.6655 24H49.3155C51.0821 24 52.6571 24.6333 54.0405 25.9C55.4238 27.1667 56.2488 28.6833 56.5155 30.45L58.8655 47.2C59.0655 48.7 58.8071 49.875 58.0905 50.725C57.3738 51.575 56.3821 52 55.1155 52C54.3488 52 53.6988 51.875 53.1655 51.625C52.6321 51.375 52.1821 51.0667 51.8155 50.7L46.6155 45.5H30.3155L25.1155 50.7C24.7488 51.0667 24.2988 51.375 23.7655 51.625C23.2321 51.875 22.5821 52 21.8155 52ZM22.7155 48.8L29.0155 42.5H47.9155L54.2155 48.8C54.3821 48.9667 54.6821 49.1167 55.1155 49.25C55.4155 49.25 55.6405 49.1 55.7905 48.8C55.9405 48.5 55.9821 48.2 55.9155 47.9L53.5155 30.95C53.3488 29.7833 52.8571 28.8333 52.0405 28.1C51.2238 27.3667 50.3155 27 49.3155 27H27.6155C26.6155 27 25.7071 27.3667 24.8905 28.1C24.0738 28.8333 23.5821 29.7833 23.4155 30.95L21.0155 47.9C20.9488 48.2 20.9905 48.5 21.1405 48.8C21.2905 49.1 21.5155 49.25 21.8155 49.25C22.0488 49.25 22.3488 49.1 22.7155 48.8ZM49.4655 40C49.9988 40 50.4655 39.8 50.8655 39.4C51.2655 39 51.4655 38.5333 51.4655 38C51.4655 37.4667 51.2655 37 50.8655 36.6C50.4655 36.2 49.9988 36 49.4655 36C48.9321 36 48.4655 36.2 48.0655 36.6C47.6655 37 47.4655 37.4667 47.4655 38C47.4655 38.5333 47.6655 39 48.0655 39.4C48.4655 39.8 48.9321 40 49.4655 40ZM45.2155 33.5C45.7488 33.5 46.2155 33.3 46.6155 32.9C47.0155 32.5 47.2155 32.0333 47.2155 31.5C47.2155 30.9667 47.0155 30.5 46.6155 30.1C46.2155 29.7 45.7488 29.5 45.2155 29.5C44.6821 29.5 44.2155 29.7 43.8155 30.1C43.4155 30.5 43.2155 30.9667 43.2155 31.5C43.2155 32.0333 43.4155 32.5 43.8155 32.9C44.2155 33.3 44.6821 33.5 45.2155 33.5ZM29.4655 39.75H31.9655V36H35.7155V33.5H31.9655V29.75H29.4655V33.5H25.7155V36H29.4655V39.75Z" fill="white"/>
</svg>
